<svg version="1.2" xmlns="http://www.w3.org/2000/svg" viewBox="0 0 3000 1500" width="3000" height="1500">
	<title>bg-svg</title>
	<style>
		tspan { white-space:pre } 
		.s0 { fill: #ffffff } 
		.s1 { fill: #efedff } 
		.s2 { fill: #43444d } 
	</style>
	<g id="OBJECTS">
		<g id="&lt;Group&gt;">
			<g id="&lt;Group&gt;">
				<g id="&lt;Group&gt;">
					<rect id="&lt;Path&gt;" class="s0" x="-45.7" y="-370" width="3044.1" height="1977.9" rx="23.1"></rect>
					<g id="&lt;Group&gt;">
						<path id="&lt;Path&gt;" class="s1" d="m2998.4-29.9v1254.5c-117.7 87.4-259.6 148.1-382.8 230.6-62.9 42.1-122.3 94.1-166.8 152.6h-803.3c-103.1-153.2-263.3-281.1-420.9-396.5-126-92.3-257.6-185.7-335.4-313.4-98.5-161.7-94.1-369.4 11.2-527.7 100.8-151.6 278.1-249.2 456.5-325.7 178.3-76.5 367-139.3 523.3-247.5 66.7-46.2 127.2-103.2 173.1-167h578.2c63.5 119 163.2 222.8 286.3 296.1 26.1 15.6 53.3 29.9 80.6 44z"/>
					</g>
					<g id="&lt;Group&gt;">
						<path id="&lt;Path&gt;" class="s1" d="m643.2-370c-11.3 51.3-35.5 100.7-69.9 142.7-79.1 96.7-204.4 157-334.3 185.1-79.7 17.3-163.3 24-238.2 53.9-16 6.5-31.7 14.3-46.5 23.4v-360.4c0-24.7 22.4-44.7 49.9-44.7z"/>
					</g>
					<g id="&lt;Group&gt;">
						<g id="&lt;Group&gt;">
							<g id="&lt;Group&gt;">
								<g id="&lt;Group&gt;">
									<g id="&lt;Group&gt;">
										<path id="&lt;Path&gt;" class="s2" d="m115.6 1505.9c-2.5 0-4.7-1.7-5.5-4.1 1 0.2 1.9 0.2 2.7-0.1-2.8-0.5-4.8-3.1-4.7-5.8 0.8 0.4 1.7 0.7 2.6 0.7-2.6-1.7-3.3-5.2-1.8-7.8 2.9 3.6 7.2 5.9 12.1 6.1-0.8-3.6 2-7.2 5.7-7.2 1.7 0 3.3 0.7 4.3 1.9q2-0.4 3.8-1.4c-0.5 1.3-1.4 2.5-2.6 3.2q1.8-0.2 3.3-0.9c-0.7 1.2-1.7 2.2-2.9 3 0.4 8.3-5.8 17.5-16.7 17.5-3.3 0-6.4-1-9-2.7 3.1 0.4 6.3-0.4 8.7-2.4z"/>
									</g>
									<g id="&lt;Group&gt;">
										<path id="&lt;Path&gt;" class="s2" d="m248.8 1496.6h-3.4v-5.5h3.4q0-0.8 0-4.4c0-4.1 2.2-6.2 7.1-6.2q0.8 0 4.5 0v5.7q-2.5 0-3.5 0c-1.3 0-1.5 0.5-1.5 1.8q0 1 0 3.1h5l-0.5 5.5h-4.5v16.3h-6.6z"/>
									</g>
									<g id="&lt;Group&gt;">
										<path id="&lt;Compound Path&gt;" fill-rule="evenodd" class="s2" d="m194.8 1482.7c1.6 0.1 2.7 0.4 3.6 0.7 1 0.4 1.8 0.9 2.6 1.7 0.8 0.8 1.3 1.7 1.7 2.6 0.4 1 0.6 2 0.7 3.6 0.1 1.6 0.1 2.1 0.1 6.1 0 4 0 4.5-0.1 6-0.1 1.6-0.3 2.7-0.7 3.6-0.4 1-0.9 1.8-1.7 2.6-0.8 0.8-1.6 1.3-2.6 1.7-0.9 0.4-2 0.6-3.6 0.7-1.5 0.1-2 0.1-6 0.1-4 0-4.5 0-6.1-0.1-1.6-0.1-2.7-0.3-3.6-0.7-1-0.4-1.8-0.9-2.6-1.7-0.8-0.8-1.3-1.6-1.7-2.6-0.4-0.9-0.6-2-0.7-3.6-0.1-1.5-0.1-2-0.1-6 0-4 0-4.5 0.1-6.1 0.1-1.6 0.3-2.6 0.7-3.6 0.4-0.9 0.9-1.8 1.7-2.6 0.8-0.8 1.6-1.3 2.6-1.7 0.9-0.3 2-0.6 3.6-0.7 1.6 0 2.1-0.1 6.1-0.1 4 0 4.5 0.1 6 0.1zm-12 2.7c-1.4 0-2.2 0.3-2.7 0.5-0.7 0.3-1.2 0.6-1.7 1.1-0.5 0.5-0.9 1-1.1 1.7-0.2 0.5-0.5 1.3-0.5 2.7-0.1 1.6-0.1 2-0.1 6 0 3.9 0 4.4 0.1 5.9 0 1.5 0.3 2.2 0.5 2.7 0.2 0.7 0.6 1.2 1.1 1.7 0.5 0.6 1 0.9 1.7 1.1 0.5 0.2 1.3 0.5 2.7 0.6 1.6 0 2 0 6 0 3.9 0 4.4 0 5.9 0 1.4-0.1 2.2-0.4 2.7-0.6 0.7-0.2 1.2-0.5 1.7-1.1 0.5-0.5 0.9-1 1.1-1.7 0.2-0.5 0.5-1.2 0.5-2.7 0.1-1.5 0.1-2 0.1-5.9 0-4 0-4.4-0.1-6 0-1.4-0.3-2.2-0.5-2.7-0.2-0.7-0.6-1.2-1.1-1.7-0.5-0.5-1-0.8-1.7-1.1-0.5-0.2-1.3-0.5-2.7-0.5-1.5-0.1-2-0.1-5.9-0.1-4 0-4.4 0-6 0.1z"/>
										<path id="&lt;Compound Path&gt;" fill-rule="evenodd" class="s2" d="m188.8 1504.9c-4.2 0-7.6-3.4-7.6-7.5 0-4.2 3.4-7.6 7.6-7.6 4.1 0 7.5 3.4 7.5 7.6 0 4.1-3.4 7.5-7.5 7.5zm4.9-7.5c0-2.7-2.2-4.9-4.9-4.9-2.8 0-5 2.2-5 4.9 0 2.7 2.2 4.9 5 4.9 2.7 0 4.9-2.2 4.9-4.9z"/>
										<path id="&lt;Path&gt;" class="s2" d="m198.4 1489.5c0 1-0.8 1.8-1.8 1.8-1 0-1.8-0.8-1.8-1.8 0-1 0.8-1.8 1.8-1.8 1 0 1.8 0.8 1.8 1.8z"/>
									</g>
								</g>
							</g>
						</g>
					</g>
					<g id="&lt;Group&gt;">
						<path id="&lt;Path&gt;" class="s1" d="m743.2 1607.8h-731.3c-31.8 0-57.6-20-57.6-44.7v-505.8c47.5 52.9 109.5 97.8 182.3 129 92.2 39.5 196.5 57.5 295.8 84.9 99.2 27.5 198.6 67.8 255.2 136.8 48.3 58.8 58.5 128.9 55.6 199.8z"/>
					</g>
				</g>
			</g>
		</g>
	</g>
</svg>