<svg version="1.2" xmlns="http://www.w3.org/2000/svg" viewBox="0 0 3000 1500" width="3000" height="1500">
	<title>delivery5-ai</title>
	<defs>
		<linearGradient id="g1" x1="887.8" y1="1465.8" x2="901.5" y2="1465.8" gradientUnits="userSpaceOnUse">
			<stop offset="0" stop-color="#60a1e3"/>
			<stop offset="1" stop-color="#5d5fd0"/>
		</linearGradient>
		<linearGradient id="g2" x1="729.5" y1="1465.2" x2="743.1" y2="1465.2" gradientUnits="userSpaceOnUse">
			<stop offset="0" stop-color="#60a1e3"/>
			<stop offset="1" stop-color="#5d5fd0"/>
		</linearGradient>
		<linearGradient id="g3" x1="701.7" y1="1425.4" x2="813.8" y2="1425.4" gradientUnits="userSpaceOnUse">
			<stop offset="0" stop-color="#ff31c4"/>
			<stop offset="1" stop-color="#9a2e9e"/>
		</linearGradient>
		<linearGradient id="g4" x1="696.3" y1="1371.9" x2="739.6" y2="1371.9" gradientUnits="userSpaceOnUse">
			<stop offset="0" stop-color="#ffc572"/>
			<stop offset="1" stop-color="#ff4eb3"/>
		</linearGradient>
		<linearGradient id="g5" x1="683.5" y1="1371.3" x2="726.4" y2="1371.7" gradientUnits="userSpaceOnUse">
			<stop offset="0" stop-color="#ffc572"/>
			<stop offset="1" stop-color="#ff4eb3"/>
		</linearGradient>
		<linearGradient id="g6" x1="779.1" y1="1390" x2="888" y2="1390" gradientUnits="userSpaceOnUse">
			<stop offset="0" stop-color="#ff31c4"/>
			<stop offset="1" stop-color="#9a2e9e"/>
		</linearGradient>
		<linearGradient id="g7" x1="809.1" y1="1305.9" x2="834.3" y2="1305.9" gradientUnits="userSpaceOnUse">
			<stop offset="0" stop-color="#ffc572"/>
			<stop offset="1" stop-color="#ff4eb3"/>
		</linearGradient>
		<linearGradient id="g8" x1="800.7" y1="1336.4" x2="824.2" y2="1346.6" gradientUnits="userSpaceOnUse">
			<stop offset="0" stop-color="#92d2ff"/>
			<stop offset="1" stop-color="#28a0ff"/>
		</linearGradient>
		<linearGradient id="g9" x1="861" y1="1409.2" x2="850.3" y2="1436.7" gradientUnits="userSpaceOnUse">
			<stop offset="0" stop-color="#60a1e3"/>
			<stop offset="1" stop-color="#5d5fd0"/>
		</linearGradient>
		<linearGradient id="g10" x1="858.3" y1="1369.8" x2="843.8" y2="1399.7" gradientUnits="userSpaceOnUse">
			<stop offset="0" stop-color="#92d2ff"/>
			<stop offset="1" stop-color="#28a0ff"/>
		</linearGradient>
		<linearGradient id="g11" x1="2262" y1="1171.4" x2="2342.3" y2="1171.4" gradientUnits="userSpaceOnUse">
			<stop offset="0" stop-color="#ffc572"/>
			<stop offset="1" stop-color="#ff4eb3"/>
		</linearGradient>
		<linearGradient id="g12" x1="2193" y1="1287.9" x2="2479.9" y2="1357.9" gradientUnits="userSpaceOnUse">
			<stop offset="0" stop-color="#68d2ff"/>
			<stop offset="1" stop-color="#2287d9"/>
		</linearGradient>
		<linearGradient id="g13" x1="2178.7" y1="1346.7" x2="2465.6" y2="1416.6" gradientUnits="userSpaceOnUse">
			<stop offset="0" stop-color="#68d2ff"/>
			<stop offset="1" stop-color="#2287d9"/>
		</linearGradient>
		<linearGradient id="g14" x1="1371.1" y1="1434.4" x2="1744.8" y2="1434.4" gradientUnits="userSpaceOnUse">
			<stop offset="0" stop-color="#68d2ff"/>
			<stop offset="1" stop-color="#2287d9"/>
		</linearGradient>
		<linearGradient id="g15" x1="1557.8" y1="1465" x2="1744.8" y2="1465" gradientUnits="userSpaceOnUse">
			<stop offset="0" stop-color="#68d2ff"/>
			<stop offset="1" stop-color="#2287d9"/>
		</linearGradient>
		<linearGradient id="g16" x1="1744.8" y1="1321.6" x2="1860.3" y2="1321.6" gradientUnits="userSpaceOnUse">
			<stop offset="0" stop-color="#68d2ff"/>
			<stop offset="1" stop-color="#2287d9"/>
		</linearGradient>
		<linearGradient id="g17" x1="1853.8" y1="1419.6" x2="1860.3" y2="1419.6" gradientUnits="userSpaceOnUse">
			<stop offset="0" stop-color="#ffc572"/>
			<stop offset="1" stop-color="#ff4eb3"/>
		</linearGradient>
		<linearGradient id="g18" x1="1762.3" y1="1422.4" x2="1761" y2="1359.8" gradientUnits="userSpaceOnUse">
			<stop offset="0" stop-color="#d2dfef"/>
			<stop offset="1" stop-color="#f2f2f2"/>
		</linearGradient>
		<linearGradient id="g19" x1="1761.5" y1="1390.3" x2="1782.5" y2="1390.3" gradientUnits="userSpaceOnUse">
			<stop offset="0" stop-color="#ffc572"/>
			<stop offset="1" stop-color="#ff4eb3"/>
		</linearGradient>
		<linearGradient id="g20" x1="1371.1" y1="1465" x2="1494" y2="1465" gradientUnits="userSpaceOnUse">
			<stop offset="0" stop-color="#68d2ff"/>
			<stop offset="1" stop-color="#2287d9"/>
		</linearGradient>
		<linearGradient id="g21" x1="1511.9" y1="1455.5" x2="1539.2" y2="1455.5" gradientUnits="userSpaceOnUse">
			<stop offset="0" stop-color="#60a1e3"/>
			<stop offset="1" stop-color="#5d5fd0"/>
		</linearGradient>
		<linearGradient id="g22" x1="1769.1" y1="1455.5" x2="1796.4" y2="1455.5" gradientUnits="userSpaceOnUse">
			<stop offset="0" stop-color="#60a1e3"/>
			<stop offset="1" stop-color="#5d5fd0"/>
		</linearGradient>
		<clipPath clipPathUnits="userSpaceOnUse" id="cp1">
			<path d="m360.63 1505.29l-19.47 0.43q-0.04 0-0.09 0l19.47-0.43q0.05 0 0.09 0z"/>
		</clipPath>
		<linearGradient id="g23" x1="322.3" y1="1486.9" x2="326.3" y2="1160.3" gradientUnits="userSpaceOnUse">
			<stop offset="0" stop-color="#68d2ff"/>
			<stop offset="1" stop-color="#2287d9"/>
		</linearGradient>
		<linearGradient id="g24" x1="257.3" y1="1054.2" x2="349" y2="1054.2" gradientUnits="userSpaceOnUse">
			<stop offset="0" stop-color="#68d2ff"/>
			<stop offset="1" stop-color="#2287d9"/>
		</linearGradient>
		<clipPath clipPathUnits="userSpaceOnUse" id="cp2">
			<path d="m257.21 1056.59l19.47-0.43q0.04 0 0.09 0l-19.48 0.43q-0.04 0-0.08 0z"/>
		</clipPath>
		<linearGradient id="g25" x1="261.5" y1="1501.1" x2="360.5" y2="1501.1" gradientUnits="userSpaceOnUse">
			<stop offset="0" stop-color="#68d2ff"/>
			<stop offset="1" stop-color="#2287d9"/>
		</linearGradient>
		<linearGradient id="g26" x1="277.7" y1="1067.1" x2="283" y2="1503.9" gradientUnits="userSpaceOnUse">
			<stop offset="0" stop-color="#68d2ff"/>
			<stop offset="1" stop-color="#2287d9"/>
		</linearGradient>
		<linearGradient id="g27" x1="301.3" y1="1054.6" x2="327.9" y2="1054.6" gradientUnits="userSpaceOnUse">
			<stop offset="0" stop-color="#68d2ff"/>
			<stop offset="1" stop-color="#2287d9"/>
		</linearGradient>
		<linearGradient id="g28" x1="1144.7" y1="1535.2" x2="1071.6" y2="1485.6" gradientUnits="userSpaceOnUse">
			<stop offset="0" stop-color="#aec9e8"/>
			<stop offset="1" stop-color="#f2f2f2"/>
		</linearGradient>
		<linearGradient id="g29" x1="1904" y1="1426.2" x2="2122.5" y2="1426.2" gradientUnits="userSpaceOnUse">
			<stop offset="0" stop-color="#aec9e8"/>
			<stop offset="1" stop-color="#f2f2f2"/>
		</linearGradient>
		<linearGradient id="g30" x1="2463.3" y1="1428.2" x2="2681.7" y2="1428.2" gradientUnits="userSpaceOnUse">
			<stop offset="0" stop-color="#aec9e8"/>
			<stop offset="1" stop-color="#f2f2f2"/>
		</linearGradient>
		<linearGradient id="g31" x1="1364.6" y1="979.8" x2="1369.7" y2="980.5" gradientUnits="userSpaceOnUse">
			<stop offset="0" stop-color="#68d2ff"/>
			<stop offset="1" stop-color="#2287d9"/>
		</linearGradient>
		<linearGradient id="g32" x1="1204.4" y1="996" x2="1209" y2="996.6" gradientUnits="userSpaceOnUse">
			<stop offset="0" stop-color="#68d2ff"/>
			<stop offset="1" stop-color="#2287d9"/>
		</linearGradient>
		<linearGradient id="g33" x1="1208.8" y1="995.8" x2="1214.8" y2="996.7" gradientUnits="userSpaceOnUse">
			<stop offset="0" stop-color="#68d2ff"/>
			<stop offset="1" stop-color="#2287d9"/>
		</linearGradient>
		<linearGradient id="g34" x1="1177.3" y1="978.5" x2="1243.3" y2="987.5" gradientUnits="userSpaceOnUse">
			<stop offset="0" stop-color="#68d2ff"/>
			<stop offset="1" stop-color="#2287d9"/>
		</linearGradient>
		<linearGradient id="g35" x1="1015.3" y1="899.7" x2="1098.3" y2="911.1" gradientUnits="userSpaceOnUse">
			<stop offset="0" stop-color="#68d2ff"/>
			<stop offset="1" stop-color="#2287d9"/>
		</linearGradient>
		<linearGradient id="g36" x1="1040.4" y1="1053.3" x2="1013" y2="920.2" gradientUnits="userSpaceOnUse">
			<stop offset="0" stop-color="#68d2ff"/>
			<stop offset="1" stop-color="#2287d9"/>
		</linearGradient>
		<linearGradient id="g37" x1="1024.3" y1="959.8" x2="1079.8" y2="967.4" gradientUnits="userSpaceOnUse">
			<stop offset="0" stop-color="#68d2ff"/>
			<stop offset="1" stop-color="#2287d9"/>
		</linearGradient>
		<linearGradient id="g38" x1="1252" y1="984.2" x2="1276.8" y2="987.6" gradientUnits="userSpaceOnUse">
			<stop offset="0" stop-color="#68d2ff"/>
			<stop offset="1" stop-color="#2287d9"/>
		</linearGradient>
		<linearGradient id="g39" x1="1240.3" y1="987" x2="1254" y2="988.8" gradientUnits="userSpaceOnUse">
			<stop offset="0" stop-color="#68d2ff"/>
			<stop offset="1" stop-color="#2287d9"/>
		</linearGradient>
		<linearGradient id="g40" x1="1271.7" y1="986.8" x2="1277" y2="987.5" gradientUnits="userSpaceOnUse">
			<stop offset="0" stop-color="#68d2ff"/>
			<stop offset="1" stop-color="#2287d9"/>
		</linearGradient>
		<linearGradient id="g41" x1="1250.9" y1="1005.1" x2="1180.9" y2="988.7" gradientUnits="userSpaceOnUse">
			<stop offset="0" stop-color="#68d2ff"/>
			<stop offset="1" stop-color="#2287d9"/>
		</linearGradient>
		<linearGradient id="g42" x1="1218.9" y1="996.6" x2="1220.3" y2="1005" gradientUnits="userSpaceOnUse">
			<stop offset="0" stop-color="#68d2ff"/>
			<stop offset="1" stop-color="#2287d9"/>
		</linearGradient>
		<linearGradient id="g43" x1="1217.2" y1="996.9" x2="1218.6" y2="1005.3" gradientUnits="userSpaceOnUse">
			<stop offset="0" stop-color="#68d2ff"/>
			<stop offset="1" stop-color="#2287d9"/>
		</linearGradient>
		<linearGradient id="g44" x1="1373.8" y1="991.1" x2="1373.3" y2="994.7" gradientUnits="userSpaceOnUse">
			<stop offset="0" stop-color="#68d2ff"/>
			<stop offset="1" stop-color="#2287d9"/>
		</linearGradient>
		<linearGradient id="g45" x1="1372.3" y1="990.9" x2="1371.8" y2="994.5" gradientUnits="userSpaceOnUse">
			<stop offset="0" stop-color="#68d2ff"/>
			<stop offset="1" stop-color="#2287d9"/>
		</linearGradient>
		<linearGradient id="g46" x1="1208.3" y1="998.4" x2="1209.7" y2="1006.8" gradientUnits="userSpaceOnUse">
			<stop offset="0" stop-color="#68d2ff"/>
			<stop offset="1" stop-color="#2287d9"/>
		</linearGradient>
		<linearGradient id="g47" x1="1206.6" y1="998.7" x2="1208" y2="1007.1" gradientUnits="userSpaceOnUse">
			<stop offset="0" stop-color="#68d2ff"/>
			<stop offset="1" stop-color="#2287d9"/>
		</linearGradient>
		<linearGradient id="g48" x1="726.8" y1="1006.1" x2="763.3" y2="1006.1" gradientUnits="userSpaceOnUse">
			<stop offset="0" stop-color="#ffc572"/>
			<stop offset="1" stop-color="#ff4eb3"/>
		</linearGradient>
		<linearGradient id="g49" x1="701.9" y1="882" x2="788.4" y2="882" gradientUnits="userSpaceOnUse">
			<stop offset="0" stop-color="#68d2ff"/>
			<stop offset="1" stop-color="#2287d9"/>
		</linearGradient>
		<clipPath clipPathUnits="userSpaceOnUse" id="cp3">
			<path d="m765.25 970.51c-1.03 1.52-6.53 11.16-8.04 11.16q-0.01 0-23.61 0c-6.53-10.22-14.07-18.73-21.82-27.95-2.23-2.65-4.13-5.57-5.65-8.68-1.41-2.89-1.74-6.69-3.27-9.37q-0.98-4.41-0.99-9.06c0-23.52 19.38-42.59 43.29-42.59 23.91 0 43.29 19.07 43.29 42.59 0 18.77-13.44 29.58-23.2 43.9z"/>
		</clipPath>
		<linearGradient id="g50" x1="733.5" y1="979.7" x2="757.2" y2="979.7" gradientUnits="userSpaceOnUse">
			<stop offset="0" stop-color="#68d2ff"/>
			<stop offset="1" stop-color="#2287d9"/>
		</linearGradient>
		<linearGradient id="g51" x1="1819.1" y1="1086.2" x2="1860.5" y2="1086.2" gradientUnits="userSpaceOnUse">
			<stop offset="0" stop-color="#68d2ff"/>
			<stop offset="1" stop-color="#2287d9"/>
		</linearGradient>
		<linearGradient id="g52" x1="1760.3" y1="1070.2" x2="1795.4" y2="1070.2" gradientUnits="userSpaceOnUse">
			<stop offset="0" stop-color="#68d2ff"/>
			<stop offset="1" stop-color="#2287d9"/>
		</linearGradient>
		<linearGradient id="g53" x1="1768.7" y1="1066.8" x2="1776.1" y2="1066.8" gradientUnits="userSpaceOnUse">
			<stop offset="0" stop-color="#68d2ff"/>
			<stop offset="1" stop-color="#2287d9"/>
		</linearGradient>
		<linearGradient id="g54" x1="1849.5" y1="1082.8" x2="1857" y2="1082.8" gradientUnits="userSpaceOnUse">
			<stop offset="0" stop-color="#68d2ff"/>
			<stop offset="1" stop-color="#2287d9"/>
		</linearGradient>
		<linearGradient id="g55" x1="1757.2" y1="1105.6" x2="1837.7" y2="1105.6" gradientUnits="userSpaceOnUse">
			<stop offset="0" stop-color="#ffc572"/>
			<stop offset="1" stop-color="#ff4eb3"/>
		</linearGradient>
		<linearGradient id="g56" x1="1785.3" y1="1091.8" x2="1825.8" y2="1091.8" gradientUnits="userSpaceOnUse">
			<stop offset="0" stop-color="#68d2ff"/>
			<stop offset="1" stop-color="#2287d9"/>
		</linearGradient>
		<clipPath clipPathUnits="userSpaceOnUse" id="cp4">
			<path d="m478.85 1503.85l-198.84-1.16-3.32-218.42 202.16 1.06z"/>
		</clipPath>
		<linearGradient id="g57" x1="361.1" y1="1319.5" x2="384.6" y2="1336.6" gradientUnits="userSpaceOnUse">
			<stop offset="0" stop-color="#92d2ff"/>
			<stop offset="1" stop-color="#28a0ff"/>
		</linearGradient>
		<linearGradient id="g58" x1="387.3" y1="1378.1" x2="396.8" y2="1450.6" gradientUnits="userSpaceOnUse">
			<stop offset="0" stop-color="#60a1e3"/>
			<stop offset="1" stop-color="#5d5fd0"/>
		</linearGradient>
		<linearGradient id="g59" x1="367.6" y1="1289.5" x2="392.4" y2="1289.5" gradientUnits="userSpaceOnUse">
			<stop offset="0" stop-color="#ffc572"/>
			<stop offset="1" stop-color="#ff4eb3"/>
		</linearGradient>
		<linearGradient id="g60" x1="390.1" y1="1307.9" x2="367.4" y2="1302.7" gradientUnits="userSpaceOnUse">
			<stop offset="0" stop-color="#ffc572"/>
			<stop offset="1" stop-color="#ff4eb3"/>
		</linearGradient>
		<linearGradient id="g61" x1="390.6" y1="1305.8" x2="367.9" y2="1300.5" gradientUnits="userSpaceOnUse">
			<stop offset="0" stop-color="#ffc572"/>
			<stop offset="1" stop-color="#ff4eb3"/>
		</linearGradient>
		<linearGradient id="g62" x1="289.4" y1="1302.2" x2="351.8" y2="1302.2" gradientUnits="userSpaceOnUse">
			<stop offset="0" stop-color="#ffc572"/>
			<stop offset="1" stop-color="#ff4eb3"/>
		</linearGradient>
		<linearGradient id="g63" x1="312.6" y1="1305.7" x2="349.6" y2="1305.7" gradientUnits="userSpaceOnUse">
			<stop offset="0" stop-color="#ffc572"/>
			<stop offset="1" stop-color="#ff4eb3"/>
		</linearGradient>
		<linearGradient id="g64" x1="362.1" y1="1381.2" x2="371.3" y2="1451.1" gradientUnits="userSpaceOnUse">
			<stop offset="0" stop-color="#60a1e3"/>
			<stop offset="1" stop-color="#5d5fd0"/>
		</linearGradient>
		<linearGradient id="g65" x1="399.9" y1="1366.9" x2="386.7" y2="1385.2" gradientUnits="userSpaceOnUse">
			<stop offset="0" stop-color="#92d2ff"/>
			<stop offset="1" stop-color="#28a0ff"/>
		</linearGradient>
		<linearGradient id="g66" x1="400.1" y1="1313.6" x2="358.9" y2="1306.8" gradientUnits="userSpaceOnUse">
			<stop offset="0" stop-color="#ffc572"/>
			<stop offset="1" stop-color="#ff4eb3"/>
		</linearGradient>
		<linearGradient id="g67" x1="368.2" y1="1319" x2="368.2" y2="1305.7" gradientUnits="userSpaceOnUse">
			<stop offset="0" stop-color="#ffc572"/>
			<stop offset="1" stop-color="#ff4eb3"/>
		</linearGradient>
		<linearGradient id="g68" x1="374.8" y1="1324.7" x2="374.8" y2="1306.2" gradientUnits="userSpaceOnUse">
			<stop offset="0" stop-color="#ffc572"/>
			<stop offset="1" stop-color="#ff4eb3"/>
		</linearGradient>
		<linearGradient id="g69" x1="165.7" y1="1496.1" x2="2745.7" y2="1496.1" gradientUnits="userSpaceOnUse">
			<stop offset="0" stop-color="#68d2ff"/>
			<stop offset="1" stop-color="#2287d9"/>
		</linearGradient>
		<linearGradient id="g70" x1="866.7" y1="1259.6" x2="928.6" y2="1259.6" gradientUnits="userSpaceOnUse">
			<stop offset="0" stop-color="#ffc572"/>
			<stop offset="1" stop-color="#ff4eb3"/>
		</linearGradient>
		<linearGradient id="g71" x1="282.4" y1="1094.9" x2="320.2" y2="1094.9" gradientUnits="userSpaceOnUse">
			<stop offset="0" stop-color="#ffc572"/>
			<stop offset="1" stop-color="#ff4eb3"/>
		</linearGradient>
	</defs>
	<style>
		.s0 { fill: #edf1f4 } 
		.s1 { fill: #ffffff } 
		.s2 { fill: #1f60b0 } 
		.s3 { fill: #808285 } 
		.s4 { fill: #350fa2 } 
		.s5 { fill: #ff6f69 } 
		.s6 { fill: #c132ae } 
		.s7 { fill: #6099dc } 
		.s8 { fill: url(#g1) } 
		.s9 { fill: url(#g2) } 
		.s10 { fill: #753397 } 
		.s11 { fill: url(#g3) } 
		.s12 { fill: url(#g4) } 
		.s13 { fill: #782388 } 
		.s14 { fill: url(#g5) } 
		.s15 { fill: #5876d6 } 
		.s16 { fill: url(#g6) } 
		.s17 { fill: #414042 } 
		.s18 { fill: #f8a595 } 
		.s19 { fill: #f7a08c } 
		.s20 { fill: url(#g7) } 
		.s21 { fill: url(#g8) } 
		.s22 { fill: url(#g9) } 
		.s23 { fill: url(#g10) } 
		.s24 { fill: #231f20 } 
		.s25 { fill: #e7eefe } 
		.s26 { fill: #cbdbfd } 
		.s27 { fill: url(#g11) } 
		.s28 { fill: url(#g12) } 
		.s29 { fill: url(#g13) } 
		.s30 { fill: #b1c9fd } 
		.s31 { fill: url(#g14) } 
		.s32 { fill: url(#g15) } 
		.s33 { fill: url(#g16) } 
		.s34 { fill: url(#g17) } 
		.s35 { fill: url(#g18) } 
		.s36 { fill: url(#g19) } 
		.s37 { fill: url(#g20) } 
		.s38 { fill: url(#g21) } 
		.s39 { fill: url(#g22) } 
		.s40 { fill: #858585 } 
		.s41 { fill: url(#g23) } 
		.s42 { fill: url(#g24) } 
		.s43 { fill: url(#g25) } 
		.s44 { fill: #dae3f2 } 
		.s45 { fill: url(#g26) } 
		.s46 { fill: url(#g27) } 
		.s47 { fill: #dbe2f2 } 
		.s48 { fill: url(#g28) } 
		.s49 { fill: #f8f5ff } 
		.s50 { fill: url(#g29) } 
		.s51 { fill: url(#g30) } 
		.s52 { fill: url(#g31) } 
		.s53 { fill: url(#g32) } 
		.s54 { fill: url(#g33) } 
		.s55 { fill: url(#g34) } 
		.s56 { fill: url(#g35) } 
		.s57 { fill: url(#g36) } 
		.s58 { fill: url(#g37) } 
		.s59 { fill: url(#g38) } 
		.s60 { fill: url(#g39) } 
		.s61 { fill: url(#g40) } 
		.s62 { fill: url(#g41) } 
		.s63 { fill: url(#g42) } 
		.s64 { fill: url(#g43) } 
		.s65 { fill: url(#g44) } 
		.s66 { fill: url(#g45) } 
		.s67 { fill: url(#g46) } 
		.s68 { fill: url(#g47) } 
		.s69 { fill: url(#g48) } 
		.s70 { fill: #ffc572 } 
		.s71 { fill: url(#g49) } 
		.s72 { fill: url(#g50) } 
		.s73 { fill: url(#g51) } 
		.s74 { fill: url(#g52) } 
		.s75 { fill: url(#g53) } 
		.s76 { fill: url(#g54) } 
		.s77 { fill: #ff7e78 } 
		.s78 { fill: url(#g55) } 
		.s79 { fill: url(#g56) } 
		.s80 { fill: url(#g57) } 
		.s81 { fill: url(#g58) } 
		.s82 { fill: url(#g59) } 
		.s83 { fill: url(#g60) } 
		.s84 { fill: url(#g61) } 
		.s85 { fill: #2888de } 
		.s86 { fill: url(#g62) } 
		.s87 { fill: url(#g63) } 
		.s88 { fill: #7b1ab5 } 
		.s89 { fill: #6d6e71 } 
		.s90 { fill: #000000 } 
		.s91 { fill: #3604a3 } 
		.s92 { fill: url(#g64) } 
		.s93 { fill: url(#g65) } 
		.s94 { fill: url(#g66) } 
		.s95 { fill: url(#g67) } 
		.s96 { fill: url(#g68) } 
		.s97 { fill: url(#g69) } 
		.s98 { fill: url(#g70) } 
		.s99 { fill: #eff3ff } 
		.s100 { fill: url(#g71) } 
	</style>
	<g id="Layer 1">
		<path id="&lt;Path&gt;" class="s0" d="m2745.7 1501.8l-2578.8-5.8c-38.5-40.8-72-89.6-79.5-145.2-7.5-55.6 17.2-118.3 68.4-141.3 43.3-19.3 94.5-7.5 139.8-21.2 53.1-16.1 92.1-69.9 91-125.3-0.6-26.7-9.4-52.5-11.8-79.1-3.4-37.9 7.4-77.9 33.6-105.4 26.2-27.5 68.5-40.3 104.2-27.1 31.7 11.8 53.7 41 83.5 57.2 46.8 25.5 105.5 15.2 154.2-6.6 48.7-21.8 92.4-54.1 142.2-73.4 49.8-19.3 110.5-23.4 152.9 9.1 16.6 12.7 29 29.9 43.6 45 60.9 63.2 162.1 83.4 242.6 48.4 24.9-10.8 47.5-26.2 70.6-40.5 50.1-31 104.2-57.6 162.4-66.8 58.2-9.1 121.3 0.7 168 36.6 48.1 36.9 75.3 97.6 127.3 128.9 53.3 32 127.7 23.7 172.5-19.5l1-1.9c34.3-57.3 93.6-100.6 159.7-109.1 66.2-8.6 137.5 20.7 173.3 76.9 28.5 44.9 39.7 108.4 89.3 127.6 17.7 6.8 37.3 6.2 56.2 8.8 82.5 11.1 149.1 92.5 143.8 175.6-2.7 41-18.2 89.3 11 118.3 13.6 13.5 33.6 18.2 49.8 28.4 34.5 21.8 48 71.3 29.2 107.4z"/>
		<g id="&lt;Group&gt;" style="opacity: .5">
			<g id="&lt;Group&gt;">
				<path id="&lt;Path&gt;" class="s1" d="m633.3 1504.4v-200h31.5v-82.8h38.5v84.3h9.6v-37.2h26.6v36.7h37.6v70.4h24.8v-26.6l31.9-31.9v31.4h19v-90.5h39.6v246.2z"/>
				<path id="&lt;Path&gt;" class="s1" d="m383.4 1504.4v-200h31.4v-82.8h38.6v84.3h9.5v-37.2h26.7v36.7h37.6v70.4h24.7v-26.6l31.9-31.9v31.4h19.1v-90.5h39.5v246.2z"/>
				<path id="&lt;Path&gt;" class="s1" d="m133.4 1504.4v-200h31.5v-82.8h38.5v84.3h9.5v-37.2h26.7v36.7h37.6v70.4h24.8v-26.6l31.9-31.9v31.4h19v-90.5h39.5v246.2z"/>
				<path id="&lt;Path&gt;" class="s1" d="m883.6 1504.4v-200h31.4v-82.8h38.6v84.3h9.5v-37.2h26.7v36.7h37.6v70.4h24.7v-26.6l31.9-31.9v31.4h19.1v-90.5h39.5v246.2z"/>
				<path id="&lt;Path&gt;" class="s1" d="m1134.1 1504.4v-200h31.4v-82.8h38.6v84.3h9.5v-37.2h26.7v36.7h37.6v70.4h24.7v-26.6l31.9-31.9v31.4h19.1v-90.5h39.5v246.2z"/>
			</g>
			<g id="&lt;Group&gt;" style="opacity: .1">
				<path id="&lt;Path&gt;" class="s2" d="m311.5 1226.9q-0.5 2.1-1.6 3.8c-2.4 5.2-7 13.5-12.8 23.3-6.4-10.3-10-17.1-12.6-23q-1.2-1.9-1.8-4.1 0 0 0 0-0.5-1.8-0.5-3.8c0-8.2 6.7-14.8 14.9-14.8 8.2 0 14.9 6.6 14.9 14.8q0 2-0.5 3.8 0 0 0 0z"/>
				<circle id="&lt;Path&gt;" class="s1" cx="297.1" cy="1223.1" r="7.1"/>
			</g>
			<g id="&lt;Group&gt;" style="opacity: .1">
				<path id="&lt;Path&gt;" class="s2" d="m1220.5 1160q-0.5 2-1.5 3.7c-2.5 5.2-7.1 13.5-12.9 23.3-6.3-10.3-9.9-17.1-12.6-23q-1.2-1.8-1.8-4 0 0 0 0-0.4-1.9-0.5-3.8c0-8.3 6.7-14.9 14.9-14.9 8.3 0 14.9 6.6 14.9 14.9q0 1.9-0.5 3.8 0 0 0 0z"/>
				<circle id="&lt;Path&gt;" class="s1" cx="1206.1" cy="1156.2" r="7.1"/>
			</g>
			<g id="&lt;Group&gt;" style="opacity: .1">
				<path id="&lt;Path&gt;" class="s2" d="m1312.4 1129.9q-0.5 2-1.6 3.7c-2.4 5.2-7 13.5-12.8 23.4-6.3-10.4-10-17.1-12.6-23q-1.2-1.9-1.8-4.1 0 0 0 0-0.5-1.9-0.5-3.8c0-8.2 6.7-14.9 14.9-14.9 8.2 0 14.9 6.7 14.9 14.9q0 1.9-0.5 3.8 0 0 0 0z"/>
				<circle id="&lt;Path&gt;" class="s1" cx="1298" cy="1126.1" r="7.1"/>
			</g>
			<g id="&lt;Group&gt;" style="opacity: .1">
				<path id="&lt;Path&gt;" class="s2" d="m213.8 1188.8q-0.4 1.6-1.2 3c-2 4.2-5.8 10.9-10.4 18.9-5.2-8.4-8.1-13.9-10.3-18.6q-0.9-1.6-1.4-3.3 0 0 0 0-0.4-1.5-0.4-3.1c0-6.7 5.4-12.1 12.1-12.1 6.6 0 12 5.4 12 12.1q0 1.6-0.4 3.1 0 0 0 0z"/>
				<circle id="&lt;Path&gt;" class="s1" cx="202.2" cy="1185.7" r="5.7"/>
			</g>
		</g>
		<g id="&lt;Group&gt;" style="opacity: .5">
			<g id="&lt;Group&gt;">
				<path id="&lt;Path&gt;" class="s1" d="m1833.5 1504.4v-200h31.4v-82.8h38.5v84.3h9.6v-37.2h26.6v36.7h37.6v70.4h24.8v-26.6l31.9-31.9v31.4h19.1v-90.5h39.5v246.2z"/>
				<path id="&lt;Path&gt;" class="s1" d="m1583.5 1504.4v-200h31.4v-82.8h38.6v84.3h9.5v-37.2h26.7v36.7h37.6v70.4h24.7v-26.6l31.9-31.9v31.4h19.1v-90.5h39.5v246.2z"/>
				<path id="&lt;Path&gt;" class="s1" d="m1333.5 1504.4v-200h31.5v-82.8h38.5v84.3h9.5v-37.2h26.7v36.7h37.6v70.4h24.8v-26.6l31.9-31.9v31.4h19v-90.5h39.6v246.2z"/>
				<path id="&lt;Path&gt;" class="s1" d="m2083.7 1504.4v-200h31.4v-82.8h38.6v84.3h9.5v-37.2h26.7v36.7h37.6v70.4h24.7v-26.6l31.9-31.9v31.4h19.1v-90.5h39.5v246.2z"/>
				<path id="&lt;Path&gt;" class="s1" d="m2334.2 1504.4v-200h31.4v-82.8h38.6v84.3h9.5v-37.2h26.7v36.7h37.6v70.4h24.7v-26.6l31.9-31.9v31.4h19.1v-90.5h39.5v246.2z"/>
			</g>
			<g id="&lt;Group&gt;" style="opacity: .1">
				<path id="&lt;Path&gt;" class="s2" d="m1511.6 1226.9q-0.5 2.1-1.6 3.8c-2.4 5.2-7 13.5-12.8 23.3-6.4-10.3-10-17.1-12.6-23q-1.2-1.9-1.8-4.1 0 0 0 0-0.5-1.8-0.5-3.8c0-8.2 6.7-14.8 14.9-14.8 8.2 0 14.9 6.6 14.9 14.8q0 2-0.5 3.8 0 0 0 0z"/>
				<circle id="&lt;Path&gt;" class="s1" cx="1497.2" cy="1223.1" r="7.1"/>
			</g>
			<g id="&lt;Group&gt;" style="opacity: .1">
				<path id="&lt;Path&gt;" class="s2" d="m2420.6 1160q-0.5 2-1.5 3.7c-2.5 5.2-7.1 13.5-12.9 23.3-6.3-10.3-9.9-17.1-12.6-23q-1.2-1.8-1.8-4 0 0 0 0-0.4-1.9-0.4-3.8c0-8.3 6.6-14.9 14.8-14.9 8.3 0 14.9 6.6 14.9 14.9q0 1.9-0.5 3.8 0 0 0 0z"/>
				<circle id="&lt;Path&gt;" class="s1" cx="2406.2" cy="1156.2" r="7.1"/>
			</g>
			<g id="&lt;Group&gt;" style="opacity: .1">
				<path id="&lt;Path&gt;" class="s2" d="m2512.5 1129.9q-0.5 2-1.6 3.7c-2.4 5.2-7 13.5-12.8 23.4-6.3-10.4-9.9-17.1-12.6-23q-1.2-1.9-1.8-4.1 0 0 0 0-0.5-1.9-0.5-3.8c0-8.2 6.7-14.9 14.9-14.9 8.2 0 14.9 6.7 14.9 14.9q0 1.9-0.5 3.8 0 0 0 0z"/>
				<circle id="&lt;Path&gt;" class="s1" cx="2498.1" cy="1126.1" r="7.1"/>
			</g>
			<g id="&lt;Group&gt;" style="opacity: .1">
				<path id="&lt;Path&gt;" class="s2" d="m1413.9 1188.8q-0.4 1.6-1.2 3c-2 4.2-5.8 10.9-10.4 18.9-5.2-8.4-8.1-13.9-10.3-18.6q-0.9-1.6-1.4-3.3 0 0 0 0-0.4-1.5-0.4-3.1c0-6.7 5.4-12.1 12.1-12.1 6.6 0 12 5.4 12 12.1q0 1.6-0.4 3.1 0 0 0 0z"/>
				<circle id="&lt;Path&gt;" class="s1" cx="1402.3" cy="1185.7" r="5.7"/>
			</g>
		</g>
		<g id="&lt;Group&gt;">
			<g id="&lt;Group&gt;">
				<g id="&lt;Group&gt;">
					<path id="&lt;Path&gt;" class="s3" d="m854.7 1394.2l1.6-14.4h1.1l-1.4 14.4z"/>
					<g id="&lt;Group&gt;">
						<path id="&lt;Path&gt;" class="s4" d="m858.9 1392q0.9-0.4 8.1 0.2l-0.3 13.4-2.7 1.1-7.3-3z"/>
						<path id="&lt;Path&gt;" class="s1" d="m868 1398.4c0 3.8-0.9 7-1.3 7.2-0.4 0.1-1-2.7-1.1-6.5 0-3.8 0.9-6.9 1.4-6.9 0.5 0 0.9 2.4 1 6.2z"/>
					</g>
					<path id="&lt;Path&gt;" class="s5" d="m715.3 1433.5l-9.3 0.1v-3c-0.1-2.9 2.3-5.3 5.2-5.4h4z"/>
					<path id="&lt;Path&gt;" class="s6" d="m723.8 1428.5l-1.7-11.7 14.9-0.2 15 9.7 2.9 6.6-31.4 0.4z"/>
					<g id="&lt;Group&gt;">
						<g id="&lt;Group&gt;">
							<g id="&lt;Group&gt;">
								<path id="&lt;Path&gt;" class="s7" d="m888.5 1490.7q-0.1 0-0.2-0.1c-0.4-0.2-0.6-0.6-0.4-1l12.2-30.4c0.1-0.4 0.6-0.6 0.9-0.4 0.4 0.1 0.6 0.5 0.5 0.9l-12.3 30.5c-0.1 0.3-0.4 0.5-0.7 0.5z"/>
								<path id="&lt;Path&gt;" class="s7" d="m909.9 1481.5q-0.1 0-0.3 0l-30.5-12.3c-0.3-0.1-0.5-0.5-0.4-0.9 0.2-0.4 0.6-0.6 1-0.4l30.5 12.2c0.3 0.2 0.5 0.6 0.4 1-0.1 0.3-0.4 0.4-0.7 0.4z"/>
							</g>
							<g id="&lt;Group&gt;">
								<path id="&lt;Path&gt;" class="s7" d="m900.7 1490.7c-0.3 0-0.6-0.2-0.7-0.5l-12-30.5c-0.2-0.4 0-0.8 0.4-1 0.3-0.1 0.8 0.1 0.9 0.4l12.1 30.6c0.1 0.4-0.1 0.8-0.5 0.9q-0.1 0.1-0.2 0.1z"/>
								<path id="&lt;Path&gt;" class="s7" d="m879.4 1481.4c-0.3 0-0.6-0.1-0.7-0.4-0.1-0.4 0-0.8 0.4-1l30.6-12c0.3-0.2 0.8 0 0.9 0.4 0.2 0.4 0 0.8-0.4 0.9l-30.5 12.1q-0.2 0-0.3 0z"/>
							</g>
							<g id="&lt;Group&gt;">
								<path id="&lt;Path&gt;" class="s7" d="m906.4 1486.9q-0.2 0-0.5-0.3l-23.5-22.8c-0.3-0.3-0.3-0.8 0-1.1 0.2-0.3 0.7-0.3 1 0l23.5 22.9c0.3 0.3 0.3 0.7 0.1 1q-0.3 0.3-0.6 0.3z"/>
								<path id="&lt;Path&gt;" class="s7" d="m883.2 1487.2q-0.3 0-0.5-0.2c-0.3-0.3-0.3-0.8 0-1l22.9-23.6c0.3-0.3 0.7-0.3 1 0 0.3 0.3 0.3 0.7 0 1l-22.9 23.6q-0.2 0.2-0.5 0.2z"/>
							</g>
							<g id="&lt;Group&gt;">
								<path id="&lt;Path&gt;" class="s7" d="m878.2 1475.7c-0.4 0-0.7-0.4-0.7-0.8 0-0.4 0.3-0.7 0.7-0.7l32.9-0.5q0 0 0 0c0.4 0 0.7 0.3 0.7 0.7 0 0.4-0.3 0.8-0.7 0.8l-32.8 0.5q-0.1 0-0.1 0z"/>
								<path id="&lt;Path&gt;" class="s7" d="m894.9 1491.8c-0.4 0-0.7-0.3-0.7-0.7l-0.5-32.8c0-0.4 0.3-0.8 0.7-0.8 0.4 0 0.7 0.4 0.7 0.8l0.5 32.8c0 0.4-0.3 0.7-0.7 0.7q0 0 0 0z"/>
							</g>
						</g>
						<circle id="&lt;Path&gt;" class="s8" cx="894.7" cy="1474.7" r="6.9"/>
						<circle id="&lt;Path&gt;" class="s4" cx="894.7" cy="1474.7" r="3"/>
						<g id="&lt;Group&gt;">
							<path id="&lt;Compound Path&gt;" fill-rule="evenodd" class="s4" d="m894.3 1450.5c13.4-0.2 24.4 10.5 24.6 23.8 0.2 13.4-10.5 24.4-23.9 24.6-13.4 0.2-24.4-10.5-24.6-23.9-0.2-13.3 10.5-24.3 23.9-24.5zm16.8 23.9c-0.2-9-7.6-16.3-16.7-16.1-9.1 0.1-16.3 7.6-16.2 16.6 0.2 9.1 7.6 16.3 16.7 16.2 9.1-0.1 16.3-7.6 16.2-16.7z"/>
						</g>
					</g>
					<path id="&lt;Path&gt;" class="s6" d="m750.5 1428.1l-35.3 0.5q-15.3 10.3-19 32.2l-2.8 0.3q7.6-28 21.8-35.9l27.1-1.2z"/>
					<g id="&lt;Group&gt;">
						<g id="&lt;Group&gt;">
							<g id="&lt;Group&gt;">
								<path id="&lt;Path&gt;" class="s7" d="m730.2 1490q-0.2 0-0.3 0c-0.4-0.2-0.5-0.6-0.4-1l12.2-30.5c0.2-0.4 0.6-0.5 1-0.4 0.4 0.2 0.5 0.6 0.4 1l-12.2 30.4c-0.1 0.3-0.4 0.5-0.7 0.5z"/>
								<path id="&lt;Path&gt;" class="s7" d="m751.5 1480.9q-0.1 0-0.2-0.1l-30.5-12.2c-0.4-0.1-0.6-0.6-0.4-1 0.1-0.3 0.6-0.5 0.9-0.4l30.5 12.3c0.4 0.1 0.6 0.5 0.4 0.9-0.1 0.3-0.4 0.5-0.7 0.5z"/>
							</g>
							<g id="&lt;Group&gt;">
								<path id="&lt;Path&gt;" class="s7" d="m742.3 1490c-0.3 0-0.5-0.1-0.7-0.4l-12-30.6c-0.1-0.3 0-0.8 0.4-0.9 0.4-0.2 0.8 0 1 0.4l12 30.5c0.1 0.4 0 0.8-0.4 1q-0.1 0-0.3 0z"/>
								<path id="&lt;Path&gt;" class="s7" d="m721 1480.8c-0.3 0-0.5-0.2-0.7-0.5-0.1-0.4 0.1-0.8 0.5-0.9l30.5-12.1c0.4-0.1 0.8 0.1 1 0.4 0.1 0.4-0.1 0.8-0.5 1l-30.5 12q-0.1 0.1-0.3 0.1z"/>
							</g>
							<g id="&lt;Group&gt;">
								<path id="&lt;Path&gt;" class="s7" d="m748.1 1486.2q-0.3 0-0.5-0.2l-23.6-22.9c-0.3-0.3-0.3-0.7 0-1 0.3-0.3 0.7-0.3 1 0l23.6 22.8c0.3 0.3 0.3 0.8 0 1.1q-0.2 0.2-0.5 0.2z"/>
								<path id="&lt;Path&gt;" class="s7" d="m724.9 1486.5q-0.3 0-0.5-0.2c-0.3-0.2-0.3-0.7-0.1-1l22.9-23.6c0.3-0.2 0.8-0.2 1 0 0.3 0.3 0.3 0.8 0.1 1.1l-22.9 23.5q-0.2 0.2-0.5 0.2z"/>
							</g>
							<g id="&lt;Group&gt;">
								<path id="&lt;Path&gt;" class="s7" d="m719.9 1475c-0.4 0-0.7-0.3-0.7-0.7-0.1-0.4 0.3-0.8 0.7-0.8l32.8-0.4c0.4 0 0.7 0.3 0.7 0.7 0.1 0.4-0.3 0.7-0.7 0.7l-32.8 0.5q0 0 0 0z"/>
								<path id="&lt;Path&gt;" class="s7" d="m736.5 1491.2c-0.4 0-0.7-0.3-0.7-0.7l-0.5-32.9c0-0.4 0.3-0.7 0.7-0.7 0.5-0.1 0.8 0.3 0.8 0.7l0.5 32.8c0 0.4-0.3 0.8-0.7 0.8q-0.1 0-0.1 0z"/>
							</g>
						</g>
						<circle id="&lt;Path&gt;" class="s9" cx="736.3" cy="1474" r="6.9"/>
						<circle id="&lt;Path&gt;" class="s4" cx="736.3" cy="1474" r="3"/>
						<g id="&lt;Group&gt;">
							<g id="&lt;Group&gt;">
								<path id="&lt;Compound Path&gt;" fill-rule="evenodd" class="s4" d="m735.9 1449.8c13.4-0.2 24.4 10.5 24.6 23.9 0.2 13.4-10.5 24.4-23.8 24.5-13.4 0.2-24.4-10.4-24.6-23.8-0.2-13.4 10.5-24.4 23.8-24.6zm16.8 24c-0.1-9.1-7.6-16.3-16.6-16.2-9.1 0.1-16.4 7.6-16.2 16.7 0.1 9 7.6 16.3 16.6 16.2 9.1-0.2 16.4-7.6 16.2-16.7z"/>
							</g>
						</g>
					</g>
					<g id="&lt;Group&gt;">
						<path id="&lt;Path&gt;" class="s10" d="m779 1477.2l-18.5-1.4-1.9-8.6q-22.1-25.1-50.8-9.4c-5.4 1.9-9.1-2.7-9.2-5.1 0.9-3 2-5.6 3.1-8 4.8-6.2 11-11.3 18.2-11.4 18.1-0.2 40-4.1 50.4 8.5 7.5 9 8.7 26.2 8.7 35.4z"/>
						<path id="&lt;Path&gt;" class="s11" d="m785 1477.6l-6-0.4c0-9.2-1.2-26.4-8.7-35.4-10.4-12.6-32.3-8.7-50.4-8.5-7.2 0.1-13.4 5.2-18.2 11.4q5.6-11.6 13.5-16.1l49.7-0.7 35.7-0.5q-5.3 5.3-4 18.1l8.9 18.5 8.3 9z"/>
					</g>
					<path id="&lt;Path&gt;" class="s12" d="m739.6 1412.7l-42.8 0.6-0.5-38.8 42.7-0.6z"/>
					<path id="&lt;Path&gt;" class="s13" d="m737 1416.6l-35.5 0.5v-2.8l35.4-0.5z"/>
					<path id="&lt;Path&gt;" class="s14" d="m739.1 1378.6l-42.8 0.6v-4.7l42.7-0.6z"/>
					<path id="&lt;Path&gt;" class="s4" d="m719.9 1433.3h-2.7l-0.3-17.9h2.7z"/>
					<path id="&lt;Path&gt;" class="s10" d="m870.1 1443.8q28.4-9.7 40.6 5.8-35.4 3.7-43.6 22.6-6.8-9.3 3-28.4z"/>
					<path id="&lt;Path&gt;" class="s15" d="m887.4 1455l8.6 19.9-1.8 0.8-9.5-22.7 1.6-0.9z"/>
					<path id="&lt;Path&gt;" class="s4" d="m882.5 1438.4l6.2 14.8-4.9 2.3-6.5-16.2q2.4-2.1 5.2-0.9z"/>
					<path id="&lt;Path&gt;" class="s4" d="m862 1408.4l2-1.7q13.9 8.5 24.7 28.5l-0.7 2.2z"/>
					<path id="&lt;Path&gt;" class="s16" d="m858.9 1392l3 13c11.5 11.1 19.8 21.2 26.1 32.4q-20.6 8.4-32.5 44.1l-76.5-4.3q-1.3-3.8 0-6.8c18.6 2.8 28.6-1.2 28.8-2q0.1-0.8-2.3-4.4l2.3 0.9q12.6 3.2 30.5 1.5 8.3-4.2 26.5-32.6c-3.1-9.7-7.4-16.2-11.9-22l-1.8-9.5 3.6-8.1z"/>
					<path id="&lt;Path&gt;" class="s4" d="m855.4 1395.6l-2.8 6q-3.4-2.6-2.4-5.2 1-2.6 4.5-2.2z"/>
					<path id="&lt;Path&gt;" class="s17" d="m856 1399.4q0.1 1-0.5 1.5l-5.5 3.2-0.7-3 5-2.6c0.7-0.4 1.7 0 1.7 0.9z"/>
					<path id="&lt;Path&gt;" class="s4" d="m747.7 1428.1c-11.7-2.2-13-6.6-11.9-10.2 1.1-3.2 4.3-5.3 7.7-5.2 12.4 0.4 50.1 1.7 55.7 3 5 1.1 5.4 7.1 5.3 10 0 0.9-0.7 1.7-1.6 1.9l-8.5 1.9q-25.4 2.8-46.7-1.4z"/>
					<path id="&lt;Path&gt;" class="s4" d="m859 1380.6q-0.2 2.9-3.2 3.7l0.5-8.1c1.4 1.3 2.8 4 2.7 4.4z"/>
				</g>
				<g id="&lt;Group&gt;">
					<path id="&lt;Path&gt;" class="s18" d="m813.9 1344.7l-6.8-6.6c2.7-2.8 4.7-6 6-9.6l6.9 8.5c-2.4 1.8-4.5 4.2-6.1 7.7z"/>
					<path id="&lt;Path&gt;" class="s18" d="m830.2 1330.4q0.8 4.6 1.1 6.5l-2.8-0.3z"/>
					<path id="&lt;Path&gt;" class="s19" d="m829.8 1335.9q-0.3 1.3-2 5.3c-1.1 1-2.1 1.2-3.6 1.1-3.6-0.4-7-2.3-9.4-5.1-2.3-2.7-3.7-6.3-4-9.9-0.4-4.6 1.3-9.9 5.5-11.8 4.2-2 12.1-0.5 14.6 3.7 2.6 4.3 0 12.1-1.1 16.7z"/>
					<path id="&lt;Path&gt;" class="s4" d="m833.4 1318.7l6.1 4.2-0.1 0.8-13.2-1.5z"/>
					<path id="&lt;Path&gt;" class="s19" d="m841.6 1394.7c2.4 0.6 5.7 1.2 8.1 0.7 0.6-0.1 1.3-0.3 1.9-0.1 0.6 0.1 1.1 0.5 1.5 0.9q2.3 2.1 4.1 4.6c0.2 0.4 0.5 0.8 0.4 1.3 0 0.3-0.3 0.6-0.5 0.8-1.3 1.4-2.8 2.8-4.7 3.2-1.8 0.5-4.1-0.4-4.7-2.2q1.3-0.1 2.6 0.1c0.5-0.8 0.6-1.9 0.2-2.8-0.5-0.9-1.5-1.4-2.5-1.1-0.9 0.3-1.5 1.4-1.1 2.3-2.6 0.2-5.3-0.7-7.2-2.5z"/>
					<path id="&lt;Path&gt;" class="s20" d="m828.3 1321.8q0.1 0.2-5.3 12.1l-16.4-1.9q-7.8-21.7 8.4-23.9c16.2-2.2 19.3 9.7 19.5 11q0.3 1.2-6.2 2.7z"/>
					<path id="&lt;Path&gt;" class="s4" d="m822.1 1341.9l-2.5-1 1-8.9 2.6 0.3z"/>
					<path id="&lt;Path&gt;" class="s4" d="m836.9 1462.9l0.4 1.9 4.6 5.5 5.9 1.7c2.6 0.8 4.2 3.2 4 5.7l-27.4-3.2 0.5-4.3 2.3-8.9z"/>
					<g id="&lt;Group&gt;">
						<path id="&lt;Path&gt;" class="s21" d="m776.4 1400.1c1-8.6 6.6-21.1 12.6-38.8q10.2-30.2 20.3-23.3l4.6 6.7c5.7 7.4-7 53.8-7.6 56q-1.9 0.5-4.4 1.2c-7.5 2.1-19.8-0.4-25.5-1.8z"/>
						<path id="&lt;Path&gt;" class="s22" d="m836.9 1462.9l-9.8-0.9 7.6-36.6q-38.4-5.5-52.1-11.1c-5.6-2.3-6.8-8.7-6.2-14.4 5.7 1.4 18 3.8 25.6 1.9q2.4-0.6 4.3-1.1 0 0.1 0 0.1 45.1 10.4 45.5 18.6 0.4 8.1-14.9 43.5z"/>
					</g>
					<path id="&lt;Path&gt;" class="s23" d="m842.4 1394.2c-0.4 2.1-1.1 4.6-1.5 6.7-11.2-2.1-22.5-4.8-31.8-11.4-1.3-0.9-2.5-1.9-3.3-3.2-0.8-1.3-1.2-2.8-1.6-4.3-2-9-2.7-18.3-1.9-27.5 3.6-3.7 6.9-3.6 9.7 2.5q1.2 12.6 2.3 25.3c9.5 3.2 18.9 7.6 28.1 11.9z"/>
				</g>
				<circle id="&lt;Path&gt;" class="s4" cx="848.7" cy="1402.5" r="2.4"/>
			</g>
			<g id="&lt;Group&gt;">
				<path id="&lt;Path&gt;" class="s24" d="m690.1 1425.8h-54.1v-0.4h54.1z"/>
			</g>
			<g id="&lt;Group&gt;">
				<path id="&lt;Path&gt;" class="s24" d="m689.1 1434.6h-39.2v-0.4h39.2z"/>
			</g>
			<g id="&lt;Group&gt;">
				<path id="&lt;Path&gt;" class="s24" d="m692.4 1417.3h-39.2v-0.5h39.2z"/>
			</g>
		</g>
		<g id="&lt;Group&gt;">
			<g id="&lt;Group&gt;">
				<path id="&lt;Path&gt;" class="s25" d="m2256.7 1498.5h-77.4v-328.8c30.2-30.2 47.2-47.2 77.4-77.4z"/>
				<path id="&lt;Path&gt;" class="s1" d="m2208.8 1194.6h-14.8v-20.1h14.8z"/>
				<path id="&lt;Path&gt;" class="s1" d="m2242.1 1194.6h-14.9v-20.1h14.9z"/>
				<path id="&lt;Path&gt;" class="s1" d="m2208.8 1229.2l-14.8 1.3v-20.1l14.8-1.4z"/>
				<path id="&lt;Path&gt;" class="s1" d="m2242.1 1229.2h-14.9v-20.2h14.9z"/>
				<path id="&lt;Path&gt;" class="s1" d="m2208.8 1265.1l-14.8 1.3v-20.1l14.8-1.4z"/>
				<path id="&lt;Path&gt;" class="s1" d="m2242.1 1265.1h-14.9v-20.2h14.9z"/>
				<path id="&lt;Path&gt;" class="s1" d="m2208.8 1301h-14.8v-20.2h14.8z"/>
				<path id="&lt;Path&gt;" class="s1" d="m2242.1 1302.3h-14.9v-21.5l14.9 1.4z"/>
			</g>
			<g id="&lt;Group&gt;">
				<g id="&lt;Group&gt;">
					<g id="&lt;Group&gt;">
						<path id="&lt;Path&gt;" class="s26" d="m2350.1 1498.5h-93.1v-435.1h93.1z"/>
						<path id="&lt;Path&gt;" class="s26" d="m2321.9 1063.4h-36.7v-19.6h36.7z"/>
					</g>
					<path id="&lt;Path&gt;" class="s26" d="m2304.9 1043.8h-2.8v-43.3h2.8z"/>
				</g>
				<path id="&lt;Path&gt;" class="s1" d="m2286.8 1118.8h-14.8v-20.1h14.8z"/>
				<path id="&lt;Path&gt;" class="s1" d="m2330.9 1121.1h-14.9v-20.1h14.9z"/>
				<path id="&lt;Path&gt;" class="s1" d="m2286.8 1153.2h-14.8v-20.1h14.8z"/>
				<path id="&lt;Path&gt;" class="s1" d="m2329.5 1154.1h-14.9v-20.1h14.9z"/>
				<path id="&lt;Path&gt;" class="s1" d="m2286.8 1187.6h-14.8v-20.1h14.8z"/>
				<path id="&lt;Path&gt;" class="s1" d="m2329.5 1188.5h-14.9v-20.1h14.9z"/>
				<path id="&lt;Path&gt;" class="s1" d="m2286.8 1222h-14.8v-20.2h14.8z"/>
				<path id="&lt;Path&gt;" class="s1" d="m2329.5 1222.9h-14.9v-20.1h14.9z"/>
				<path id="&lt;Path&gt;" class="s1" d="m2286.8 1256.3h-14.8v-20.1h14.8z"/>
				<path id="&lt;Path&gt;" class="s1" d="m2329.5 1257.3h-14.9v-20.2h14.9z"/>
				<path id="&lt;Path&gt;" class="s1" d="m2286.8 1290.7h-14.8v-20.1h14.8z"/>
				<path id="&lt;Path&gt;" class="s1" d="m2329.5 1291.6h-14.9v-20.1h14.9z"/>
			</g>
			<g id="&lt;Group&gt;">
				<path id="&lt;Path&gt;" class="s25" d="m2416.7 1498.5h-66.6v-303.9h66.6z"/>
				<path id="&lt;Path&gt;" class="s1" d="m2376.6 1257.7h-14.9v-20.2h14.9z"/>
				<path id="&lt;Path&gt;" class="s1" d="m2404.4 1257.7h-14.9v-20.2h14.9z"/>
				<path id="&lt;Path&gt;" class="s1" d="m2376.6 1290.1h-14.9v-20.1h14.9z"/>
				<path id="&lt;Path&gt;" class="s1" d="m2404.4 1290.1h-14.9v-20.1h14.9z"/>
				<path id="&lt;Path&gt;" class="s1" d="m2376.6 1322.5h-14.9v-20.1h14.9z"/>
				<path id="&lt;Path&gt;" class="s1" d="m2404.4 1322.5h-14.9v-20.1h14.9z"/>
				<path id="&lt;Path&gt;" class="s1" d="m2376.6 1355h-14.9v-20.2h14.9z"/>
				<path id="&lt;Path&gt;" class="s1" d="m2404.4 1355h-14.9v-20.2h14.9z"/>
			</g>
			<g id="&lt;Group&gt;">
				<path id="&lt;Path&gt;" class="s26" d="m2489.4 1498.5h-72.7v-326.2c40.2 0 72.7 32.5 72.7 72.7z"/>
				<path id="&lt;Path&gt;" class="s1" d="m2443.9 1280h-14.9v-20.2h14.9z"/>
				<path id="&lt;Path&gt;" class="s1" d="m2477.1 1280h-14.9v-20.2h14.9z"/>
				<path id="&lt;Path&gt;" class="s1" d="m2443.9 1315.9h-14.9v-20.1h14.9z"/>
				<path id="&lt;Path&gt;" class="s1" d="m2477.1 1315.9h-14.9v-20.1h14.9z"/>
				<path id="&lt;Path&gt;" class="s1" d="m2443.9 1351.8h-14.9v-20.1h14.9z"/>
				<path id="&lt;Path&gt;" class="s1" d="m2477.1 1351.8h-14.9v-20.1h14.9z"/>
				<path id="&lt;Path&gt;" class="s1" d="m2443.9 1387.7h-14.9v-20.1h14.9z"/>
				<path id="&lt;Path&gt;" class="s1" d="m2477.1 1387.7h-14.9v-20.1h14.9z"/>
			</g>
			<g id="&lt;Group&gt;">
				<path id="&lt;Path&gt;" class="s26" d="m2179.3 1498.5h-87.5v-268h87.5z"/>
				<path id="&lt;Path&gt;" class="s1" d="m2123.8 1286h-14.8v-20.1h14.8z"/>
				<path id="&lt;Path&gt;" class="s1" d="m2157.1 1286h-14.9v-20.1h14.9z"/>
				<path id="&lt;Path&gt;" class="s1" d="m2123.8 1323.8h-14.8v-20.2h14.8z"/>
				<path id="&lt;Path&gt;" class="s1" d="m2157.1 1323.8h-14.9v-20.2h14.9z"/>
				<path id="&lt;Path&gt;" class="s1" d="m2123.8 1361.5h-14.8v-20.1h14.8z"/>
				<path id="&lt;Path&gt;" class="s1" d="m2157.1 1361.5h-14.9v-20.1h14.9z"/>
				<path id="&lt;Path&gt;" class="s1" d="m2123.8 1399.3h-14.8v-20.2h14.8z"/>
				<path id="&lt;Path&gt;" class="s1" d="m2157.1 1399.3h-14.9v-20.2h14.9z"/>
			</g>
		</g>
		<g id="&lt;Group&gt;">
			<path id="&lt;Path&gt;" class="s27" d="m2340.9 1223.8c-0.9 3.6-2.3 7-4.2 10.1-6.6 14.1-19 36.3-34.6 62.8-17.1-27.8-26.8-46-34-61.9-2.1-3.4-3.7-7.1-4.8-11q0 0 0 0c-0.8-3.3-1.3-6.7-1.3-10.2 0-22.2 18-40.2 40.1-40.2 22.2 0 40.2 18 40.2 40.2 0 3.5-0.5 6.9-1.3 10.2q0 0-0.1 0z"/>
			<circle id="&lt;Path&gt;" class="s1" cx="2302.1" cy="1213.6" r="19"/>
		</g>
		<g id="&lt;Group&gt;">
			<g id="&lt;Group&gt;">
				<path id="&lt;Path&gt;" class="s28" d="m2203.2 1397.1l48.4-40.5 48.3-40.5 48.4 40.5 48.3 40.5h-96.7z"/>
				<path id="&lt;Path&gt;" class="s29" d="m2376.9 1498.5h-153.9v-101.4h153.9z"/>
			</g>
			<g id="&lt;Group&gt;">
				<path id="&lt;Path&gt;" class="s1" d="m2300.4 1373.4h-9.5v-10.8h9.5z"/>
				<path id="&lt;Path&gt;" class="s1" d="m2313.1 1373.4h-9.5v-10.8h9.5z"/>
				<path id="&lt;Path&gt;" class="s1" d="m2300.4 1386.8h-9.5v-10.9h9.5z"/>
				<path id="&lt;Path&gt;" class="s1" d="m2313.1 1386.8h-9.5v-10.9h9.5z"/>
			</g>
			<path id="&lt;Path&gt;" class="s1" d="m2323.5 1498.5h-39.6v-68.8h39.6z"/>
		</g>
		<g id="&lt;Group&gt;">
			<g id="&lt;Group&gt;">
				<path id="&lt;Path&gt;" class="s30" d="m1744.8 1436.4h-373.7v-186.4h373.7z"/>
				<path id="&lt;Path&gt;" class="s1" d="m1378.4 1436.4h-2.7v-186.4h2.7z"/>
				<path id="&lt;Path&gt;" class="s1" d="m1385.9 1436.4h-2.6v-186.4h2.6z"/>
				<path id="&lt;Path&gt;" class="s1" d="m1393.5 1436.4h-2.7v-186.4h2.7z"/>
				<path id="&lt;Path&gt;" class="s1" d="m1401 1436.4h-2.6v-186.4h2.6z"/>
				<path id="&lt;Path&gt;" class="s1" d="m1408.5 1436.4h-2.6v-186.4h2.6z"/>
				<path id="&lt;Path&gt;" class="s1" d="m1416.1 1436.4h-2.7v-186.4h2.7z"/>
				<path id="&lt;Path&gt;" class="s1" d="m1423.6 1436.4h-2.6v-186.4h2.6z"/>
				<path id="&lt;Path&gt;" class="s1" d="m1431.2 1436.4h-2.7v-186.4h2.7z"/>
				<path id="&lt;Path&gt;" class="s1" d="m1438.7 1436.4h-2.6v-186.4h2.6z"/>
				<path id="&lt;Path&gt;" class="s1" d="m1446.2 1436.4h-2.6v-186.4h2.6z"/>
				<path id="&lt;Path&gt;" class="s1" d="m1453.8 1436.4h-2.7v-186.4h2.7z"/>
				<path id="&lt;Path&gt;" class="s1" d="m1461.3 1436.4h-2.6v-186.4h2.6z"/>
				<path id="&lt;Path&gt;" class="s1" d="m1468.9 1436.4h-2.7v-186.4h2.7z"/>
				<path id="&lt;Path&gt;" class="s1" d="m1476.4 1436.4h-2.7v-186.4h2.7z"/>
				<path id="&lt;Path&gt;" class="s1" d="m1483.9 1436.4h-2.6v-186.4h2.6z"/>
				<path id="&lt;Path&gt;" class="s1" d="m1491.5 1436.4h-2.7v-186.4h2.7z"/>
				<path id="&lt;Path&gt;" class="s1" d="m1499 1436.4h-2.6v-186.4h2.6z"/>
				<path id="&lt;Path&gt;" class="s1" d="m1506.6 1436.4h-2.7v-186.4h2.7z"/>
				<path id="&lt;Path&gt;" class="s1" d="m1514.1 1436.4h-2.7v-186.4h2.7z"/>
				<path id="&lt;Path&gt;" class="s1" d="m1521.6 1436.4h-2.6v-186.4h2.6z"/>
				<path id="&lt;Path&gt;" class="s1" d="m1529.2 1436.4h-2.7v-186.4h2.7z"/>
				<path id="&lt;Path&gt;" class="s1" d="m1536.7 1436.4h-2.6v-186.4h2.6z"/>
				<path id="&lt;Path&gt;" class="s1" d="m1544.3 1436.4h-2.7v-186.4h2.7z"/>
				<path id="&lt;Path&gt;" class="s1" d="m1551.8 1436.4h-2.7v-186.4h2.7z"/>
				<path id="&lt;Path&gt;" class="s1" d="m1559.3 1436.4h-2.6v-186.4h2.6z"/>
				<path id="&lt;Path&gt;" class="s1" d="m1566.9 1436.4h-2.7v-186.4h2.7z"/>
				<path id="&lt;Path&gt;" class="s1" d="m1574.4 1436.4h-2.6v-186.4h2.6z"/>
				<path id="&lt;Path&gt;" class="s1" d="m1582 1436.4h-2.7v-186.4h2.7z"/>
				<path id="&lt;Path&gt;" class="s1" d="m1589.5 1436.4h-2.7v-186.4h2.7z"/>
				<path id="&lt;Path&gt;" class="s1" d="m1597 1436.4h-2.6v-186.4h2.6z"/>
				<path id="&lt;Path&gt;" class="s1" d="m1604.6 1436.4h-2.7v-186.4h2.7z"/>
				<path id="&lt;Path&gt;" class="s1" d="m1612.1 1436.4h-2.6v-186.4h2.6z"/>
				<path id="&lt;Path&gt;" class="s1" d="m1619.7 1436.4h-2.7v-186.4h2.7z"/>
				<path id="&lt;Path&gt;" class="s1" d="m1627.2 1436.4h-2.7v-186.4h2.7z"/>
				<path id="&lt;Path&gt;" class="s1" d="m1634.7 1436.4h-2.6v-186.4h2.6z"/>
				<path id="&lt;Path&gt;" class="s1" d="m1642.3 1436.4h-2.7v-186.4h2.7z"/>
				<path id="&lt;Path&gt;" class="s1" d="m1649.8 1436.4h-2.6v-186.4h2.6z"/>
				<path id="&lt;Path&gt;" class="s1" d="m1657.4 1436.4h-2.7v-186.4h2.7z"/>
				<path id="&lt;Path&gt;" class="s1" d="m1664.9 1436.4h-2.7v-186.4h2.7z"/>
				<path id="&lt;Path&gt;" class="s1" d="m1672.4 1436.4h-2.6v-186.4h2.6z"/>
				<path id="&lt;Path&gt;" class="s1" d="m1680 1436.4h-2.7v-186.4h2.7z"/>
				<path id="&lt;Path&gt;" class="s1" d="m1687.5 1436.4h-2.6v-186.4h2.6z"/>
				<path id="&lt;Path&gt;" class="s1" d="m1695.1 1436.4h-2.7v-186.4h2.7z"/>
				<path id="&lt;Path&gt;" class="s1" d="m1702.6 1436.4h-2.7v-186.4h2.7z"/>
				<path id="&lt;Path&gt;" class="s1" d="m1710.1 1436.4h-2.6v-186.4h2.6z"/>
				<path id="&lt;Path&gt;" class="s1" d="m1717.7 1436.4h-2.7v-186.4h2.7z"/>
				<path id="&lt;Path&gt;" class="s1" d="m1725.2 1436.4h-2.6v-186.4h2.6z"/>
				<path id="&lt;Path&gt;" class="s1" d="m1732.8 1436.4h-2.7v-186.4h2.7z"/>
				<path id="&lt;Path&gt;" class="s1" d="m1740.3 1436.4h-2.7v-186.4h2.7z"/>
			</g>
			<g id="&lt;Group&gt;">
				<g id="&lt;Group&gt;">
					<path id="&lt;Path&gt;" class="s4" d="m1744.8 1491.5v-21.1h6.6v14.6c0 3.6-3 6.5-6.6 6.5z"/>
					<g id="&lt;Group&gt;">
						<path id="&lt;Path&gt;" class="s31" d="m1744.8 1436.4v30.6h-187c-1.1-6.8-4.4-12.8-9-17.5-5.9-5.9-14-9.5-22.9-9.5-16.1 0-29.4 11.7-31.9 27h-122.9v-30.6z"/>
						<path id="&lt;Path&gt;" class="s32" d="m1744.8 1467v7.6h-186.6v-2.2q0-2.7-0.4-5.4z"/>
						<path id="&lt;Path&gt;" class="s33" d="m1860.3 1390.1v81h-46.7v-0.3c0-17.2-14-31.2-31.2-31.2-17.2 0-31.2 14-31.2 31.2v0.3h-6.4v-40.2-107.3l78.1 8.2z"/>
						<path id="&lt;Path&gt;" class="s34" d="m1860.3 1436.4h-6.5v-14.8h6.5z"/>
						<path id="&lt;Path&gt;" class="s35" d="m1763.2 1365.5v-23.3c0-3.2 2.8-5.7 6-5.4l43 5c2.9 0.3 5.6 1.9 7.2 4.3l30.9 45.1h-35.8l-46.4-18.4c-3-1.2-4.9-4.1-4.9-7.3z"/>
						<path id="&lt;Path&gt;" class="s36" d="m1782.5 1394.7h-21v-2.4h21z"/>
						<path id="&lt;Path&gt;" class="s4" d="m1814 1433.6h-69.3v-1.3h67.9v-41.1h1.4z"/>
						<path id="&lt;Path&gt;" class="s4" d="m1816.8 1343.4l-1.2-0.7 6.8-11.3 1.1 0.7z"/>
					</g>
					<path id="&lt;Path&gt;" class="s37" d="m1371.1 1467h122.9q-0.5 2.7-0.5 5.4v2.2h-122.4z"/>
				</g>
				<g id="&lt;Group&gt;">
					<circle id="&lt;Path&gt;" class="s4" cx="1525.5" cy="1471.1" r="26.2"/>
					<circle id="&lt;Path&gt;" class="s38" cx="1525.5" cy="1471.1" r="13.6"/>
					<circle id="&lt;Path&gt;" class="s4" cx="1525.5" cy="1471.1" r="5"/>
				</g>
				<g id="&lt;Group&gt;">
					<circle id="&lt;Path&gt;" class="s4" cx="1782.8" cy="1471.1" r="26.2"/>
					<circle id="&lt;Path&gt;" class="s39" cx="1782.8" cy="1471.1" r="13.6"/>
					<circle id="&lt;Path&gt;" class="s4" cx="1782.8" cy="1470.4" r="5"/>
				</g>
			</g>
		</g>
		<g id="&lt;Group&gt;">
			<g id="&lt;Group&gt;">
				<g id="&lt;Clip Group&gt;" clip-path="url(#cp1)">
					<g id="&lt;Group&gt;">
						<path id="&lt;Path&gt;" class="s40" d="m360.6 1505.3l-19.4 0.4q-0.1 0-0.1 0l19.4-0.4q0.1 0 0.1 0z"/>
					</g>
				</g>
				<path id="&lt;Path&gt;" class="s41" d="m360.6 1486.3q0 0 0 0.1 0 0.1 0 0.1 0 0.1 0 0.2 0 0.2 0 0.3 0 0.3-0.1 0.5 0 0 0 0.1 0 0 0 0 0 0.2 0 0.4 0 0.3-0.1 0.5 0 0 0 0 0 0.1 0 0.1 0 0.2 0 0.4-0.1 0.2-0.1 0.4 0 0 0 0.1 0 0 0 0.1-0.1 0.2-0.1 0.5 0 0.1-0.1 0.1 0 0.1 0 0.2 0 0.1 0 0.2-0.1 0.2-0.1 0.4 0 0-0.1 0.1 0 0 0 0.1 0 0.1 0 0.2-0.1 0.2-0.2 0.4 0 0.1 0 0.1 0 0 0 0 0 0.2-0.1 0.3-0.1 0.2-0.1 0.3 0 0.1 0 0.1 0 0 0 0-0.1 0.2-0.2 0.4 0 0.1-0.1 0.1 0 0.1 0 0.1 0 0.1 0 0.1-0.1 0.2-0.2 0.4 0 0-0.1 0 0 0.1 0 0.1-0.1 0.1-0.1 0.2-0.1 0.1-0.2 0.2 0 0 0 0.1 0 0 0 0-0.1 0.2-0.2 0.3-0.1 0-0.1 0 0 0.1-0.1 0.1 0 0.1-0.1 0.2 0 0-0.1 0-0.1 0.1-0.1 0.2-0.1 0-0.1 0 0 0.1-0.1 0.1-0.1 0-0.2 0.1 0 0 0 0-0.2 0.1-0.3 0.1-0.1 0.1-0.2 0.1-0.1 0-0.2 0l-19.5 0.4q0.2 0 0.4 0 0.2-0.1 0.3-0.2 0.1 0 0.2-0.1 0.1 0 0.2-0.1 0.1-0.1 0.1-0.1 0.2-0.1 0.3-0.2 0-0.1 0-0.1 0.2-0.2 0.3-0.4 0.1 0 0.1-0.1 0.1-0.1 0.2-0.4 0 0 0.1 0 0.1-0.3 0.2-0.5 0-0.1 0.1-0.1 0.1-0.3 0.2-0.6 0 0 0 0 0.1-0.3 0.2-0.7 0 0 0.1 0 0.1-0.3 0.1-0.7 0.1 0 0.1-0.1 0.1-0.3 0.1-0.7 0.1-0.1 0.1-0.1 0-0.4 0.1-0.8 0 0 0-0.1 0.1-0.4 0.1-0.8 0.1 0 0.1 0 0-0.5 0.1-0.9 0-0.1 0-0.1 0-0.4 0-0.9 0 0 0-0.1 0-0.2 0-0.3 0.1-0.8 0.1-1.7 0 0 0 0l-6-335.9-1.4-79.4q0-0.6 0-1.1 0 0 0-0.1-0.1-0.5-0.1-1 0 0 0-0.1-0.1-0.5-0.1-1 0 0 0 0-0.1-0.5-0.2-1 0 0 0-0.1-0.1-0.4-0.2-0.9 0 0 0 0-0.1-0.5-0.2-0.9 0 0 0 0-0.1-0.4-0.3-0.8 0-0.1 0-0.1-0.1-0.4-0.2-0.7 0 0 0-0.1-0.2-0.3-0.3-0.6 0-0.1-0.1-0.2-0.1-0.2-0.2-0.4-0.1-0.1-0.1-0.2-0.1-0.1-0.2-0.2-0.1-0.2-0.2-0.4-0.1-0.1-0.1-0.2-0.2-0.1-0.3-0.3-0.1 0-0.2-0.1-0.1-0.1-0.2-0.2-0.1-0.1-0.2-0.2-0.2-0.1-0.3-0.1-0.1-0.1-0.2-0.1-0.2-0.1-0.4-0.1l19.5-0.4q0.2 0 0.4 0.1 0.1 0 0.2 0.1 0.1 0 0.3 0.1 0.1 0.1 0.1 0.1 0.2 0.1 0.3 0.2 0.1 0.1 0.2 0.2 0.1 0.2 0.2 0.3 0.1 0.1 0.1 0.1 0.1 0.1 0.1 0.1 0.1 0.2 0.2 0.4 0.1 0 0.1 0.1 0 0.1 0.1 0.1 0 0.1 0.1 0.2 0 0.1 0.1 0.2 0 0.1 0.1 0.2 0 0.1 0.1 0.2 0 0.1 0 0.1 0.1 0.3 0.2 0.5 0 0 0 0 0 0 0 0 0.1 0.2 0.2 0.4 0 0.2 0.1 0.4 0 0 0 0 0 0.1 0 0.1 0.1 0.2 0.2 0.4 0 0.2 0.1 0.3 0 0.1 0 0.1 0 0 0 0 0 0.2 0.1 0.4 0 0.2 0.1 0.4 0 0.1 0 0.1 0 0 0 0 0 0.2 0.1 0.4 0 0.2 0 0.4 0.1 0.1 0.1 0.1 0 0.1 0 0.1 0 0.1 0 0.2 0.1 0.2 0.1 0.4 0 0.2 0 0.3 0 0.1 0 0.1 0 0 0 0.1 0.1 0.2 0.1 0.4 0 0.2 0 0.4 0 0 0.1 0.1 0 0 0 0.1 0 0.1 0 0.2 0 0.1 0 0.3 0 0.2 0 0.4 0 0.1 0 0.1 0 0 0 0.1 0 0.1 0.1 0.2 0 0.2 0 0.4 0 0.3 0 0.5l1.4 79.3 5.9 336q0 0 0 0 0 0 0 0 0 0.9 0 1.7z"/>
				<g id="&lt;Group&gt;">
					<path id="&lt;Path&gt;" class="s42" d="m349 1058.1l-19.5 0.4-72.2-1.9 19.5-0.4z"/>
				</g>
				<g id="&lt;Clip Group&gt;" clip-path="url(#cp2)">
					<g id="&lt;Group&gt;">
						<path id="&lt;Path&gt;" class="s40" d="m276.8 1056.2l-19.5 0.4q0 0-0.1 0l19.5-0.4q0 0 0.1 0z"/>
					</g>
				</g>
				<g id="&lt;Group&gt;">
					<path id="&lt;Path&gt;" class="s43" d="m360.5 1505.3l-19.4 0.4-79.6-2.1 19.5-0.5z"/>
				</g>
				<g id="&lt;Group&gt;">
					<path id="&lt;Compound Path&gt;" fill-rule="evenodd" class="s44" d="m352.5 1048.5c2.4 0.1 4.5 5.4 4.6 12l7.7 433.1c0.1 6-1.5 11-3.7 11.6q-0.3 0.1-0.6 0.1l-79.5-2.2c-2.5 0-4.6-5.4-4.7-11.9l-7.6-433.1c-0.2-6.1 1.4-11 3.6-11.7q0.3 0 0.6 0zm0.8 20.7c-0.1-6.1-2.1-11.1-4.3-11.1l-72.2-2q-0.3 0-0.5 0.1c-2.1 0.6-3.6 5.2-3.5 10.9l1.4 79.3 6 335.9c0.1 6.1 2 11.1 4.3 11.2l72.2 2q0.3 0 0.5-0.1c2-0.6 3.5-5.3 3.4-10.9l-5.9-335.9z"/>
				</g>
				<path id="&lt;Path&gt;" class="s45" d="m260.3 1503.1q-0.1-0.1-0.3-0.2 0-0.1-0.1-0.2-0.2-0.1-0.3-0.3-0.1-0.1-0.1-0.1 0-0.1-0.1-0.1-0.1-0.2-0.2-0.4-0.1-0.1-0.1-0.2-0.1 0-0.1-0.1 0-0.1-0.1-0.2-0.1-0.1-0.1-0.2-0.1-0.1-0.1-0.2-0.1-0.1-0.1-0.2-0.1-0.1-0.1-0.2-0.1-0.2-0.2-0.5 0 0 0 0 0 0 0 0-0.1-0.2-0.2-0.4 0-0.2-0.1-0.4 0 0 0-0.1 0 0 0 0-0.1-0.2-0.2-0.5 0-0.1-0.1-0.3 0 0 0-0.1 0 0 0 0 0-0.2-0.1-0.4-0.1-0.3-0.1-0.5 0 0 0 0 0 0 0-0.1-0.1-0.1-0.1-0.3 0-0.3-0.1-0.5 0-0.1 0-0.1 0-0.1 0-0.1 0-0.1-0.1-0.2 0-0.3 0-0.5-0.1-0.2-0.1-0.3 0-0.1 0-0.1 0 0 0 0 0-0.3 0-0.5-0.1-0.2-0.1-0.4 0-0.1 0-0.2 0 0 0 0 0-0.1 0-0.2-0.1-0.2-0.1-0.4 0-0.2 0-0.4 0-0.1 0-0.2 0 0 0 0 0-0.1 0-0.2 0-0.3 0-0.5 0-0.3 0-0.5l-7.7-433.1q0 0 0 0 0 0 0 0 0-0.9 0-1.8 0-0.1 0-0.2 0 0 0-0.1 0-0.1 0-0.2 0-0.2 0-0.3 0.1-0.3 0.1-0.6 0 0 0 0 0-0.1 0-0.1 0-0.2 0-0.4 0.1-0.3 0.1-0.5 0 0 0 0 0-0.1 0-0.1 0-0.2 0.1-0.5 0-0.2 0-0.3 0-0.1 0.1-0.2 0 0 0-0.1 0-0.2 0.1-0.5 0-0.1 0-0.2 0 0 0-0.1 0.1-0.1 0.1-0.2 0-0.3 0.1-0.5 0 0 0-0.1 0 0 0-0.1 0.1-0.1 0.1-0.3 0.1-0.2 0.2-0.4 0 0 0 0 0 0 0-0.1 0-0.1 0.1-0.3 0-0.2 0.1-0.3 0-0.1 0-0.1 0 0 0 0 0.1-0.2 0.2-0.4 0-0.1 0.1-0.2 0 0 0-0.1 0 0 0.1-0.1 0.1-0.2 0.2-0.3 0-0.1 0-0.1 0-0.1 0-0.1 0.1-0.1 0.2-0.2 0-0.1 0.1-0.2 0-0.1 0.1-0.1 0 0 0 0 0.1-0.2 0.2-0.3 0-0.1 0.1-0.1 0 0 0.1-0.1 0-0.1 0.1-0.1 0-0.1 0.1-0.1 0.1-0.1 0.1-0.1 0.1-0.1 0.1-0.1 0.1 0 0.1-0.1 0.1 0 0.2-0.1 0.1 0 0.1 0 0.1-0.1 0.2-0.1 0.2-0.1 0.3-0.1 0.1 0 0.2 0l19.5-0.4q-0.3 0-0.5 0-0.2 0.1-0.3 0.2-0.1 0-0.2 0.1-0.1 0.1-0.2 0.1-0.1 0.1-0.1 0.1-0.2 0.2-0.3 0.3 0 0-0.1 0.1-0.1 0.2-0.3 0.4 0 0 0 0-0.2 0.2-0.3 0.5 0 0 0 0.1-0.2 0.2-0.3 0.5 0 0 0 0.1-0.2 0.3-0.3 0.6 0 0 0 0-0.1 0.4-0.3 0.7 0 0 0 0.1-0.1 0.3-0.2 0.7 0 0 0 0.1-0.1 0.4-0.2 0.7 0 0.1 0 0.2-0.1 0.4-0.2 0.8 0 0.1 0 0.1-0.1 0.4-0.1 0.9 0 0 0 0-0.1 0.5-0.1 1 0 0 0 0.1-0.1 0.4-0.1 0.9 0 0.1 0 0.2 0 0.1 0 0.2-0.1 0.9 0 1.9 0 0 0 0l7.6 433.1q0 0.6 0.1 1.1 0 0.1 0 0.1 0 0.6 0.1 1.1 0 0.1 0 0.1 0 0.5 0.1 1.1 0 0 0 0 0.1 0.6 0.1 1 0.1 0.1 0.1 0.1 0 0.5 0.2 1 0 0 0 0 0.1 0.5 0.2 1 0 0 0 0 0.1 0.5 0.3 0.9 0 0 0 0.1 0.1 0.4 0.3 0.8 0 0 0 0 0.1 0.3 0.3 0.7 0 0.1 0 0.2 0.2 0.2 0.3 0.4 0 0.1 0.1 0.2 0.1 0.2 0.2 0.3 0.1 0.2 0.2 0.3 0.1 0.2 0.2 0.3 0.1 0.1 0.2 0.3 0.1 0.1 0.2 0.2 0.2 0.1 0.3 0.2 0.1 0.1 0.2 0.1 0.1 0.1 0.3 0.2 0.1 0 0.2 0.1 0.2 0 0.5 0l-19.5 0.5q-0.3 0-0.5-0.1-0.1 0-0.2-0.1-0.1 0-0.3-0.1-0.1-0.1-0.2-0.2z"/>
			</g>
		</g>
		<g id="&lt;Group&gt;">
			<g id="&lt;Group&gt;">
				<path id="&lt;Path&gt;" class="s1" d="m310.3 1060.9q0 0 0 0l8.6 0.2c0.2 0 0.5 0.7 0.5 1.5 0 0.8-0.2 1.5-0.4 1.6q0 0-0.1 0l-8.5-0.2c-0.3 0-0.5-0.7-0.5-1.5 0-0.8 0.1-1.5 0.4-1.6z"/>
			</g>
			<g id="&lt;Group&gt;">
				<path id="&lt;Compound Path&gt;" fill-rule="evenodd" class="s46" d="m301.3 1056.6l26.7 0.9c0.2 6.7-1.3 12.2-3.2 12.8q-0.2 0-0.4 0l-18.9-0.3c-2.1 0-4.1-6.3-4.2-13.4zm17.7 7.6c0.2-0.1 0.4-0.8 0.4-1.6 0-0.8-0.3-1.5-0.5-1.5l-8.6-0.2q0 0 0 0c-0.3 0.1-0.4 0.8-0.4 1.6 0 0.8 0.2 1.5 0.5 1.5l8.5 0.2q0.1 0 0.1 0z"/>
			</g>
		</g>
		<path id="&lt;Path&gt;" class="s47" d="m487.8 1036.1h-28.9-9.1-0.6-17.8-12.4-17.5-4.4-4.7-17.1-7.2-25-23.7c0-13.5 10.9-24.4 24.4-24.4 4.7 0 9 1.3 12.8 3.6 3.9-2.3 8.6-3.6 13.5-3.6q1 0 1.9 0.1c3.7-13.9 16.3-24.2 31.3-24.2 15.2 0 27.9 10.5 31.4 24.5q2.1-0.4 4.3-0.4c8.9 0 16.4 5.7 19.2 13.7 3-1.8 6.5-2.8 10.3-2.8 8.8 0 16.4 5.6 19.3 13.5z"/>
		<path id="&lt;Path&gt;" class="s1" d="m805 1102.3c3.8 0 7.3 1.1 10.3 2.8 2.8-7.9 10.3-13.7 19.2-13.7q2.2 0 4.3 0.5c3.5-14.1 16.2-24.5 31.4-24.5 15 0 27.6 10.2 31.3 24.1q0.9-0.1 1.9-0.1c4.9 0 9.6 1.4 13.5 3.7 3.8-2.3 8.1-3.7 12.8-3.7 13.5 0 24.4 10.9 24.4 24.4h-23.7-25-7.2-17.1-4.7-4.4-17.6-12.3-17.8-0.6-9.1-28.9c2.9-7.9 10.5-13.5 19.3-13.5z"/>
		<path id="&lt;Path&gt;" class="s48" d="m1092.9 1497.9c-2-2.1-2.2-5.6-0.4-7.9 1.7-2.3 5.1-3.1 7.7-1.9-0.6-2.2-0.1-4.8 1.6-6.2 1.7-1.5 4.8-1.3 5.9 0.7-0.5-2.5 0.4-5.4 2.5-6.9 2.1-1.4 5.4-1.1 6.9 1 0.1-3 0.2-6.3 2.1-8.7 2-2.3 6.4-2.6 7.6 0.1 1.2-2.7 4.1-4.6 7.1-4.5 3 0 5.8 2 6.9 4.8 2.6-2.9 6.9-4.2 10.8-3.2 3.8 1 7 4.2 7.9 8 0.2 0.8 0.5 1.7 1.3 1.9 0.4 0 0.7-0.1 1.1-0.2 2.3-0.7 4.8 0.7 6.2 2.6 1.4 2 1.9 4.5 2.3 6.8 2.7-2.3 7.7-0.2 8 3.3 1.7-1.2 4-2.5 5.8-1.4 0.8 0.4 1.4 1.2 2.2 1.7 0.7 0.5 2 0.5 2.4-0.3 1.1 1.8 1.9 3.9 2.1 6 2.2-1.6 5.3-1.8 7.6-0.5 2.4 1.3 3.8 4 3.6 6.7z"/>
		<path id="&lt;Path&gt;" class="s47" d="m2491.8 1118.8c4.3 0 8.3 1.2 11.8 3.2 3.1-9.1 11.8-15.7 22-15.7q2.5 0 4.9 0.5c4-16.1 18.6-28.1 36-28.1 17.3 0 31.8 11.8 35.9 27.7 0.8 0 1.5-0.1 2.2-0.1 5.7 0 11 1.5 15.6 4.2 4.3-2.6 9.3-4.2 14.7-4.2 15.4 0 27.9 12.5 27.9 28h-27.2-28.7-8.2-19.6-5.4-5.1-20.1-14.2-20.4-0.6-10.5-33.1c3.3-9 11.9-15.5 22.1-15.5z"/>
		<path id="&lt;Path&gt;" class="s1" d="m1533.2 1078.3h-28.9-9.1-0.6-17.8-12.3-17.6-4.4-4.7-17.1-7.1-25.1-23.7c0-13.5 10.9-24.4 24.4-24.4 2.9 0 5.7 0.6 8.3 1.5 4.8-4.3 11.1-7 18-7 3.3 0 6.4 0.7 9.3 1.7 3.1-3.7 7.8-6 13-6 3.6 0 7 1.2 9.8 3.1 5.2-7.4 13.7-12.3 23.5-12.3 13.6 0 24.9 9.6 27.7 22.4 3.8-4.1 9.1-6.7 15.1-6.7 11.4 0 20.6 9.2 20.6 20.6 0 2.5-0.5 4.9-1.3 7.1z"/>
		<g id="&lt;Group&gt;">
			<path id="&lt;Path&gt;" class="s44" d="m1143.1 1431.6c5.1 2.6 6.7 9.8 4.3 15-2.3 4.9-7.4 7.4-12.2 9.3-3.1 1.1-6.2 2.1-9.2 3.4-2.9 1.2-6.1 2.5-9.4 2.2h-5.7c-11.7-0.3-24.6-3.2-31.1-12.9-1.9-2.9-3.1-6.6-2.1-9.9 1.9-5.9 9.3-7.6 15.4-8.3-5-3.4-6.7-10-8-16-1.5-7.1-2.8-15.4 2.1-20.7 4.3-4.7 11.7-5 17.9-3.3-2.4-8.4-1.5-18.1 4-24.8 5.6-6.7 16.5-9 23.4-3.7 4.5 3.5 6.5 9.3 7.8 14.8 2.4 10.2 3.1 20.6 2.2 31 3.6-1.8 8.2 0.4 10 4 1.7 3.6 0.9 8-1.1 11.4-2.1 3.4-5.2 6.1-8.3 8.5z"/>
			<path id="&lt;Path&gt;" class="s49" d="m1114.2 1497.7q0-9.1 0-18.2 0-32 0-64c0-3.5 5.4-3.5 5.4 0q0 9.1 0 18.2 0 32 0 64c0 3.5-5.4 3.5-5.4 0z"/>
			<path id="&lt;Path&gt;" class="s49" d="m1116.3 1440.8c-0.7-1.1-0.3-3.1 1-3.7q1.9-0.8 3.6-2.1c0.3-0.2 0.3-0.1 0 0.1 0.2-0.1 0.3-0.3 0.4-0.4q0.4-0.3 0.8-0.7 0.8-0.7 1.4-1.5c0.3-0.2 0.5-0.5 0.7-0.7-0.3 0.5-0.1 0 0-0.1q0.2-0.2 0.4-0.5 0.5-0.8 1-1.7 0.2-0.4 0.4-0.8 0.2-0.3 0.3-0.6c0.2-0.5-0.2 0.6 0 0q0.4-1 0.6-2c0.4-1.4 1.9-2.2 3.4-1.8 1.4 0.3 2.2 1.9 1.8 3.3-1.7 6.1-6.2 11.6-12.1 14.2-1.4 0.6-2.8 0.3-3.7-1z"/>
			<path id="&lt;Path&gt;" class="s49" d="m1117.8 1452.2c-0.3 1.4-1.9 2.2-3.3 1.8-3.5-0.8-7.3-1.7-10.3-3.9-3.1-2.3-5.4-5.5-5.6-9.4-0.1-1.5 1.3-2.7 2.7-2.7 1.5-0.1 2.6 1.3 2.7 2.7q0 0.2 0 0.4 0-0.2 0-0.3c0 0.1 0 0.3 0.1 0.5q0.1 0.4 0.2 0.9c0.2 0.6-0.2-0.5 0.1 0.1q0.1 0.2 0.2 0.4 0.2 0.5 0.5 0.9c0 0 0.4 0.5 0.2 0.2-0.2-0.3 0.1 0.2 0.2 0.2q0.3 0.4 0.7 0.8 0.4 0.4 0.8 0.7c-0.2-0.1-0.3-0.2 0 0q0.2 0.1 0.4 0.3 1 0.6 2.1 1.1c0.2 0.1 0.5 0.2 0.1 0.1q0.3 0.1 0.6 0.2 0.5 0.2 1 0.4c1.6 0.5 3.2 0.9 4.7 1.2 1.5 0.4 2.2 2 1.9 3.4z"/>
		</g>
		<g id="&lt;Group&gt;">
			<path id="&lt;Path&gt;" class="s44" d="m1224.8 1420.9c-3.1 3-7 5.3-10.2 8.1 8.7 6.2 10.6 18.8 5.6 27.9-5 9.2-15.7 15-26.7 16.2-28 1.4-39.9-14.3-41.8-30.7-0.5-4.2-0.1-8.8 2.8-12.2 2.8-3.3 8.7-4.6 12-1.7-7-6.4-11.7-15-13.4-24-0.7-3.7-0.8-7.8 1.4-10.9 2.3-3.1 7.6-4.5 10.4-1.7-1.8-5-4.8-9.5-6.6-14.5-1.7-5-2-10.9 1.3-15.2 3.3-4.3 11.1-5.5 14.5-1.3-0.8-10.4-0.9-21.2 3.7-30.7 1.3-2.8 3.2-5.5 6-7.1 4.9-2.8 11.6-1.4 15.8 2.2 4.3 3.6 6.5 8.8 7.9 14 2.7 10.4 2.8 21.4 0.1 31.8 3.4-5.3 12.7-5.1 17.1-0.5 4.4 4.7 4.4 11.9 1.8 17.7-2.7 5.7-7.6 10.3-12.3 14.7 1.5 1.8 4.5 0.2 6.9-0.3 4.3-1 8.6 2.9 9 7.1 0.4 4.1-2.1 8.1-5.3 11.1z"/>
			<path id="&lt;Path&gt;" class="s49" d="m1185.1 1499.5q0-13.9 0-27.9 0-49.6 0-99.2c0-3.4 5.4-3.4 5.4 0q0 14 0 27.9 0 49.6 0 99.2c0 3.5-5.4 3.5-5.4 0z"/>
			<path id="&lt;Path&gt;" class="s49" d="m1186.5 1419.9c-0.4-1.4 0.5-2.8 1.9-3.3 1.9-0.6 3.8-1.6 5.7-2.8 1-0.7 1.6-1.1 2.5-2q1.2-1 2.3-2.2c2.9-3.2 5-7 6-11.2 0.4-1.4 2-2.2 3.3-1.9 1.5 0.4 2.3 1.9 1.9 3.3-2.6 10.2-10.4 18.6-20.3 22-1.3 0.5-2.9-0.5-3.3-1.9z"/>
			<path id="&lt;Path&gt;" class="s49" d="m1187.6 1446.1c-0.4 1.6-1.9 2.1-3.3 1.9-4.9-0.7-8.8-4.8-11.2-8.9-2.4-4.1-3.6-8.9-3.2-13.7 0.1-1.5 1.1-2.7 2.7-2.7 1.3 0 2.8 1.2 2.6 2.7-0.2 3.8 0.5 7.4 2.4 10.8 1.8 3.1 4.4 6.1 8.1 6.6 1.5 0.2 2.3 2.1 1.9 3.3z"/>
			<path id="&lt;Path&gt;" class="s49" d="m1189.5 1393c-1 1.1-2.7 0.9-3.8 0-5.4-4.4-9.4-10.2-12-16.6-0.5-1.4 0.6-2.9 1.9-3.4 1.5-0.4 2.8 0.6 3.3 1.9q0.1 0.4 0.3 0.7c-0.1-0.2-0.1-0.1 0 0.1q0.3 0.5 0.5 1.1 0.5 1 1.1 2 1.1 2.1 2.5 3.9 0.2 0.3 0.4 0.5c-0.3-0.3 0 0.1 0.1 0.2q0.3 0.4 0.7 0.9 0.8 0.9 1.6 1.7 1.6 1.7 3.4 3.2c1.2 0.9 0.9 2.8 0 3.8z"/>
		</g>
		<path id="&lt;Path&gt;" class="s50" d="m1906.1 1496.4c-3.8-4.2-4.2-11.2-0.8-15.8 3.4-4.6 10.2-6.2 15.3-3.7-1-4.4-0.2-9.5 3.3-12.4 3.4-3 9.5-2.5 11.7 1.4-1-5 0.8-10.7 5-13.6 4.2-2.9 10.7-2.3 13.7 1.9 0.1-6 0.3-12.5 4.2-17.2 3.8-4.6 12.6-5.3 15.1 0.2 2.3-5.4 8.1-9.2 14-9 5.9 0.1 11.5 4.1 13.6 9.6 5.3-5.8 13.8-8.3 21.4-6.4 7.6 1.9 13.9 8.3 15.8 15.8 0.4 1.6 0.9 3.5 2.5 3.8 0.7 0.1 1.5-0.2 2.2-0.4 4.6-1.4 9.6 1.4 12.3 5.3 2.8 3.9 3.7 8.8 4.6 13.5 5.3-4.7 15.3-0.6 15.9 6.5 3.4-2.4 7.9-4.9 11.6-2.9 1.6 0.9 2.6 2.5 4.2 3.5 1.5 1 4 1 4.7-0.6 2.3 3.6 3.8 7.7 4.3 11.9 4.3-3.2 10.4-3.7 15.1-1.1 4.7 2.6 7.6 8.1 7 13.4z"/>
		<path id="&lt;Path&gt;" class="s51" d="m2465.4 1498.4c-3.9-4.2-4.2-11.2-0.8-15.8 3.4-4.5 10.2-6.2 15.3-3.7-1.1-4.3-0.2-9.5 3.2-12.4 3.5-2.9 9.6-2.5 11.7 1.5-1-5 0.8-10.7 5-13.7 4.2-2.9 10.8-2.2 13.7 1.9 0.1-6 0.4-12.5 4.2-17.1 3.8-4.7 12.6-5.4 15.1 0.1 2.3-5.4 8.1-9.1 14-9 5.9 0.1 11.6 4.1 13.6 9.6 5.3-5.7 13.9-8.3 21.5-6.4 7.6 2 13.9 8.3 15.8 15.9 0.4 1.5 0.9 3.5 2.5 3.7 0.7 0.2 1.4-0.2 2.2-0.4 4.5-1.4 9.6 1.4 12.3 5.3 2.7 4 3.7 8.8 4.6 13.5 5.3-4.6 15.3-0.5 15.8 6.5 3.5-2.4 7.9-4.9 11.6-2.8 1.6 0.9 2.7 2.5 4.2 3.4 1.6 1 4.1 1.1 4.8-0.6 2.3 3.6 3.8 7.7 4.3 12 4.2-3.3 10.4-3.7 15.1-1.1 4.6 2.5 7.5 8 7 13.3z"/>
		<g id="&lt;Group&gt;">
			<path id="&lt;Path&gt;" class="s44" d="m2078.9 1473.9c-4.7 9.7-12.7 16.4-22.9 19.9-8.4 2.8-17.3 3-26 1.9-7.8-1-16.4-1.4-22.5-7-5.6-5.2-6.9-13.5-7.3-21.1-0.3-4.7-0.3-9.5 1.7-13.8 1.9-4.2 6.4-7.6 11-6.9-1.5-0.2-3.6-5-4.2-6.2-1.1-2.3-1.9-4.8-2.5-7.2-1.2-5.4-1.7-11.1-1.8-16.6 0-1.4 0-2.7 0.4-4 0.6-2 2.3-3.4 4.1-4.4 4.8-3 10.7-4 16.2-3-0.5-9.8-1-19.9 2.3-29.1 1.7-4.9 4.8-9.7 9.5-11.9 4.4-2.1 9.7-1.7 14.3 0 8.1 3.1 14.6 10.4 16.7 18.8 2 7.8 0.2 16.5-4.6 22.9 2.8-2.6 7.9-2.5 11.1 0 3.7 3 5 8 4.9 12.7-0.1 7.9-3.6 15.7-9.5 20.9 7.2-0.6 13.2 6.4 14.1 13.6 0.9 7.1-2 14.1-5 20.5z"/>
			<path id="&lt;Path&gt;" class="s49" d="m2038.2 1499.8q0-30.4 0-60.8c0-4.4 6.8-4.4 6.8 0q0 30.4 0 60.8c0 4.4-6.8 4.4-6.8 0z"/>
			<path id="&lt;Path&gt;" class="s49" d="m2040.5 1476.3c-0.5-1.6 0.6-3.9 2.4-4.2q2.5-0.4 5-1.2 0.7-0.2 1.3-0.5 0.3-0.1 0.5-0.2c0.3-0.1 0.3-0.1 0 0q1.2-0.5 2.3-1.1 2.3-1.2 4.4-2.8c-0.2 0.2-0.2 0.2 0 0q0.3-0.2 0.5-0.4 0.5-0.4 1-0.9 0.9-0.8 1.8-1.7c1.3-1.4 3.5-1.2 4.8 0 1.4 1.2 1.2 3.5 0 4.8-5.2 5.5-12.3 9.3-19.8 10.6-1.9 0.3-3.6-0.5-4.2-2.4z"/>
			<path id="&lt;Path&gt;" class="s49" d="m2044 1463c0.6 1.7-0.6 3.8-2.3 4.2-4.8 1-9.4-0.7-13.1-3.7-3.3-2.8-5.5-6.8-7.5-10.6-0.9-1.7-0.3-3.6 1.3-4.6 1.5-1 3.8-0.4 4.6 1.2 0.9 1.7 1.8 3.3 2.8 4.9q0.4 0.6 0.7 1.1 0.2 0.3 0.4 0.6c0.6 0.7-0.2-0.3 0.1 0.1 0.6 0.6 1.2 1.3 1.8 1.9q0.3 0.3 0.5 0.5c0.3 0.2 0.4 0.3 0.1 0 0.3 0.3 0.7 0.5 1.1 0.8q0.5 0.3 1.1 0.6c0.2 0.1 0.4 0.2 0.5 0.2-0.6 0-0.2-0.1 0.1 0q0.6 0.3 1.2 0.4c0.1 0 0.7 0.1 0.7 0.1 0 0-0.8 0-0.2 0q0.7 0.1 1.3 0c0.1 0 0.9-0.1 0.3 0-0.5 0.1 0.3-0.1 0.4-0.1 1.8-0.4 3.6 0.6 4.1 2.4z"/>
		</g>
		<g id="&lt;Group&gt;">
			<path id="&lt;Path&gt;" class="s44" d="m2555.9 1470.4c-4.6 9.8-12.6 16.5-22.9 19.9-8.3 2.9-17.3 3.1-26 2-7.7-1-16.4-1.5-22.5-7.1-5.5-5.2-6.9-13.4-7.3-21.1-0.2-4.6-0.2-9.5 1.7-13.7 2-4.2 6.4-7.6 11-6.9-1.4-0.2-3.6-5.1-4.1-6.3-1.1-2.3-1.9-4.7-2.5-7.2-1.3-5.4-1.8-11-1.9-16.6 0-1.3 0-2.7 0.4-4 0.6-2 2.4-3.3 4.1-4.4 4.8-2.9 10.7-4 16.2-2.9-0.5-9.8-1-19.9 2.3-29.2 1.8-4.9 4.8-9.6 9.5-11.8 4.4-2.2 9.7-1.7 14.3 0 8.2 3.1 14.6 10.3 16.7 18.8 2 7.8 0.3 16.4-4.5 22.9 2.8-2.6 7.9-2.5 11 0 3.7 2.9 5 8 5 12.7-0.1 7.9-3.7 15.6-9.6 20.9 7.2-0.6 13.3 6.4 14.1 13.5 0.9 7.2-1.9 14.2-5 20.5z"/>
			<path id="&lt;Path&gt;" class="s49" d="m2515.2 1496.4q0-30.4 0-60.8c0-4.4 6.8-4.4 6.8 0q0 30.4 0 60.8c0 4.3-6.8 4.3-6.8 0z"/>
			<path id="&lt;Path&gt;" class="s49" d="m2517.5 1472.9c-0.5-1.6 0.6-3.9 2.4-4.2q2.6-0.4 5.1-1.3 0.6-0.2 1.2-0.4 0.3-0.1 0.6-0.2c0.3-0.1 0.3-0.2 0 0q1.1-0.5 2.3-1.1 2.3-1.3 4.4-2.8c-0.3 0.2-0.3 0.2 0 0q0.2-0.2 0.4-0.4 0.5-0.4 1-0.9 1-0.8 1.9-1.8c1.3-1.3 3.4-1.2 4.8 0 1.3 1.3 1.2 3.6 0 4.8-5.3 5.6-12.4 9.4-19.9 10.6-1.9 0.4-3.6-0.4-4.2-2.3z"/>
			<path id="&lt;Path&gt;" class="s49" d="m2521.1 1459.6c0.5 1.7-0.6 3.8-2.4 4.2-4.8 1-9.4-0.7-13-3.8-3.4-2.8-5.5-6.7-7.5-10.5-0.9-1.7-0.4-3.6 1.2-4.7 1.5-0.9 3.8-0.3 4.7 1.3 0.8 1.6 1.7 3.3 2.8 4.9q0.3 0.5 0.7 1.1 0.2 0.3 0.4 0.5c0.5 0.8-0.3-0.3 0.1 0.1 0.6 0.7 1.1 1.4 1.8 2q0.2 0.2 0.5 0.4c0.2 0.3 0.3 0.4 0 0.1 0.3 0.3 0.7 0.5 1.1 0.7q0.6 0.4 1.2 0.7c0.1 0 0.3 0.2 0.5 0.2-0.7-0.1-0.3-0.1 0 0q0.6 0.2 1.3 0.4c0 0 0.6 0.1 0.6 0.1 0 0-0.7-0.1-0.1 0q0.6 0 1.3 0c0.1 0 0.8-0.1 0.3 0-0.6 0.1 0.3-0.1 0.3-0.1 1.9-0.4 3.6 0.5 4.2 2.4z"/>
		</g>
		<g id="&lt;Group&gt;">
			<path id="&lt;Path&gt;" class="s52" d="m1367.4 996.9l-2.2 0.1-1-14.8 2.3-0.1z"/>
			<path id="&lt;Path&gt;" class="s53" d="m1205.1 1005.7l-1.9-1.1 3.6-6.2 1.9 1z"/>
			<path id="&lt;Path&gt;" class="s54" d="m1208.3 999.1l1.8-1 3.7 6.2-1.9 1.1z"/>
			<path id="&lt;Path&gt;" class="s55" d="m1234.7 998.5l-50.2 2.4c-4.8 0.2-8.9-3.5-9.1-8.4l67.7-3.1c0.2 4.8-3.6 8.9-8.4 9.1z"/>
			<path id="&lt;Path&gt;" class="s56" d="m1091.8 958.5l-39.9 25.8-36.9-82 22.2 2.4z"/>
			<path id="&lt;Path&gt;" class="s57" d="m1390.9 982.7q-10.7 0.6-21.3 1.2-26.4 1.5-52.8 3-34 1.9-68 3.9-33.6 1.9-67.2 3.8c-11.3 0.6-22.3 2.3-33.7 2.9-6.9 0.4-14 0.5-20.8 0.8-6.9 0.4-13.1-0.6-19.8-1.9-15.8-3.2-31.4-7.6-46.9-11.5q-16.9-4.1-33.8-8.3l-0.5-9.2 69.8-9.1q19.2-1.1 38.3-2.2 43.8-2.5 87.6-5 48-2.7 95.9-5.4c21.3-1.3 42.6-2.4 63.9-3.7 15-0.9 33.2 9.2 39.5 23.1 1.9 4.1-9.6 10.2-12.6 11.8-5.5 2.9-11.5 4.6-17.6 5.8z"/>
			<path id="&lt;Path&gt;" class="s58" d="m1079.4 971l-34.3 4.6-21.6-10.4 8.1-2.4z"/>
			<g id="&lt;Group&gt;">
				<g id="&lt;Group&gt;">
					<path id="&lt;Path&gt;" class="s59" d="m1273.8 989.1l0.7 15.4q-1.2 0.4-2.6 0.6c-2.8 0.6-6 1-9.3 1.1-4 0.2-7.9-0.3-11.3-1.1-1.5-7.1-1.1-11.9-0.6-14.6 3.3-1.1 7.1-1.9 11.2-2 3.3-0.2 6.4-0.1 9.3 0.3q1.4 0.1 2.6 0.3z"/>
					<path id="&lt;Path&gt;" class="s60" d="m1251.8 1005.1c-7.7-1.8-13-5.3-13.1-6.7-0.1-1.6 5-5.5 12.5-7.9-0.6 2.7-0.9 7.5 0.6 14.6z"/>
				</g>
				<path id="&lt;Path&gt;" class="s61" d="m1272.1 1005.1l-0.7-16.4 2.6 0.4 0.7 15.4z"/>
			</g>
			<path id="&lt;Path&gt;" class="s62" d="m1272 984.2l-53.9 5.4-43.7-4.5-18.6-7.7 97.7 1.9 16.2 2.3z"/>
			<g id="&lt;Group&gt;">
				<path id="&lt;Path&gt;" class="s63" d="m1218.4 1007.3c-0.4 2.5-2.7 4.2-5.2 3.9-2.5-0.3-4.2-2.6-3.9-5.1 0.4-2.5 2.7-4.3 5.2-3.9 2.5 0.3 4.2 2.6 3.9 5.1z"/>
				<circle id="&lt;Path&gt;" class="s64" cx="1213.9" cy="1006.7" r="2.9"/>
			</g>
			<g id="&lt;Group&gt;">
				<path id="&lt;Path&gt;" class="s65" d="m1371.3 997.6c-0.3 2.5-2.6 4.2-5.1 3.9-2.5-0.4-4.3-2.7-3.9-5.2 0.3-2.4 2.6-4.2 5.1-3.9 2.5 0.4 4.3 2.7 3.9 5.2z"/>
				<circle id="&lt;Path&gt;" class="s66" cx="1366.8" cy="997" r="2.9"/>
			</g>
			<g id="&lt;Group&gt;">
				<path id="&lt;Path&gt;" class="s67" d="m1207.6 1008.3c-0.3 2.5-2.6 4.3-5.1 3.9-2.5-0.3-4.2-2.6-3.9-5.1 0.3-2.5 2.6-4.2 5.1-3.9 2.5 0.4 4.3 2.7 3.9 5.1z"/>
				<circle id="&lt;Path&gt;" class="s68" cx="1203.1" cy="1007.7" r="2.9"/>
			</g>
			<g id="&lt;Group&gt;">
				<path id="&lt;Path&gt;" class="s1" d="m1393.5 952.5l0.9 5.6q-4.3 0.2-6.4-0.2l0.8-5.4q2.6 0.1 4.7 0z"/>
				<path id="&lt;Path&gt;" class="s1" d="m1409 955.9q-2.6 0.6-4.9 1l-2-5.3q1.4-0.2 2.1-0.5l5.1 3.5c0.4 0.4 0.3 1.1-0.3 1.3z"/>
				<path id="&lt;Path&gt;" class="s1" d="m1401 951.8l2.1 5.3c-2.8 0.4-5.2 0.7-7.1 0.8l-0.8-5.5c2.6-0.1 4.5-0.3 5.8-0.6z"/>
			</g>
			<g id="&lt;Group&gt;">
				<path id="&lt;Path&gt;" class="s1" d="m1335.4 961.2c-1 0-1.9-0.8-2-1.8l-0.1-1.7c-0.1-1.1 0.7-2 1.8-2.1 1 0 1.9 0.8 2 1.8l0.1 1.7c0.1 1.1-0.7 2-1.8 2.1z"/>
				<path id="&lt;Path&gt;" class="s1" d="m1325.2 961.8c-1 0.1-2-0.7-2-1.8l-0.1-1.6c-0.1-1.1 0.7-2 1.8-2.1 1-0.1 1.9 0.7 2 1.8l0.1 1.7c0.1 1-0.7 2-1.8 2z"/>
				<path id="&lt;Path&gt;" class="s1" d="m1315 962.5c-1.1 0.1-2-0.7-2-1.8l-0.1-1.7c-0.1-1 0.7-1.9 1.7-2 1.1-0.1 2 0.7 2.1 1.8l0.1 1.7c0.1 1-0.7 1.9-1.8 2z"/>
				<path id="&lt;Path&gt;" class="s1" d="m1304.8 963.2c-1.1 0-2-0.8-2-1.8l-0.2-1.7c0-1.1 0.8-2 1.8-2 1.1-0.1 2 0.7 2.1 1.7l0.1 1.7c0.1 1.1-0.7 2-1.8 2.1z"/>
				<path id="&lt;Path&gt;" class="s1" d="m1294.6 963.8c-1.1 0.1-2-0.7-2.1-1.8l-0.1-1.6c0-1.1 0.8-2 1.8-2.1 1.1 0 2 0.8 2.1 1.8l0.1 1.7c0.1 1.1-0.8 2-1.8 2z"/>
				<path id="&lt;Path&gt;" class="s1" d="m1284.4 964.5c-1.1 0.1-2-0.7-2.1-1.8l-0.1-1.7c0-1 0.8-1.9 1.8-2 1.1-0.1 2 0.7 2.1 1.8l0.1 1.7c0 1-0.8 1.9-1.8 2z"/>
				<path id="&lt;Path&gt;" class="s1" d="m1274.2 965.2c-1.1 0-2-0.8-2.1-1.8l-0.1-1.7c-0.1-1.1 0.8-2 1.8-2 1.1-0.1 2 0.7 2.1 1.8l0.1 1.6c0 1.1-0.8 2-1.8 2.1z"/>
				<path id="&lt;Path&gt;" class="s1" d="m1264 965.8c-1.1 0.1-2-0.7-2.1-1.7l-0.1-1.7c-0.1-1.1 0.7-2 1.8-2.1 1.1 0 2 0.8 2 1.8l0.2 1.7c0 1.1-0.8 2-1.8 2z"/>
				<path id="&lt;Path&gt;" class="s1" d="m1253.8 966.5c-1.1 0.1-2-0.7-2.1-1.8l-0.1-1.7c-0.1-1 0.7-1.9 1.8-2 1.1-0.1 2 0.7 2 1.8l0.1 1.7c0.1 1-0.7 1.9-1.7 2z"/>
				<path id="&lt;Path&gt;" class="s1" d="m1243.5 967.2c-1 0.1-1.9-0.7-2-1.8l-0.1-1.7c-0.1-1 0.7-2 1.8-2 1-0.1 2 0.7 2 1.8l0.1 1.6c0.1 1.1-0.7 2-1.8 2.1z"/>
				<path id="&lt;Path&gt;" class="s1" d="m1233.3 967.9c-1 0-1.9-0.8-2-1.8l-0.1-1.7c-0.1-1.1 0.7-2 1.8-2.1 1 0 1.9 0.8 2 1.8l0.1 1.7c0.1 1.1-0.7 2-1.8 2.1z"/>
				<path id="&lt;Path&gt;" class="s1" d="m1223.1 968.5c-1 0.1-2-0.7-2-1.8l-0.1-1.6c-0.1-1.1 0.7-2 1.8-2.1 1-0.1 1.9 0.7 2 1.8l0.1 1.7c0.1 1-0.7 2-1.8 2z"/>
				<path id="&lt;Path&gt;" class="s1" d="m1212.9 969.2c-1 0.1-2-0.7-2-1.8l-0.1-1.7c-0.1-1 0.7-2 1.8-2 1-0.1 1.9 0.7 2 1.8l0.1 1.6c0.1 1.1-0.7 2-1.8 2.1z"/>
				<path id="&lt;Path&gt;" class="s1" d="m1202.7 969.9c-1.1 0-2-0.8-2-1.8l-0.1-1.7c-0.1-1.1 0.7-2 1.7-2.1 1.1 0 2 0.8 2.1 1.8l0.1 1.7c0.1 1.1-0.7 2-1.8 2.1z"/>
				<path id="&lt;Path&gt;" class="s1" d="m1192.5 970.5c-1.1 0.1-2-0.7-2-1.8l-0.2-1.6c0-1.1 0.8-2 1.8-2.1 1.1-0.1 2 0.7 2.1 1.8l0.1 1.7c0.1 1-0.7 2-1.8 2z"/>
				<path id="&lt;Path&gt;" class="s1" d="m1182.3 971.2c-1.1 0.1-2-0.7-2.1-1.8l-0.1-1.7c0-1 0.8-1.9 1.8-2 1.1-0.1 2 0.7 2.1 1.8l0.1 1.7c0 1-0.8 1.9-1.8 2z"/>
				<path id="&lt;Path&gt;" class="s1" d="m1172.1 971.9c-1.1 0-2-0.8-2.1-1.8l-0.1-1.7c0-1.1 0.8-2 1.8-2 1.1-0.1 2 0.7 2.1 1.7l0.1 1.7c0 1.1-0.8 2-1.8 2.1z"/>
				<path id="&lt;Path&gt;" class="s1" d="m1161.9 972.5c-1.1 0.1-2-0.7-2.1-1.8l-0.1-1.6c-0.1-1.1 0.7-2 1.8-2.1 1.1 0 2 0.8 2 1.8l0.2 1.7c0 1.1-0.8 2-1.8 2z"/>
				<path id="&lt;Path&gt;" class="s1" d="m1151.7 973.2c-1.1 0.1-2-0.7-2.1-1.8l-0.1-1.7c-0.1-1 0.7-1.9 1.8-2 1.1-0.1 2 0.7 2 1.8l0.2 1.7c0 1-0.8 1.9-1.8 2z"/>
			</g>
		</g>
		<g id="&lt;Group&gt;">
			<path id="&lt;Path&gt;" class="s4" d="m756.5 1011.9l-4-27.9 1.4-0.2 4 28z"/>
			<path id="&lt;Path&gt;" class="s4" d="m735.2 1011.9l-1.3-0.1 3.9-28 1.4 0.2z"/>
			<path id="&lt;Path&gt;" class="s4" d="m746 1011.8h-1.4v-27.9h1.4z"/>
			<path id="&lt;Path&gt;" class="s69" d="m763.3 1030.6h-36.5v-22.5h36.5z"/>
			<g id="&lt;Group&gt;">
				<path id="&lt;Path&gt;" class="s70" d="m747.4 1030.6h-4.1v-22.5h4.1z"/>
			</g>
			<g id="&lt;Group&gt;">
				<path id="&lt;Path&gt;" class="s70" d="m763.3 1021.4h-36.5v-4.1h36.5z"/>
			</g>
			<path id="&lt;Path&gt;" class="s71" d="m765.3 970.5c-1.1 1.5-6.6 11.2-8.1 11.2q0 0-23.6 0c-6.5-10.2-14.1-18.8-21.8-28-2.2-2.6-4.2-5.6-5.7-8.7-1.4-2.8-1.7-6.6-3.2-9.3q-1-4.4-1-9.1c0-23.5 19.4-42.6 43.3-42.6 23.9 0 43.2 19.1 43.2 42.6 0 18.8-13.4 29.6-23.1 43.9z"/>
			<g id="&lt;Clip Group&gt;" clip-path="url(#cp3)">
				<path id="&lt;Path&gt;" class="s49" d="m737.8 881.1c-7 4.3-12 11-15.3 18.5-2.9 6.6-4.7 13.9-5.2 21.1-0.6 7.8 0.7 15.5 3.2 22.8 5 14.8 14.2 27.7 20.8 41.8 0.9 1.9-2 3.7-2.9 1.7-3.9-8.4-8.7-16.2-13-24.3-3.8-7.1-7.3-14.4-9.4-22.1-2.2-8-2.8-16.1-1.6-24.3 2.1-14.7 8.5-30.1 21.7-38.1 1.9-1.1 3.6 1.8 1.7 2.9z"/>
				<path id="&lt;Path&gt;" class="s49" d="m746.5 873.2c-4.1 7.2-7.1 15-9.4 22.9-1.9 7.2-3.3 14.5-3.7 21.9-0.4 7.4 0.3 14.5 2.3 21.6 3.9 14.3 10.8 28.2 8.6 43.4-0.2 0.9-1.3 1.4-2.1 1.2-1-0.3-1.3-1.2-1.2-2.1 1.2-8.3-0.8-16.6-3.2-24.5-2.3-7.3-5-14.5-6.6-21.9-1.5-7.2-1.6-14.5-0.9-21.8 1.5-14.7 6-29.4 13.2-42.4 1.1-1.9 4-0.2 3 1.7z"/>
				<path id="&lt;Path&gt;" class="s49" d="m743.8 883.2c4.3 7 8.9 14.1 11.7 21.9 4.7 12.7 3.7 27 2.4 40.3-0.8 7.3-1.8 14.7-3.3 21.9-1.4 5.9-3 12.1-6 17.4-1 1.9-4 0.2-2.9-1.7 3.3-5.9 4.9-12.9 6.2-19.5 1.3-6.9 2.2-13.9 2.8-20.9 0.6-6.4 0.9-12.7 0.7-19.1-0.2-6.7-1.4-13.3-4-19.5-2.7-6.8-6.7-12.9-10.5-19.1-1.2-1.9 1.8-3.6 2.9-1.7z"/>
				<path id="&lt;Path&gt;" class="s49" d="m745.9 876.1c8 4.6 15.3 10.5 21.1 17.7 3.8 4.8 7 10.1 8.9 15.9 2.6 7.8 2.9 16.6 1.5 24.7-1.6 9.1-4.8 17.9-9.3 25.9-4.5 8.2-10 15.8-15.1 23.7-1.2 1.8-4.1 0.1-2.9-1.7 5.4-8.5 11.4-16.7 16.1-25.7 4.1-7.7 7.1-16.4 8.2-25.1 1-7.4 0.4-15.4-2.3-22.4-4.9-13-16.1-23.3-28-30-1.9-1.1-0.1-4 1.8-3z"/>
			</g>
			<path id="&lt;Path&gt;" class="s72" d="m757.2 986h-23.7v-4.3h23.7z"/>
		</g>
		<g id="&lt;Group&gt;">
			<path id="&lt;Path&gt;" class="s73" d="m1819.1 1100l21.4-11.8 20 4.8-2.4 7-18.3-4.4-20.7 12.9z"/>
			<path id="&lt;Path&gt;" class="s74" d="m1791.7 1104.2l-13-20.6-18.4-4 0.9-7.4 20.1 4.4 14.1 20z"/>
			<g id="&lt;Group&gt;">
				<path id="&lt;Path&gt;" class="s75" d="m1774.8 1075.2l-6.1-0.7 1.5-5.7 5.9 1.5z"/>
				<path id="&lt;Path&gt;" class="s1" d="m1797.1 1073.8c-0.2 1-11.5-0.7-25.2-3.9-13.7-3.1-24.6-6.6-24.4-7.6 0.3-1 11.6 0.7 25.3 3.9 13.7 3.1 24.6 6.6 24.3 7.6z"/>
			</g>
			<g id="&lt;Group&gt;">
				<path id="&lt;Path&gt;" class="s76" d="m1855.4 1092.2l-5.9-1.3 1.6-6.1 5.9 1.6z"/>
				<path id="&lt;Path&gt;" class="s1" d="m1878 1089.8c-0.2 1.1-11.5-0.7-25.2-3.8-13.7-3.2-24.6-6.6-24.4-7.7 0.3-1 11.6 0.7 25.3 3.9 13.7 3.2 24.6 6.6 24.3 7.6z"/>
			</g>
			<path id="&lt;Path&gt;" class="s77" d="m1814.1 1099.9l-17.2-3.4 0.2-0.9c0.9-4.8 5.5-7.9 10.2-6.9 4.8 0.9 7.9 5.5 7 10.2z"/>
			<path id="&lt;Path&gt;" class="s4" d="m1826.9 1121.4l-7-15.6 1.5-0.6 7 15.5z"/>
			<path id="&lt;Path&gt;" class="s4" d="m1804.3 1117.6l-1.7-0.3 2.2-11 1.7 0.3z"/>
			<path id="&lt;Path&gt;" class="s4" d="m1780.3 1115.3l-1.4-0.9 7-11.3 1.4 0.8z"/>
			<path id="&lt;Path&gt;" class="s78" d="m1826.2 1180.3l-69-13.5 11.5-59.2 69 13.4z"/>
			<g id="&lt;Group&gt;">
				<path id="&lt;Path&gt;" class="s70" d="m1831.6 1153.1l-69-13.4 0.9-4.9 69.1 13.4z"/>
			</g>
			<g id="&lt;Group&gt;">
				<path id="&lt;Path&gt;" class="s70" d="m1793.5 1174l-4.8-1.1 12.8-59 4.9 1.1z"/>
			</g>
			<path id="&lt;Path&gt;" class="s79" d="m1824 1110.8l-38.7-7.5 1.8-9.5 38.7 7.5z"/>
		</g>
		<g id="&lt;Clip Group&gt;" clip-path="url(#cp4)">
			<g id="&lt;Group&gt;">
				<g id="&lt;Group&gt;">
					<path id="&lt;Path&gt;" class="s18" d="m370.9 1329l-5.2-7.9c3.2-2.2 5.9-4.9 7.9-8.2l5 9.9c-2.7 1.2-5.3 3.1-7.7 6.2z"/>
					<path id="&lt;Path&gt;" class="s18" d="m388.8 1314.6q0.7 4.6 1 6.5l-2.8-0.4z"/>
					<path id="&lt;Path&gt;" class="s19" d="m388.3 1320q-0.4 1.3-2.1 5.3c-1.1 1-2.1 1.2-3.6 1-3.6-0.4-7-2.4-9.3-5.2-2.3-2.8-3.6-6.4-3.9-10-0.3-4.6 1.5-9.8 5.7-11.7 4.2-1.9 12.1-0.3 14.5 3.9 2.6 4.4-0.2 12.2-1.3 16.7z"/>
					<path id="&lt;Path&gt;" class="s4" d="m369.8 1432.6v1.7l2.9 5.7 4.8 2.6c2.1 1.2 3.1 3.5 2.4 5.7l-23.2-8 1.3-3.7 3.7-7.2z"/>
					<g id="&lt;Group&gt;">
						<path id="&lt;Path&gt;" class="s80" d="m322.4 1375c2.8-8.2 11-19.2 20.7-35.1q16.4-27.3 24.8-18.5l3 7.6c4 8.5-15.2 51.8-16.3 53.9-1.4 0.1-6-0.7-7.7-0.6-7.8 0.4-19.3-4.7-24.5-7.3z"/>
						<path id="&lt;Path&gt;" class="s81" d="m369 1434l-7.8-3.6 10.3-30.8q-33.9-1-46.1-9.4c-5-3.5-4.8-9.9-3-15.3 5.3 2.5 16.8 7.5 24.6 7.3q2.5-0.1 4.5-0.1-0.1 0 4.3-1.9 32.5 10 31.2 18.1-1.4 8-18 35.7z"/>
					</g>
				</g>
				<path id="&lt;Path&gt;" class="s4" d="m369.7 1317.8q-1-2.7-1.8-4.9c-0.8-2.1-1.6-7.4-1.5-8.7q0.1-1.3 13.8-0.8l10.3 4.1-10.5-0.1-2.5 6.1q-1.3-3.1-3.3-1.9c-1.9 1.2-1 3.4-0.4 4.3q0.7 0.9-4.1 1.9z"/>
				<path id="&lt;Path&gt;" class="s82" d="m389.4 1307.5q0.1 0.2-9.4-1.1l-13.6-0.3q-1.7-14.1 10.1-14.7c20.2-1 17.7 14.7 17.9 15.9q0.2 1.3-5 0.2z"/>
				<path id="&lt;Path&gt;" class="s83" d="m370.9 1301.1q9.1-6.3 20.7 4.7-10.8-7.7-20.7-4.7z"/>
				<path id="&lt;Path&gt;" class="s84" d="m391.3 1303.7q-3.4-11.3-16-8.2 10.8-0.5 16 8.2z"/>
				<path id="&lt;Path&gt;" class="s85" d="m325.7 1364.8l-0.2-1.4c11.1-1.9 24.8-5.1 32.5-12 4.1-3.7 8.3-10.5 8.1-15.7-0.1-2.5-1.1-4.5-3.1-6.1-2.1-1.6-5.7-1.6-8.9-1.7-1.8 0-3.6 0-5-0.3l0.3-1.4c1.3 0.3 2.9 0.3 4.7 0.4 3.4 0 7.3 0.1 9.8 2 2.3 1.7 3.5 4.1 3.6 7 0.3 6.4-5 13.5-8.6 16.8-7.9 7.2-21.9 10.4-33.2 12.4z"/>
				<g id="&lt;Group&gt;">
					<path id="&lt;Path&gt;" class="s86" d="m325.7 1368.6l-36.3-22.7 26.1-41.7 36.3 22.7z"/>
					<path id="&lt;Path&gt;" class="s87" d="m348.9 1331.5l-36.3-22.7 0.7-1.1 36.3 22.6z"/>
				</g>
				<g id="&lt;Group&gt;">
					<path id="&lt;Path&gt;" class="s88" d="m358.7 1462.8q-0.3 0-0.6-0.1c-0.9-0.4-1.4-1.4-1-2.2l6.2-16.2c0.4-0.9 1.3-1.3 2.2-0.9 0.9 0.3 1.4 1.3 1 2.2l-6.2 16.1c-0.3 0.7-0.9 1.1-1.6 1.1z"/>
					<path id="&lt;Path&gt;" class="s88" d="m375 1450.1q-0.3 0-0.6-0.1l-14.9-5.1c-0.9-0.3-1.4-1.3-1.1-2.2 0.3-0.9 1.3-1.4 2.2-1.1l15 5.2c0.9 0.3 1.3 1.3 1 2.2-0.2 0.7-0.9 1.1-1.6 1.1z"/>
				</g>
				<path id="&lt;Path&gt;" class="s89" d="m357.1 1480.1c-0.9 0-1.7-0.7-1.7-1.6l-0.8-12.5c0-0.9 0.7-1.7 1.6-1.8 1 0 1.8 0.7 1.9 1.6l0.7 12.5c0 1-0.7 1.8-1.6 1.8q-0.1 0-0.1 0z"/>
				<path id="&lt;Path&gt;" class="s44" d="m357.6 1466.6l-53.3 2c-3.8 0.1-6.9-2.8-6.9-6.5v-3.8c0-3.6 3.1-6.6 6.8-6.5l53.4 1.8c3.5 0.1 6.3 3 6.3 6.5 0 3.5-2.8 6.4-6.3 6.5z"/>
				<g id="&lt;Group&gt;">
					<g id="&lt;Group&gt;">
						<g id="&lt;Group&gt;">
							<path id="&lt;Compound Path&gt;" fill-rule="evenodd" class="s90" d="m439.1 1422.7c20.7 0 37.6 16.8 37.6 37.5 0 20.7-16.9 37.6-37.6 37.6-20.7 0-37.5-16.9-37.5-37.6 0-20.7 16.8-37.5 37.5-37.5zm37 37.5c0-20.4-16.6-37-37-37-20.4 0-37 16.6-37 37 0 20.4 16.6 37 37 37 20.4 0 37-16.6 37-37z"/>
							<path id="&lt;Compound Path&gt;" fill-rule="evenodd" class="s90" d="m439.1 1426.1c18.8 0 34.1 15.3 34.1 34.1 0 18.8-15.3 34.1-34.1 34.1-18.8 0-34.1-15.3-34.1-34.1 0-18.8 15.3-34.1 34.1-34.1zm33.8 34.1c0-18.7-15.1-33.8-33.8-33.8-18.7 0-33.8 15.1-33.8 33.8 0 18.7 15.1 33.9 33.8 33.9 18.7 0 33.8-15.2 33.8-33.9z"/>
							<path id="&lt;Compound Path&gt;" fill-rule="evenodd" class="s90" d="m439.1 1426.4c18.7 0 33.8 15.1 33.8 33.8 0 18.7-15.1 33.9-33.8 33.9-18.7 0-33.8-15.2-33.8-33.9 0-18.7 15.1-33.8 33.8-33.8zm33.6 33.8c0-18.5-15.1-33.5-33.6-33.5-18.5 0-33.5 15-33.5 33.5 0 18.5 15 33.6 33.5 33.6 18.5 0 33.6-15.1 33.6-33.6z"/>
						</g>
					</g>
					<g id="&lt;Group&gt;">
						<g id="&lt;Group&gt;">
							<g id="&lt;Group&gt;">
								<path id="&lt;Path&gt;" class="s7" d="m439.5 1494.1h-0.8v-67.7h0.8z"/>
								<path id="&lt;Path&gt;" class="s7" d="m472.9 1460.6h-67.6v-0.8h67.6z"/>
							</g>
							<g id="&lt;Group&gt;">
								<path id="&lt;Path&gt;" class="s7" d="m415.5 1484.4l-0.6-0.6 47.8-47.8 0.6 0.6z"/>
								<path id="&lt;Path&gt;" class="s7" d="m462.7 1484.4l-47.8-47.8 0.6-0.6 47.8 47.8z"/>
							</g>
						</g>
						<g id="&lt;Group&gt;">
							<g id="&lt;Group&gt;">
								<path id="&lt;Path&gt;" class="s7" d="m426.1 1491.4l-0.8-0.3 26.8-62.1 0.8 0.3z"/>
								<path id="&lt;Path&gt;" class="s7" d="m470 1474l-62.1-26.8 0.3-0.8 62.1 26.8z"/>
							</g>
							<g id="&lt;Group&gt;">
								<path id="&lt;Path&gt;" class="s7" d="m407.8 1473.1l-0.3-0.8 62.9-24.9 0.3 0.7z"/>
								<path id="&lt;Path&gt;" class="s7" d="m451.2 1491.8l-25-62.9 0.8-0.3 25 62.9z"/>
							</g>
						</g>
					</g>
					<circle id="&lt;Path&gt;" class="s91" cx="439.1" cy="1460.2" r="4.2"/>
				</g>
				<g id="&lt;Group&gt;">
					<g id="&lt;Group&gt;">
						<g id="&lt;Group&gt;">
							<path id="&lt;Compound Path&gt;" fill-rule="evenodd" class="s90" d="m309.9 1422.7c20.7 0 37.6 16.8 37.6 37.5 0 20.7-16.9 37.6-37.6 37.6-20.7 0-37.5-16.9-37.5-37.6 0-20.7 16.8-37.5 37.5-37.5zm37 37.5c0-20.4-16.6-37-37-37-20.4 0-37 16.6-37 37 0 20.4 16.6 37 37 37 20.4 0 37-16.6 37-37z"/>
							<path id="&lt;Compound Path&gt;" fill-rule="evenodd" class="s90" d="m309.9 1426.1c18.8 0 34.1 15.3 34.1 34.1 0 18.8-15.3 34.1-34.1 34.1-18.8 0-34.1-15.3-34.1-34.1 0-18.8 15.3-34.1 34.1-34.1zm33.8 34.1c0-18.7-15.1-33.8-33.8-33.8-18.7 0-33.8 15.1-33.8 33.8 0 18.7 15.1 33.9 33.8 33.9 18.7 0 33.8-15.2 33.8-33.9z"/>
							<path id="&lt;Compound Path&gt;" fill-rule="evenodd" class="s90" d="m309.9 1426.4c18.7 0 33.8 15.1 33.8 33.8 0 18.7-15.1 33.9-33.8 33.9-18.7 0-33.8-15.2-33.8-33.9 0-18.7 15.1-33.8 33.8-33.8zm33.6 33.8c0-18.5-15.1-33.5-33.6-33.5-18.5 0-33.5 15-33.5 33.5 0 18.5 15 33.6 33.5 33.6 18.5 0 33.6-15.1 33.6-33.6z"/>
						</g>
					</g>
					<g id="&lt;Group&gt;">
						<g id="&lt;Group&gt;">
							<g id="&lt;Group&gt;">
								<path id="&lt;Path&gt;" class="s7" d="m310.3 1494.1h-0.8v-67.7h0.8z"/>
								<path id="&lt;Path&gt;" class="s7" d="m343.7 1460.6h-67.6v-0.8h67.6z"/>
							</g>
							<g id="&lt;Group&gt;">
								<path id="&lt;Path&gt;" class="s7" d="m286.3 1484.4l-0.6-0.6 47.8-47.8 0.6 0.6z"/>
								<path id="&lt;Path&gt;" class="s7" d="m333.5 1484.4l-47.8-47.8 0.6-0.6 47.8 47.8z"/>
							</g>
						</g>
						<g id="&lt;Group&gt;">
							<g id="&lt;Group&gt;">
								<path id="&lt;Path&gt;" class="s7" d="m296.9 1491.4l-0.8-0.3 26.8-62.1 0.8 0.3z"/>
								<path id="&lt;Path&gt;" class="s7" d="m340.8 1474l-62.1-26.8 0.3-0.8 62.1 26.8z"/>
							</g>
							<g id="&lt;Group&gt;">
								<path id="&lt;Path&gt;" class="s7" d="m278.6 1473.1l-0.3-0.8 62.9-24.9 0.3 0.7z"/>
								<path id="&lt;Path&gt;" class="s7" d="m322 1491.8l-25-62.9 0.8-0.3 25 62.9z"/>
							</g>
						</g>
					</g>
					<circle id="&lt;Path&gt;" class="s91" cx="309.9" cy="1460.2" r="4.2"/>
				</g>
				<path id="&lt;Path&gt;" class="s88" d="m439.1 1461.9q-0.2 0-0.4 0c-16.7-3.8-27-24-27.4-24.8q0-0.1-0.1-0.2l-7.5-19.1q-0.1-0.2-0.1-0.5l-1.1-16.5c-0.1-1 0.6-1.8 1.6-1.9 0.9 0 1.7 0.7 1.8 1.6l1.1 16.3 7.4 18.8c0.6 1.2 10.3 19.6 25.1 22.9 0.9 0.3 1.5 1.2 1.3 2.1-0.2 0.8-0.9 1.3-1.7 1.3z"/>
				<path id="&lt;Path&gt;" class="s88" d="m407.7 1401.3h-8.3c-0.9 0-1.7-0.8-1.7-1.7 0-1 0.8-1.7 1.7-1.7h8.3c0.9 0 1.7 0.7 1.7 1.7 0 0.9-0.8 1.7-1.7 1.7z"/>
				<path id="&lt;Path&gt;" class="s88" d="m403.5 1400c-0.9 0-1.7-0.8-1.7-1.7v-4.5c0-0.9 0.8-1.7 1.7-1.7 4.9-0.1 9.8-1.4 10-2.6 0.4-2.2-0.2-5.7-0.8-7.9-4 1-14.5 3.6-23.3 4-1 0.1-1.8-0.7-1.8-1.6-0.1-0.9 0.7-1.8 1.6-1.8 10.5-0.5 24.1-4.3 24.3-4.4 0.9-0.2 1.8 0.3 2.1 1.2 0 0.3 2.1 6.9 1.3 11.1-0.8 4.1-7.8 5.2-11.7 5.4v2.8c0 0.9-0.7 1.7-1.7 1.7z"/>
				<path id="&lt;Path&gt;" class="s88" d="m398 1468.9h-5c-1 0-1.8-0.7-1.8-1.7 0-0.9 0.8-1.7 1.8-1.7h2.8c-2.2-9.4 0-17.4 2-22.7 9.3-23.5 31.1-26.9 32-27.1 0.9-0.1 1.8 0.6 1.9 1.5 0.2 0.9-0.5 1.8-1.4 1.9-0.2 0.1-20.7 3.4-29.3 25-2.1 5.6-4.1 13.3-1.3 22.6 0.1 0.5 0 1.1-0.3 1.5-0.3 0.5-0.8 0.7-1.4 0.7z"/>
				<path id="&lt;Path&gt;" class="s88" d="m364.1 1438h-14.9c-1 0-1.7-0.8-1.7-1.7 0-1 0.7-1.7 1.7-1.7h14.3l38.9-32.5c0.8-0.6 1.8-0.5 2.5 0.3 0.6 0.7 0.5 1.8-0.3 2.4l-39.4 32.8c-0.3 0.3-0.7 0.4-1.1 0.4z"/>
				<path id="&lt;Path&gt;" class="s88" d="m367.8 1456.4h-13.2c-1 0-1.7-0.7-1.7-1.7 0-0.9 0.7-1.7 1.7-1.7h12.4l36.9-39.5c0.6-0.6 1.7-0.7 2.4 0 0.7 0.6 0.7 1.7 0.1 2.4l-37.4 40c-0.3 0.3-0.8 0.5-1.2 0.5z"/>
				<path id="&lt;Path&gt;" class="s88" d="m356.2 1461.9c-0.8 0-1.4-0.4-1.7-1.2l-18.8-64.1c-0.2-0.9 0.3-1.9 1.2-2.1 0.9-0.3 1.9 0.2 2.1 1.1l18.8 64.1c0.3 0.9-0.2 1.9-1.1 2.2q-0.3 0-0.5 0z"/>
				<circle id="&lt;Path&gt;" class="s3" cx="356.2" cy="1460.2" r="4.2"/>
				<path id="&lt;Path&gt;" class="s88" d="m344.3 1421.6h-65.8c-1 0-1.8-0.8-1.8-1.7 0-1 0.8-1.7 1.8-1.7h65.8c1 0 1.8 0.7 1.8 1.7 0 0.9-0.8 1.7-1.8 1.7z"/>
				<path id="&lt;Path&gt;" class="s88" d="m309.9 1461.9q-0.1 0-0.2 0c-0.6-0.1-1.1-0.5-1.4-1l-16.6-40.4c-0.3-0.8 0.1-1.8 1-2.2 0.8-0.4 1.8 0.1 2.2 0.9l15.5 37.6 28.4-37.9c0.6-0.8 1.7-1 2.4-0.4 0.8 0.6 0.9 1.7 0.4 2.4l-30.3 40.4c-0.3 0.4-0.8 0.6-1.4 0.6z"/>
				<path id="&lt;Path&gt;" class="s88" d="m268.5 1471.7h-5.3c-1 0-1.8-0.8-1.8-1.7 0-1 0.8-1.8 1.8-1.8h3.4c-3.5-37.6 26.2-48.8 26.5-49 0.9-0.3 1.9 0.2 2.2 1.1 0.3 0.9-0.1 1.8-1 2.2-1.2 0.4-28.5 10.8-24.1 47.3 0 0.4-0.1 0.9-0.4 1.3-0.4 0.4-0.8 0.6-1.3 0.6z"/>
				<path id="&lt;Path&gt;" class="s88" d="m365.7 1482.2q-0.1 0-0.2 0l-15.5-2.1c-1-0.1-1.6-1-1.5-1.9 0.1-0.9 1-1.6 1.9-1.5l15.6 2.1c0.9 0.1 1.6 1 1.4 1.9-0.1 0.9-0.8 1.5-1.7 1.5z"/>
				<path id="&lt;Path&gt;" class="s4" d="m322.4 1388.5l21.9 1.7c2.4 0.2 4.5 1.8 5.4 4.1l0.7 1.9c0 0.1-0.1 0.3-0.3 0.3h-22c-1.7 0-3.2-1-3.8-2.6l-2.1-5c-0.1-0.2 0-0.4 0.2-0.4z"/>
				<path id="&lt;Path&gt;" class="s4" d="m359.3 1466.8l0.3 1.7 3.7 5 5.1 1.8c2.2 0.8 3.5 3 3.1 5.1l-23.6-4.1 0.6-3.8 2.5-7.5z"/>
				<path id="&lt;Path&gt;" class="s92" d="m349.2 1386.3q11.5 19.9 16.1 34.6l-5.8 47.7-9.1-1.7 3.7-43.9q-28.3-31.4-29.4-35.5z"/>
				<path id="&lt;Path&gt;" class="s93" d="m388.4 1375.2c-0.4 2.1-1.2 4.6-1.7 6.6-11.1-2.4-22.3-5.5-31.4-12.4-1.2-0.9-2.4-2-3.2-3.3-0.7-1.3-1.1-2.8-1.4-4.3-1.7-9.1 2.5-19.4 4.5-26.2 4.8-2.9 7.7-1.4 9.3 3-1.1 7.9-4.2 15.3-3.7 23.7 9.4 3.6 18.6 8.3 27.6 12.9z"/>
				<path id="&lt;Path&gt;" class="s19" d="m403.4 1383.6c0 0.3-0.3 0.6-0.5 0.8-1.4 1.4-2.9 2.7-4.8 3.1-1.9 0.3-4.1-0.6-4.6-2.5l0.1-0.9c-0.5 0.1-0.8-0.3-1-0.5-2.6 0.1-5.2-0.9-7.1-2.7l2.2-5.3c2.3 0.7 5.6 1.5 8 1.1 0.7-0.1 1.3-0.3 1.9-0.1 0.6 0.2 1.1 0.6 1.5 1q2.2 2.1 3.9 4.7c0.3 0.4 0.5 0.8 0.4 1.3z"/>
				<path id="&lt;Path&gt;" class="s94" d="m366.4 1305.4l14 0.4 14 1.5q0.4 0.7-1.9 0.6-2.4-0.1-12.1-1.2l-14-0.6z"/>
				<path id="&lt;Path&gt;" class="s95" d="m377.2 1319l-1.9-0.9c-2.7-1.3-4.6-4-4.8-7.1l-0.3-5.2 1.3-0.1 0.4 5.2c0.1 2.6 1.7 4.9 4 6l1.9 0.9z"/>
				<path id="&lt;Path&gt;" class="s96" d="m378.2 1324.7h-1.4l0.1-10.3 2.5-8.2 1.3 0.4-2.5 8.1z"/>
			</g>
		</g>
		<path id="&lt;Path&gt;" class="s97" d="m165.7 1506.5v-4.1l2580-4.3v4z"/>
		<g id="&lt;Group&gt;">
			<path id="&lt;Path&gt;" class="s98" d="m928.6 1284.1c0 12.4-13 22.5-28.9 22.5-7 0-13.5-1.9-18.5-5.2l-14.5 5.2 10-8.9c-3.7-3.8-5.9-8.5-5.9-13.6 0-12.4 12.9-22.5 28.9-22.5 15.9 0 28.9 10.1 28.9 22.5z"/>
			<circle id="&lt;Path&gt;" class="s99" cx="884.3" cy="1283.6" r="3.4"/>
			<circle id="&lt;Path&gt;" class="s99" cx="899.7" cy="1283.6" r="3.4"/>
			<circle id="&lt;Path&gt;" class="s99" cx="915" cy="1283.6" r="3.4"/>
		</g>
		<g id="&lt;Group&gt;">
			<circle id="&lt;Path&gt;" class="s100" cx="301.3" cy="1115.8" r="18.9"/>
			<path id="&lt;Path&gt;" class="s1" d="m296.6 1125.4q-0.2 0-0.4 0c-0.8-0.2-1.5-0.7-1.9-1.4l-5-9.3c-0.7-1.3-0.2-2.9 1.1-3.6 1.3-0.6 2.9-0.2 3.5 1.1l3.3 6.2 11.8-12c1-1 2.6-1 3.7 0 1 1 1 2.7 0 3.7l-14.2 14.5c-0.5 0.5-1.2 0.8-1.9 0.8z"/>
		</g>
	</g>
</svg>