<svg viewBox="0 0 24 24">
  <path
		fill='var(--svg-color, #000)' 
		d="M 15.783203 3.0566406 C 14.356498 3.0566406 13.191406 4.2338893 13.191406 5.6640625 C 13.302987 6.6782378 13.742667 7.3304556 14.316406 7.703125 C 13.812877 7.9429794 13.343229 8.3089359 12.941406 8.8164062 C 12.344654 9.5910684 11.968398 10.559503 11.869141 11.5625 L 9.2324219 11.5625 C 9.2310284 11.445236 9.1969272 11.34562 9.1484375 11.265625 L 10.216797 11.265625 C 11.039148 11.265625 11.714844 10.589928 11.714844 9.7675781 L 11.714844 7.4433594 C 11.714844 6.6210098 11.039148 5.9433594 10.216797 5.9433594 L 5.8164062 5.9433594 C 4.9940548 5.9433594 4.3183594 6.6210098 4.3183594 7.4433594 L 4.3183594 9.7675781 C 4.3183594 10.589928 4.9940548 11.265625 5.8164062 11.265625 L 6.8847656 11.265625 C 6.836276 11.34562 6.8021748 11.44522 6.8007812 11.5625 L 4.28125 11.5625 C 3.69879 11.5625 3.21875 12.04265 3.21875 12.625 L 3.21875 19.873047 C 3.21875 20.455434 3.6988303 20.943359 4.28125 20.943359 L 19.716797 20.943359 C 20.299217 20.943359 20.779297 20.455434 20.779297 19.873047 L 20.779297 12.625 C 20.779297 12.04265 20.299216 11.5625 19.716797 11.5625 L 19.695312 11.5625 C 19.594521 10.559503 19.213943 9.5910684 18.617188 8.8164062 C 18.150794 8.2929302 17.630049 7.9251968 17.091797 7.6875 C 17.808132 7.276013 18.345339 6.57224 18.373047 5.6640625 C 18.373047 4.2338893 17.209909 3.0566406 15.783203 3.0566406 z M 4.28125 12.558594 L 11.826172 12.558594 L 19.716797 12.558594 C 19.762387 12.558594 19.783203 12.57737 19.783203 12.625 L 19.783203 13.023438 L 4.2148438 13.023438 L 4.2148438 12.625 C 4.2148438 12.57927 4.235677 12.558594 4.28125 12.558594 z"
	/>
</svg>