<svg version="1.2" xmlns="http://www.w3.org/2000/svg" viewBox="0 0 1000 1000" width="1000" height="1000">
	<title>3227470-ai</title>
	<style>
		.s0 { fill: #263238 } 
		.s1 { fill: #e8505b } 
		.s2 { fill: #000000 } 
		.s3 { fill: #b78876 } 
		.s4 { fill: #fafafa } 
		.s5 { fill: #455a64 } 
		.s6 { fill: #e0e0e0 } 
		.s7 { fill: #ebebeb } 
		.s8 { fill: #aa6550 } 
	</style>
	<g id="Floor">
		<g id="&lt;Group&gt;">
			<g id="&lt;Group&gt;">
				<ellipse id="&lt;Path&gt;" class="s0" cx="474.4" cy="938.4" rx="383.6" ry=".5"/>
			</g>
		</g>
	</g>
	<g id="Character">
		<g id="&lt;Group&gt;">
			<g id="&lt;Group&gt;">
				<g id="&lt;Group&gt;">
					<path id="&lt;Path&gt;" class="s0" d="m732.3 864.4l32.5 74-17.7-0.4-49.5-72z"/>
				</g>
				<g id="&lt;Group&gt;">
					<path id="&lt;Path&gt;" class="s0" d="m207.7 870l-45.5 67.7h-13l26-68z"/>
				</g>
				<g id="&lt;Group&gt;">
					<path id="&lt;Path&gt;" class="s1" d="m224.5 548.6c150.2-27.1 336.2-8 426.3 4.4 31 4.3 54.1 30.8 54.1 62v106c0 13.1-10.8 23.6-23.8 23.3l-492.4-11c-12.4-0.3-22.5-10.3-22.7-22.7l-1.9-88c-0.8-36.2 24.8-67.6 60.4-74z"/>
				</g>
				<g id="&lt;Group&gt;">
					<path id="&lt;Path&gt;" class="s1" d="m200.6 729.3l490.4-3.7q7.4-48.9 36-72.3c28.6-23.3 53.5-0.5 55.3 15.1q1.8 15.7-27.7 52l-7.2 152.6-615.2 6.6q0.1-158.6-9.1-171.5c-9.2-12.9-18.4-36-10.1-54.8q8.3-18.7 48.8 0 40.4 7.3 38.8 76z"/>
				</g>
				<g id="&lt;Group&gt;">
					<g id="&lt;Group&gt;">
						<ellipse id="&lt;Path&gt;" class="s0" cx="441.4" cy="756.1" rx="243.4" ry=".5"/>
					</g>
				</g>
				<g id="&lt;Group&gt;">
					<g id="&lt;Group&gt;">
						<path id="&lt;Path&gt;" class="s0" d="m198 823.2q0 0-0.1-0.5 0-0.6 0-1.4c-0.1-1.3-0.1-3.1-0.1-5.5 0-4.8-0.1-11.6-0.1-20 0-16.9 0.1-40.3-0.6-66.1-0.5-12.8-1-25.2-2.8-36.1q-0.6-2-1.1-3.9c-0.5-1.3-1-2.5-1.5-3.8-1.1-2.4-2.2-4.7-3.3-6.9-2.4-4.3-4.9-8.2-7.5-11.5-2.7-3.3-5.4-5.9-8-8-2.6-2.1-5.1-3.6-7.2-4.7-4.2-2-6.8-2.6-6.7-2.7q0 0 0.4 0.1 0.6 0.1 1.4 0.4c1.2 0.2 3 0.9 5.1 1.9 2.2 1 4.7 2.4 7.4 4.5 2.6 2.1 5.4 4.8 8.1 8.1 2.7 3.2 5.3 7.1 7.7 11.5 1.2 2.2 2.3 4.5 3.4 7 0.6 1.2 1.1 2.5 1.6 3.7q0.5 2 1.1 4.1c2 11.1 2.4 23.4 2.9 36.3 0.8 25.8 0.5 49.2 0.4 66.1-0.2 8.4-0.3 15.2-0.3 20q-0.1 3.5-0.1 5.5 0 0.8-0.1 1.4 0 0.5 0 0.5z"/>
					</g>
				</g>
				<g id="&lt;Group&gt;">
					<g id="&lt;Group&gt;">
						<path id="&lt;Path&gt;" class="s0" d="m157.1 688.7c-0.1 0 0.5-0.3 1.6-0.5 1.1-0.1 2.8 0.1 4.5 1.3 0.8 0.6 1.6 1.4 2.2 2.5 0.6 1.1 0.8 2.4 0.6 3.8-0.4 2.7-2.5 5.5-5.8 6.1-3.2 0.6-6.2-1.3-7.6-3.6-0.7-1.2-1-2.5-0.9-3.7 0-1.2 0.4-2.3 0.9-3.2 0.9-1.8 2.3-2.8 3.3-3.3 1.1-0.4 1.7-0.4 1.7-0.4 0 0.1-0.6 0.3-1.5 0.8-0.9 0.5-2.1 1.6-2.9 3.2-0.8 1.7-1.1 4.1 0.3 6.1 1.2 2 3.9 3.6 6.6 3.1 2.6-0.5 4.6-3 4.9-5.3 0.5-2.3-0.8-4.4-2.2-5.5-1.5-1.1-3.1-1.5-4.1-1.5-1 0-1.6 0.2-1.6 0.1z"/>
					</g>
				</g>
				<g id="&lt;Group&gt;">
					<g id="&lt;Group&gt;">
						<path id="&lt;Path&gt;" class="s0" d="m159.8 728.2c0 0.1-1.3-1-2.7-3.3-1.5-2.2-2.9-5.8-2.9-9.9-0.1-4.2 1.3-7.8 2.6-10.1 1.4-2.3 2.6-3.4 2.7-3.3 0.2 0.1-0.9 1.3-2 3.7-1.2 2.3-2.3 5.7-2.3 9.6 0.1 4 1.3 7.4 2.5 9.7 1.2 2.3 2.3 3.5 2.1 3.6z"/>
					</g>
				</g>
				<g id="&lt;Group&gt;">
					<g id="&lt;Group&gt;">
						<path id="&lt;Path&gt;" class="s0" d="m153.4 668.8c0.2 0.1-0.3 1.2-0.6 3-0.3 1.9-0.5 4.4 0.1 7.2 0.6 2.7 1.8 5.1 2.8 6.6 1.1 1.5 1.9 2.3 1.8 2.5-0.1 0-1.1-0.6-2.4-2.1-1.2-1.5-2.6-3.9-3.2-6.8-0.6-2.9-0.4-5.7 0.2-7.5 0.5-1.9 1.2-2.9 1.3-2.9z"/>
					</g>
				</g>
				<g id="&lt;Group&gt;">
					<g id="&lt;Group&gt;">
						<path id="&lt;Path&gt;" class="s0" d="m141.4 691c0.3-0.2 2.1 1.6 5 3.1 2.8 1.5 5.4 1.9 5.3 2.2 0 0.3-2.8 0.3-5.8-1.3-3.1-1.5-4.7-3.9-4.5-4z"/>
					</g>
				</g>
				<g id="&lt;Group&gt;">
					<g id="&lt;Group&gt;">
						<ellipse id="&lt;Path&gt;" class="s0" cx="439.8" cy="823.2" rx="309.9" ry=".5"/>
					</g>
				</g>
				<g id="&lt;Group&gt;">
					<g id="&lt;Group&gt;">
						<ellipse id="&lt;Path&gt;" class="s0" cx="682.6" cy="774.6" rx=".5" ry="48.5"/>
					</g>
				</g>
				<g id="&lt;Group&gt;">
					<g id="&lt;Group&gt;">
						<path id="&lt;Path&gt;" class="s0" d="m477.2 558.3q-0.3 0-1 0.1-1 0-2.8 0.1c-2.5 0-6.1 0.1-10.7 0.3-9.4 0.2-22.9 0.5-39.6 0.9-33.4 0.6-79.5 1.6-130.4 2.6-12.8 0.3-25.2 0.3-37.2 1.1-12 0.7-23.5 2.4-33.9 6.1-10.3 3.6-19.3 9.5-25.7 16.9-3.2 3.7-5.8 7.6-7.9 11.7-2.1 3.9-3.5 8.1-4.9 12-2.3 8-3.4 15.5-4 22.1-0.6 6.6-0.7 12.3-0.7 17 0 4.6 0.1 8.2 0.1 10.7q0.1 1.8 0.1 2.8 0 0.6 0 1-0.1-0.4-0.1-1-0.1-1-0.2-2.8c-0.1-2.4-0.3-6.1-0.3-10.7-0.1-4.7 0-10.4 0.5-17.1 0.6-6.6 1.6-14.1 3.9-22.2 1.3-4 2.8-8.2 4.9-12.2 2-4.1 4.7-8.1 8-11.9 6.4-7.5 15.5-13.5 26-17.2 10.5-3.8 22.1-5.5 34.1-6.3 12-0.8 24.5-0.7 37.2-1 51-0.9 97.1-1.8 130.5-2.4 16.7-0.2 30.2-0.4 39.6-0.5 4.6-0.1 8.2-0.1 10.7-0.2q1.8 0 2.8 0 0.7 0.1 1 0.1z"/>
					</g>
				</g>
				<g id="&lt;Group&gt;">
					<g id="&lt;Group&gt;">
						<path id="&lt;Path&gt;" class="s0" d="m319.7 626.8c0.1 0.1-0.6 0.3-1.7 1.1-1 0.8-2.3 2.2-3.1 4.3-0.7 2.1-0.7 5.1 1.1 7.5 1.8 2.3 5.2 3.9 8.5 3.2 3.3-0.9 5.6-3.9 6.2-6.7 0.6-3-0.8-5.6-2.4-7.2-1.6-1.5-3.5-2.2-4.7-2.4-1.3-0.2-2-0.2-2-0.2 0-0.1 0.7-0.3 2-0.2 1.4 0.1 3.4 0.7 5.2 2.3 0.9 0.8 1.8 1.9 2.3 3.3 0.6 1.3 0.8 2.9 0.5 4.6-0.5 3.2-3 6.5-6.8 7.5-3.9 0.8-7.6-1-9.5-3.7-1-1.3-1.6-2.8-1.7-4.3-0.1-1.4 0.2-2.8 0.6-3.9 0.9-2.3 2.5-3.7 3.6-4.4 1.2-0.7 1.9-0.9 1.9-0.8z"/>
					</g>
				</g>
				<g id="&lt;Group&gt;">
					<g id="&lt;Group&gt;">
						<path id="&lt;Path&gt;" class="s0" d="m311.3 678.6c-0.1 0-0.9-2.2-1.5-5.9-0.7-3.7-1.2-9.1 0.3-14.8 1.6-5.7 5.3-9.9 8.6-11.8 1.7-1 3.2-1.5 4.2-1.7 1-0.3 1.6-0.3 1.6-0.2 0.1 0.2-2.3 0.4-5.4 2.5-3.1 2-6.5 6.1-8 11.5-1.5 5.5-1 10.7-0.6 14.4 0.5 3.7 1 6 0.8 6z"/>
					</g>
				</g>
				<g id="&lt;Group&gt;">
					<g id="&lt;Group&gt;">
						<path id="&lt;Path&gt;" class="s0" d="m318.6 595.9c0.1 0.1-1.5 1.5-3 4.4-1.5 2.8-2.7 7.4-1.6 12.3 1.1 4.8 4.2 8.4 6.8 10.3 2.6 1.9 4.6 2.5 4.6 2.7-0.1 0-0.6-0.1-1.5-0.3-0.9-0.3-2.1-0.9-3.5-1.8-2.9-1.8-6.3-5.6-7.5-10.7-1.1-5.2 0.3-10 2.1-12.8 0.9-1.5 1.7-2.6 2.4-3.2 0.7-0.7 1.1-0.9 1.2-0.9z"/>
					</g>
				</g>
				<g id="&lt;Group&gt;">
					<g id="&lt;Group&gt;">
						<path id="&lt;Path&gt;" class="s0" d="m316.7 635.9c0.1 0.4-5 0.5-10.8 2.5-5.8 1.9-9.9 4.9-10.1 4.6-0.2-0.2 3.7-3.6 9.8-5.6 6-2.1 11.2-1.7 11.1-1.5z"/>
					</g>
				</g>
				<g id="&lt;Group&gt;" style="opacity: .3">
					<g id="&lt;Group&gt;">
						<path id="&lt;Path&gt;" class="s2" d="m256.2 754.3c46.5-11.5 94-18.7 141.8-21.5 5.7-0.3 11.6-0.5 16.9 1.8 6.7 2.9 11 9.4 15 15.5q14.6 22.7 29.3 45.4c2.7 4.3 5.5 8.7 6.5 13.6 1 5-0.1 10.7-4.1 13.8-4 3.1-9.7 2.9-14.7 1.9-17-3.1-32.9-12.1-44.3-25.2-10 10-14.3 24.3-19.1 37.6-4.9 13.4-11.7 27.3-24.3 33.8-8.8 4.7-19.3 4.9-29.3 5.1-9 0.1-19.7-0.7-24.3-8.4-3.3-5.5-2-12.5-0.7-18.8q7.6-35.3 15.2-70.5c-24.1 1.7-48.8-5.7-68-20.5"/>
					</g>
				</g>
				<g id="&lt;Group&gt;" style="opacity: .3">
					<g id="&lt;Group&gt;">
						<path id="&lt;Path&gt;" class="s2" d="m408.6 532.8c-11.9 31.3-56.1 38.5-71.6 68.1-15.4 29.3 3.7 68.1-12.1 97.1-5.9 10.8-16 18.8-21.7 29.6-3.8 7.3-5.8 16-12 21.4-7.3 6.3-18.5 6.2-27.2 2.1-8.7-4.1-15.4-11.4-21.6-18.7-11.6-13.8-22.5-28.7-27.9-45.9-9.3-29.5-0.8-62.9 18-87.6 18.7-24.7 46.5-41.3 75.8-51.3 29.4-10 60.4-13.8 91.3-16.7"/>
					</g>
				</g>
			</g>
			<g id="&lt;Group&gt;">
				<g id="&lt;Group&gt;">
					<path id="&lt;Path&gt;" class="s0" d="m266.4 450.5c4.5-6.8 10.5-12.9 17.9-16.6 7.3-3.7 16.1-5 24-2.4 7.8 2.6 14.4 9.2 16 17.3 1.3 6.4-0.4 13.6 2.9 19.2 3.8 6.5 13 8.5 16.2 15.3 1.9 4.1 1.2 9.1-1 13.1-2.1 4-5.4 7.2-8.8 10.3 2.1 1.4 4.1 2.9 5.5 4.9 1.4 2 2.1 4.7 1.2 7-1 2.4-3.5 3.8-5.9 4.8-11.1 4.7-23.7 5.9-35.4 3.3-3.2-0.7-6.8-1.5-9.4 0.4"/>
				</g>
				<g id="&lt;Group&gt;">
					<path id="&lt;Path&gt;" class="s3" d="m340 493.9l-4.1-1c-4.8-1.1-8-5.5-7.7-10.4l0.7-11.1-4-4.6-0.1-5.8 7.3 3.8c1.5 0.8 2.8 2.2 3.4 3.9 0.8 2.1 2.6 3.6 4.8 4.1l6.1 1.5q86.4 26.1 81.3 60.7l-84.7 20.8-3.3-35.7 44-1.4-43.7-24.8 6.4-19.6"/>
				</g>
				<g id="&lt;Group&gt;">
					<g id="&lt;Group&gt;">
						<g id="&lt;Group&gt;">
							<path id="&lt;Path&gt;" class="s4" d="m305.4 525.5l48.4-6.6 8.1 33.3-24.1 13-20 66.6q9.5 7.1 14.1 11.6 4.6 4.6-82.3 16l-14.7-36.9-34-5.9q13.4-44.1 22.6-55.8c9.3-11.8 25.4-15.7 27.1-15.7z"/>
						</g>
						<g id="&lt;Group&gt;">
							<g id="&lt;Group&gt;">
								<ellipse id="&lt;Path&gt;" class="s1" cx="273.2" cy="580.5" rx="60.5" ry=".5"/>
							</g>
						</g>
						<g id="&lt;Group&gt;">
							<g id="&lt;Group&gt;">
								<ellipse id="&lt;Path&gt;" class="s1" cx="267.8" cy="600.1" rx="60.5" ry=".5"/>
							</g>
						</g>
						<g id="&lt;Group&gt;">
							<g id="&lt;Group&gt;">
								<ellipse id="&lt;Path&gt;" class="s1" cx="282.5" cy="621.3" rx="45.8" ry=".5"/>
							</g>
						</g>
						<g id="&lt;Group&gt;">
							<g id="&lt;Group&gt;">
								<ellipse id="&lt;Path&gt;" class="s1" cx="289.5" cy="641.6" rx="45.8" ry=".5"/>
							</g>
						</g>
						<g id="&lt;Group&gt;">
							<g id="&lt;Group&gt;">
								<ellipse id="&lt;Path&gt;" class="s1" cx="326.8" cy="554.2" rx="30.3" ry=".5"/>
							</g>
						</g>
						<g id="&lt;Group&gt;">
							<g id="&lt;Group&gt;">
								<path id="&lt;Path&gt;" class="s1" d="m359.2 533.4c0 0.3-13.5 0.9-30.1 1.3-16.7 0.4-30.2 0.4-30.2 0.2 0-0.3 13.5-0.9 30.1-1.3 16.7-0.4 30.2-0.4 30.2-0.2z"/>
							</g>
						</g>
					</g>
					<g id="&lt;Group&gt;">
						<g id="&lt;Group&gt;">
							<path id="&lt;Path&gt;" class="s0" d="m242 590.7c0.3 0.1-1.2 7.4-3.2 16.4-2.1 8.9-4 16.2-4.3 16.1-0.3-0.1 1.2-7.4 3.2-16.4 2.1-8.9 4-16.2 4.3-16.1z"/>
						</g>
					</g>
				</g>
				<g id="&lt;Group&gt;">
					<g id="&lt;Group&gt;">
						<path id="&lt;Path&gt;" class="s3" d="m370.5 854l-28.7 69.3-30.5-3 25.3-79.9z"/>
					</g>
					<g id="&lt;Group&gt;">
						<g id="&lt;Group&gt;">
							<g id="&lt;Group&gt;">
								<path id="&lt;Path&gt;" class="s5" d="m358.9 892.3l-14.5 36q31.8 26.9 29.7 33.9l-70.9-25.7 20.3-57.1z"/>
							</g>
							<g id="&lt;Group&gt;">
								<g id="&lt;Group&gt;">
									<path id="&lt;Path&gt;" class="s6" d="m323.3 917.3c1.5-0.2 3 1.5 3 3.1 0 1.5-1.9 2.8-3.4 2.7-1.5-0.1-2.7-1.7-2.5-3.2 0.2-1.5 1.7-2.7 3.2-2.6"/>
								</g>
							</g>
							<g id="&lt;Group&gt;">
								<path id="&lt;Path&gt;" class="s6" d="m303.2 936.5l2.3-5.7 67.1 26.8q2.7 2.5 1.5 4.6z"/>
							</g>
							<g id="&lt;Group&gt;">
								<g id="&lt;Group&gt;">
									<path id="&lt;Path&gt;" class="s0" d="m345.7 928.4c-0.2 0.3-1.9-0.1-4.1 0.4-2.1 0.4-3.5 1.6-3.8 1.3-0.3-0.1 1-2 3.6-2.6 2.5-0.6 4.5 0.6 4.3 0.9z"/>
								</g>
							</g>
							<g id="&lt;Group&gt;">
								<g id="&lt;Group&gt;">
									<path id="&lt;Path&gt;" class="s0" d="m352 934.2c0 0.3-1.8 0.4-3.5 1.4-1.7 1-2.6 2.5-2.9 2.3-0.4 0 0.1-2.1 2.3-3.4 2.1-1.3 4.2-0.7 4.1-0.3z"/>
								</g>
							</g>
							<g id="&lt;Group&gt;">
								<g id="&lt;Group&gt;">
									<path id="&lt;Path&gt;" class="s0" d="m353 944.6c-0.3 0-0.2-1.9 1.4-3.5 1.5-1.6 3.5-1.8 3.5-1.4 0.1 0.3-1.3 1-2.6 2.3-1.3 1.3-1.9 2.7-2.3 2.6z"/>
								</g>
							</g>
							<g id="&lt;Group&gt;">
								<g id="&lt;Group&gt;">
									<path id="&lt;Path&gt;" class="s0" d="m348.1 919.8c-0.3 0.3-1.7-0.8-3.7-1.4-2-0.6-3.8-0.5-3.8-0.8-0.1-0.4 1.8-1.1 4.2-0.4 2.3 0.7 3.5 2.4 3.3 2.6z"/>
								</g>
							</g>
						</g>
						<g id="&lt;Group&gt;">
							<g id="&lt;Group&gt;">
								<path id="&lt;Path&gt;" class="s0" d="m350.9 912.5c-0.1 0.1-1.5-0.2-3.6-1.3-1-0.6-2.1-1.4-3.3-2.5q-0.8-0.8-1.6-1.8c-0.3-0.4-0.6-0.7-0.8-1.3-0.2-0.5-0.1-1.5 0.5-1.9 0.6-0.4 1.3-0.4 1.8-0.2 0.6 0.2 0.9 0.4 1.3 0.7q1.1 0.7 1.9 1.5c1.2 1.1 2 2.3 2.5 3.4 1.1 2.1 1.2 3.6 1.1 3.6-0.2 0.1-0.6-1.3-1.9-3.2-0.6-0.9-1.4-1.9-2.5-2.9q-0.8-0.7-1.8-1.4c-0.7-0.4-1.3-0.7-1.6-0.4-0.1 0.1-0.2 0.1-0.1 0.4 0.1 0.3 0.3 0.6 0.6 0.9q0.7 1 1.5 1.8c1 1 2 1.9 2.9 2.5 1.9 1.3 3.2 1.9 3.1 2.1z"/>
							</g>
						</g>
						<g id="&lt;Group&gt;">
							<g id="&lt;Group&gt;">
								<path id="&lt;Path&gt;" class="s0" d="m350.2 912.8c-0.1 0-0.3-1.5 0.4-3.8 0.3-1.1 0.9-2.4 1.8-3.7q0.8-0.9 1.7-1.8c0.7-0.5 1.5-1.3 2.9-1 0.8 0.3 1.1 1 1.2 1.6 0 0.5-0.1 1-0.1 1.4-0.2 0.9-0.5 1.7-0.9 2.4-0.8 1.4-1.8 2.4-2.8 3.1-2.1 1.3-3.7 1.2-3.7 1.1 0-0.2 1.4-0.4 3.1-1.8 0.9-0.7 1.7-1.7 2.4-3q0.4-0.9 0.6-2c0.2-0.8 0.1-1.5-0.2-1.6-0.3-0.1-1.1 0.3-1.6 0.8q-0.9 0.7-1.6 1.6c-0.9 1.1-1.6 2.2-2 3.3-0.8 2-0.9 3.4-1.2 3.4z"/>
							</g>
						</g>
					</g>
				</g>
				<g id="&lt;Group&gt;">
					<g id="&lt;Group&gt;">
						<path id="&lt;Path&gt;" class="s3" d="m463.5 744.4l37.9 66.7-30.9 19.8-37.8-65.7z"/>
					</g>
					<g id="&lt;Group&gt;">
						<g id="&lt;Group&gt;">
							<g id="&lt;Group&gt;">
								<path id="&lt;Path&gt;" class="s5" d="m490.7 792.3l19.6 33.7q40.7-8.6 44.9-2.7l-63.8 40.2-32.6-51.2z"/>
							</g>
							<g id="&lt;Group&gt;">
								<g id="&lt;Group&gt;">
									<path id="&lt;Path&gt;" class="s6" d="m488.6 835.8c0.8-1.3 3.1-1.4 4.2-0.5 1.2 1 1.2 3.3 0.1 4.4-1 1.1-3 1.1-4 0-1.1-1-1.1-3-0.1-4.1"/>
								</g>
							</g>
							<g id="&lt;Group&gt;">
								<path id="&lt;Path&gt;" class="s6" d="m491.4 863.5l-3.1-5.3 62.4-36.6q3.6-0.5 4.5 1.7z"/>
							</g>
							<g id="&lt;Group&gt;">
								<g id="&lt;Group&gt;">
									<path id="&lt;Path&gt;" class="s0" d="m511.1 825c0.2 0.3-1.3 1.4-2.2 3.4-0.9 1.9-0.9 3.8-1.2 3.8-0.4 0.2-1.1-2 0.1-4.4 1.1-2.3 3.2-3.2 3.3-2.8z"/>
								</g>
							</g>
							<g id="&lt;Group&gt;">
								<g id="&lt;Group&gt;">
									<path id="&lt;Path&gt;" class="s0" d="m519.5 823.5c0.3 0.3-0.7 1.7-0.9 3.7-0.3 1.9 0.3 3.5 0 3.7-0.3 0.2-1.6-1.4-1.3-3.9 0.3-2.5 2-3.8 2.2-3.5z"/>
								</g>
							</g>
							<g id="&lt;Group&gt;">
								<g id="&lt;Group&gt;">
									<path id="&lt;Path&gt;" class="s0" d="m528.4 829.1c-0.3 0.3-1.7-1-1.9-3.2-0.3-2.2 0.7-3.8 1-3.6 0.3 0.1 0 1.6 0.2 3.4 0.2 1.9 1 3.2 0.7 3.4z"/>
								</g>
							</g>
							<g id="&lt;Group&gt;">
								<g id="&lt;Group&gt;">
									<path id="&lt;Path&gt;" class="s0" d="m505.8 817.8c0.1 0.4-1.7 0.8-3.3 2.1-1.7 1.2-2.7 2.6-3.1 2.5-0.3-0.2 0.3-2.2 2.3-3.6 2-1.4 4.1-1.3 4.1-1z"/>
								</g>
							</g>
						</g>
						<g id="&lt;Group&gt;">
							<g id="&lt;Group&gt;">
								<path id="&lt;Path&gt;" class="s0" d="m501.7 811.1c0.1 0.1-1 1.1-3.2 2-1.1 0.4-2.4 0.8-4 1.1q-1.1 0.1-2.4 0.2c-0.4-0.1-0.9 0-1.5-0.2-0.5-0.1-1.2-0.8-1.1-1.6 0-0.7 0.4-1.2 0.9-1.5 0.4-0.3 0.9-0.5 1.3-0.6q1.2-0.4 2.4-0.6c1.6-0.2 3-0.1 4.2 0.1 2.3 0.4 3.6 1.3 3.5 1.4-0.1 0.2-1.4-0.3-3.6-0.5-1.2-0.1-2.5-0.1-3.9 0.2q-1.1 0.2-2.2 0.6c-0.8 0.2-1.4 0.6-1.4 1 0.1 0.1 0.1 0.2 0.3 0.3 0.3 0.1 0.7 0.1 1.1 0.1q1.2 0 2.3-0.1c1.5-0.2 2.8-0.4 3.8-0.8 2.2-0.6 3.4-1.3 3.5-1.1z"/>
							</g>
						</g>
						<g id="&lt;Group&gt;">
							<g id="&lt;Group&gt;">
								<path id="&lt;Path&gt;" class="s0" d="m501.6 811.8c-0.1 0.1-1.4-0.6-2.8-2.6-0.7-0.9-1.3-2.2-1.7-3.7q-0.4-1.2-0.5-2.5c0-0.9 0-2 1.1-2.9 0.6-0.4 1.4-0.2 1.9 0.1 0.5 0.3 0.7 0.6 1 0.9 0.6 0.7 1.1 1.4 1.4 2.2 0.6 1.5 0.8 2.9 0.7 4.1-0.2 2.5-1.3 3.7-1.4 3.6-0.2-0.1 0.5-1.4 0.5-3.6 0-1.1-0.3-2.4-0.9-3.6q-0.4-1-1.2-1.8c-0.5-0.6-1.1-1-1.3-0.8-0.4 0.2-0.6 1-0.5 1.7q0.1 1.2 0.3 2.3c0.3 1.4 0.9 2.6 1.4 3.6 1.1 1.9 2.2 2.8 2 3z"/>
							</g>
						</g>
					</g>
				</g>
				<g id="&lt;Group&gt;">
					<g id="&lt;Group&gt;">
						<path id="&lt;Path&gt;" class="s0" d="m252.7 756l-1.6-3.2c-13.5-27.6-14.8-59.6-3.5-88.2l2-5.2 32 3.9 12.6 6.3q113.1-21.6 123-19.4 17.6 3.9 66.6 123.4l-42.6 23-46.8-91.1-74.2 50.5z"/>
					</g>
					<g id="&lt;Group&gt;">
						<path id="&lt;Path&gt;" class="s0" d="m285.3 662.1l44.3-18.7 96.9 95.2-53 143.3-52.9-10.1 35.4-119q-61.3-57.5-61.9-60z"/>
					</g>
					<g id="&lt;Group&gt;">
						<g id="&lt;Group&gt;">
							<path id="&lt;Path&gt;" class="s5" d="m394.4 705.5c0.2 0.2-16.3 11.7-36.8 25.7-20.5 13.9-37.2 25-37.4 24.8-0.2-0.3 16.3-11.8 36.8-25.7 20.5-13.9 37.2-25 37.4-24.8z"/>
						</g>
					</g>
					<g id="&lt;Group&gt;">
						<g id="&lt;Group&gt;">
							<path id="&lt;Path&gt;" class="s5" d="m432.5 779.7c-0.1 0-0.7-1-1.8-2.8-1.1-1.8-2.6-4.4-4.5-7.7-3.7-6.6-8.6-15.8-13.8-26.1-5.2-10.2-9.8-19.6-13-26.4-1.6-3.5-2.9-6.2-3.8-8.2-0.8-1.9-1.3-3-1.2-3 0.1 0 0.6 1 1.6 2.9 1.1 2 2.4 4.7 4.1 7.9 3.4 6.9 8.1 16.1 13.2 26.4 5.2 10.2 10.1 19.5 13.6 26.1 1.7 3.2 3.1 5.9 4.2 7.9 1 1.9 1.5 2.9 1.4 3z"/>
						</g>
					</g>
					<g id="&lt;Group&gt;">
						<g id="&lt;Group&gt;">
							<path id="&lt;Path&gt;" class="s5" d="m367.1 731.6c0.3 0.1-2.3 5.8-5.6 12.7-3.4 6.9-6.4 12.4-6.7 12.3-0.2-0.1 2.3-5.8 5.7-12.7 3.4-7 6.4-12.5 6.6-12.3z"/>
						</g>
					</g>
				</g>
				<g id="&lt;Group&gt;">
					<path id="&lt;Path&gt;" class="s3" d="m234.9 622.5l-8 30.5 74.9-6.5 10 19.7-95.1 23.4c-10.2 2.4-20.8-2.4-25.7-11.6-2.8-5.2-3.6-11.3-2-17l11.9-44.4z"/>
				</g>
				<g id="&lt;Group&gt;">
					<g id="&lt;Group&gt;">
						<path id="&lt;Path&gt;" class="s5" d="m243.1 683.9l1.2-6.4 51.6-9.3 15-79.5 95.7-11.4-16.1 84.9z"/>
					</g>
					<g id="&lt;Group&gt;">
						<path id="&lt;Path&gt;" class="s7" d="m353.8 631.5c-2.5-0.5-4.1-3.2-3.5-6.1 0.6-2.9 3-4.8 5.6-4.3 2.5 0.4 4 3.2 3.5 6.1-0.6 2.9-3.1 4.8-5.6 4.3z"/>
					</g>
				</g>
				<g id="&lt;Group&gt;">
					<g id="&lt;Group&gt;">
						<g id="&lt;Group&gt;">
							<g id="&lt;Group&gt;">
								<g id="&lt;Group&gt;">
									<g id="&lt;Group&gt;">
										<g id="&lt;Group&gt;">
											<path id="&lt;Path&gt;" class="s3" d="m293.7 451.7c10.6-1.2 20.1 6.7 20.9 17.3 0.9 11.9 1.5 26.4 0.2 35.3q-2.6 17.8-16.2 20.2-0.1 11.2 0 21.8c0 10.1-8.6 18.5-19.4 18.9-10.7 0.3-19.5-7.4-19.8-17.4l-2.1-86-0.2-5.8z"/>
										</g>
									</g>
								</g>
							</g>
						</g>
						<g id="&lt;Group&gt;">
							<g id="&lt;Group&gt;">
								<g id="&lt;Group&gt;">
									<g id="&lt;Group&gt;">
										<g id="&lt;Group&gt;">
											<g id="&lt;Group&gt;">
												<ellipse id="&lt;Path&gt;" class="s0" cx="305.4" cy="479.1" rx="2.3" ry="2.2"/>
											</g>
										</g>
									</g>
								</g>
							</g>
							<g id="&lt;Group&gt;">
								<g id="&lt;Group&gt;">
									<g id="&lt;Group&gt;">
										<g id="&lt;Group&gt;">
											<g id="&lt;Group&gt;">
												<g id="&lt;Group&gt;">
													<path id="&lt;Path&gt;" class="s0" d="m311.5 476.6c-0.2 0.3-2-0.9-4.4-0.9-2.5 0-4.3 1.3-4.6 1-0.1-0.2 0.2-0.7 1-1.3 0.7-0.6 2.1-1.1 3.6-1.1 1.5 0 2.8 0.5 3.6 1.1 0.7 0.5 1 1.1 0.8 1.2z"/>
												</g>
											</g>
										</g>
									</g>
								</g>
							</g>
						</g>
						<g id="&lt;Group&gt;">
							<g id="&lt;Group&gt;">
								<g id="&lt;Group&gt;">
									<g id="&lt;Group&gt;">
										<g id="&lt;Group&gt;">
											<g id="&lt;Group&gt;">
												<ellipse id="&lt;Path&gt;" class="s0" cx="281.2" cy="480" rx="2.3" ry="2.2"/>
											</g>
										</g>
									</g>
								</g>
							</g>
							<g id="&lt;Group&gt;">
								<g id="&lt;Group&gt;">
									<g id="&lt;Group&gt;">
										<g id="&lt;Group&gt;">
											<g id="&lt;Group&gt;">
												<g id="&lt;Group&gt;">
													<path id="&lt;Path&gt;" class="s0" d="m287.4 477.4c-0.3 0.3-2-1-4.5-1-2.4 0-4.2 1.3-4.5 1-0.1-0.1 0.1-0.7 0.9-1.2 0.8-0.6 2.1-1.2 3.6-1.2 1.6 0 2.9 0.5 3.6 1.1 0.8 0.6 1 1.1 0.9 1.3z"/>
												</g>
											</g>
										</g>
									</g>
								</g>
							</g>
						</g>
						<g id="&lt;Group&gt;">
							<g id="&lt;Group&gt;">
								<g id="&lt;Group&gt;">
									<g id="&lt;Group&gt;">
										<g id="&lt;Group&gt;">
											<g id="&lt;Group&gt;">
												<path id="&lt;Path&gt;" class="s0" d="m296.5 495.5c0-0.2 1.5-0.5 4-0.8 0.6-0.1 1.2-0.2 1.3-0.6 0.2-0.5-0.1-1.2-0.4-1.9q-0.9-2.3-1.9-4.7c-2.7-6.8-4.6-12.4-4.3-12.5 0.2-0.1 2.6 5.3 5.3 12.1q0.9 2.5 1.8 4.8c0.2 0.7 0.7 1.5 0.4 2.4-0.2 0.5-0.7 0.8-1.1 1-0.4 0.1-0.7 0.1-1 0.1-2.5 0.2-4.1 0.2-4.1 0.1z"/>
											</g>
										</g>
									</g>
								</g>
							</g>
						</g>
						<g id="&lt;Group&gt;">
							<g id="&lt;Group&gt;">
								<g id="&lt;Group&gt;">
									<g id="&lt;Group&gt;">
										<g id="&lt;Group&gt;">
											<path id="&lt;Path&gt;" class="s8" d="m298.4 528.7q-17.8 1.9-23.8-10.3 12 7 24 6.1z"/>
										</g>
									</g>
								</g>
							</g>
						</g>
						<g id="&lt;Group&gt;">
							<g id="&lt;Group&gt;">
								<g id="&lt;Group&gt;">
									<g id="&lt;Group&gt;">
										<g id="&lt;Group&gt;">
											<path id="&lt;Path&gt;" class="s0" d="m288.4 473.3c-0.3 0.7-2.7 0.2-5.6 0.4-2.9 0.2-5.3 0.9-5.6 0.3-0.2-0.3 0.2-0.9 1.2-1.5 1-0.6 2.5-1.1 4.2-1.2 1.8-0.2 3.3 0.2 4.4 0.7 1 0.4 1.5 1 1.4 1.3z"/>
										</g>
									</g>
								</g>
							</g>
						</g>
						<g id="&lt;Group&gt;">
							<g id="&lt;Group&gt;">
								<g id="&lt;Group&gt;">
									<g id="&lt;Group&gt;">
										<g id="&lt;Group&gt;">
											<path id="&lt;Path&gt;" class="s0" d="m310.5 468.1c-0.4 0.5-2.1 0-4.1 0-2.1-0.1-3.8 0.4-4.2-0.2-0.2-0.3 0.1-0.8 0.8-1.4 0.8-0.5 2-0.9 3.4-0.9 1.4 0 2.6 0.5 3.3 1.1 0.8 0.5 1 1.1 0.8 1.4z"/>
										</g>
									</g>
								</g>
							</g>
						</g>
						<g id="&lt;Group&gt;">
							<g id="&lt;Group&gt;">
								<path id="&lt;Path&gt;" class="s8" d="m296.3 504.4c-0.7 0.2-1.5-0.1-2.2-0.3-0.7-0.2-1.3-0.3-1.9-0.5-0.6-0.2-1.2-0.5-1.9-0.7-0.6-0.3-1.4-0.5-1.8-1.1-0.4-0.6-0.4-1.5 0.6-2.4 0.9-0.8 2.8-1.4 4.7-0.8 2 0.7 3.1 2.3 3.4 3.5 0.2 1.2-0.3 2.1-0.9 2.3z"/>
							</g>
						</g>
						<g id="&lt;Group&gt;">
							<g id="&lt;Group&gt;">
								<path id="&lt;Path&gt;" class="s0" d="m296.6 504.1c-0.2 0.2-1.4-2.2-4.3-3-2.9-0.7-5.1 0.9-5.2 0.6-0.1-0.1 0.3-0.6 1.3-1.1 0.9-0.5 2.5-0.9 4.1-0.5 1.7 0.4 2.9 1.5 3.5 2.4 0.6 0.9 0.7 1.6 0.6 1.6z"/>
							</g>
						</g>
					</g>
					<g id="&lt;Group&gt;">
						<path id="&lt;Path&gt;" class="s0" d="m277.7 444.4c5.7 8.5 4.2 21-3.2 28-4.3 4-10.6 7.1-11 12.9-0.5 6.4 6.9 11.2 6.9 17.6 0 6.6-7.6 10.9-9.1 17.3-1.2 5.2 1.9 10.4 5.5 14.4 3.6 3.9 7.9 7.4 10.1 12.3 2.4 5.3 1.7 11.7-0.6 17.1-2.3 5.4-6.1 10-10.1 14.4-5.3-1.9-10.8-3.2-16.4-3.7q0.5-3.2 1-6.4c0.1 2.5-1.9 4.7-4.3 5.4-2.3 0.8-4.9 0.5-7.3 0.1-7.5-1.1-14.9-3-22-5.6 3-3.1 6.1-6.2 8-10.1 1.9-3.8 2.4-8.7 0.2-12.4-1.7-3-5-4.9-6.6-7.9-2.4-4.6-0.4-10.5 3-14.4 3.5-3.9 8.1-6.4 12.2-9.6 4.1-3.2 7.9-7.5 8.2-12.7 0.5-6.8-5-12.9-4.3-19.6 0.7-7.6 8.8-12.3 12-19.3 2.3-5.1 2-11.3 5.5-15.6 2.6-3.2 6.9-4.6 11.1-4.4 4.1 0.2 8 1.9 11.5 4"/>
					</g>
					<g id="&lt;Group&gt;">
						<path id="&lt;Path&gt;" class="s0" d="m323.7 506c5.5 4.1 7.8 12.2 5.3 18.6-1.5 3.9-4.6 7.6-3.8 11.7 0.7 3.4 3.9 5.6 5.9 8.4 3 4.2 3.5 10.1 1.1 14.7-2.4 4.6-7.5 7.7-12.7 7.6h-4.9l2.2-5.4-4.7 2.6-1.7 1-7.6-2.9c5.2-4 6.7-12.1 3.2-17.7-1.9-3.1-5.1-5.3-7-8.4-2-3.1-2.2-8 1-9.8"/>
					</g>
				</g>
			</g>
		</g>
	</g>
	<g id="Plant">
		<g id="&lt;Group&gt;">
			<g id="&lt;Group&gt;">
				<g id="&lt;Group&gt;">
					<g id="&lt;Group&gt;">
						<g id="&lt;Group&gt;">
							<g id="&lt;Group&gt;">
								<g id="&lt;Group&gt;">
									<g id="&lt;Group&gt;">
										<path id="&lt;Path&gt;" class="s0" d="m880.4 889.2q-0.4-0.9-1.2-2.3c-1-2.1-2.3-5.2-3.4-9.4-2.3-8.4-3.2-21.2-0.1-36.5 1.4-7.6 3.7-15.8 6.6-24.5 2.8-8.6 6-17.8 8.7-27.6 2.6-9.9 4.7-20.5 4.3-31.6-0.5-11-3.8-22.2-7.4-33.3-3.7-11.2-7.5-22.3-8.6-33.5-1.3-11.1 1.1-22.3 6.2-31.2 5-9.1 11.1-16.7 15.7-24.5 4.6-7.8 7.5-15.8 9.4-23.3 3.5-15.1 2.4-27.8 0.9-36.2-0.8-4.3-1.7-7.5-2.4-9.7q-0.5-1.5-0.7-2.5-0.3-0.8-0.3-0.8 2 4.4 3.8 12.9c1.7 8.4 2.9 21.3-0.5 36.5-1.8 7.5-4.7 15.7-9.4 23.6-4.5 7.9-10.7 15.5-15.5 24.5-5 8.8-7.4 19.6-6.1 30.6 1.1 11 4.9 22 8.6 33.2 3.7 11.2 7 22.4 7.4 33.7 0.4 11.2-1.7 22-4.4 31.8-2.7 10-6 19.1-8.8 27.7-2.9 8.7-5.3 16.8-6.7 24.4-3.2 15.1-2.4 27.9-0.3 36.2 1.1 4.2 2.3 7.3 3.2 9.4q0.7 1.4 1.1 2.3 0.4 0.8 0.4 0.8-0.1 0-0.5-0.7z"/>
									</g>
								</g>
							</g>
						</g>
					</g>
					<g id="&lt;Group&gt;">
						<g id="&lt;Group&gt;">
							<g id="&lt;Group&gt;">
								<g id="&lt;Group&gt;">
									<g id="&lt;Group&gt;">
										<path id="&lt;Path&gt;" class="s1" d="m886.7 596.5c0.1-0.8 1.2-1.1 1.7-0.5q16.7 17.4 7.4 47.1c-11.1-26.7-10-41.7-9.1-46.6z"/>
									</g>
								</g>
							</g>
						</g>
						<g id="&lt;Group&gt;">
							<g id="&lt;Group&gt;">
								<g id="&lt;Group&gt;">
									<g id="&lt;Group&gt;">
										<g id="&lt;Group&gt;">
											<path id="&lt;Path&gt;" class="s0" d="m891.7 611.2c0.7 3.4 1.6 8 2.4 13.1 0.9 5.1 1.5 9.8 1.8 13.2 0.3 3.4 0.3 5.5 0.2 5.5-0.2 0-0.5-2.1-1-5.4-0.6-3.8-1.3-8.2-2.1-13.1-0.8-4.9-1.5-9.3-2.1-13.1-0.5-3.4-0.8-5.5-0.6-5.5 0.1 0 0.7 2 1.4 5.3z"/>
										</g>
									</g>
								</g>
							</g>
						</g>
					</g>
					<g id="&lt;Group&gt;">
						<g id="&lt;Group&gt;">
							<g id="&lt;Group&gt;">
								<g id="&lt;Group&gt;">
									<g id="&lt;Group&gt;">
										<path id="&lt;Path&gt;" class="s1" d="m855.1 676.2c-0.3-0.8 0.5-1.5 1.3-1.3q22.8 7.6 28.5 38.2c-22.3-18.4-28.3-32.2-29.8-36.9z"/>
									</g>
								</g>
							</g>
						</g>
						<g id="&lt;Group&gt;">
							<g id="&lt;Group&gt;">
								<g id="&lt;Group&gt;">
									<g id="&lt;Group&gt;">
										<g id="&lt;Group&gt;">
											<path id="&lt;Path&gt;" class="s0" d="m866.4 686.9c2.2 2.6 5.1 6.2 8.2 10.3 3.2 4.2 5.9 8 7.8 10.9 1.8 2.8 2.8 4.7 2.7 4.8-0.2 0.1-1.4-1.6-3.4-4.4-2.3-3-5-6.6-8-10.6-3-3.9-5.7-7.5-8-10.5-2-2.8-3.2-4.5-3.1-4.6 0.1-0.1 1.6 1.5 3.8 4.1z"/>
										</g>
									</g>
								</g>
							</g>
						</g>
					</g>
					<g id="&lt;Group&gt;">
						<g id="&lt;Group&gt;">
							<g id="&lt;Group&gt;">
								<g id="&lt;Group&gt;">
									<g id="&lt;Group&gt;">
										<path id="&lt;Path&gt;" class="s1" d="m873.2 745.8c0-0.8 1-1.3 1.7-0.8q19.6 13.9 16.2 44.8c-16-24.1-17.8-39-17.9-44z"/>
									</g>
								</g>
							</g>
						</g>
						<g id="&lt;Group&gt;">
							<g id="&lt;Group&gt;">
								<g id="&lt;Group&gt;">
									<g id="&lt;Group&gt;">
										<g id="&lt;Group&gt;">
											<path id="&lt;Path&gt;" class="s0" d="m881 759.3c1.3 3.1 3.1 7.5 4.9 12.3 1.8 4.9 3.2 9.4 4.2 12.6 0.9 3.3 1.3 5.4 1.2 5.4-0.2 0.1-0.9-1.9-2-5.1-1.3-3.6-2.8-7.8-4.5-12.5-1.7-4.6-3.3-8.8-4.6-12.4-1.2-3.2-1.8-5.2-1.7-5.3 0.2 0 1.1 1.9 2.5 5z"/>
										</g>
									</g>
								</g>
							</g>
						</g>
					</g>
					<g id="&lt;Group&gt;">
						<g id="&lt;Group&gt;">
							<g id="&lt;Group&gt;">
								<g id="&lt;Group&gt;">
									<g id="&lt;Group&gt;">
										<path id="&lt;Path&gt;" class="s1" d="m854.5 823.6c-0.1-0.8 0.9-1.3 1.6-0.9q20.1 13.2 17.8 44.2c-16.9-23.5-19.2-38.3-19.4-43.3z"/>
									</g>
								</g>
							</g>
						</g>
						<g id="&lt;Group&gt;">
							<g id="&lt;Group&gt;">
								<g id="&lt;Group&gt;">
									<g id="&lt;Group&gt;">
										<g id="&lt;Group&gt;">
											<path id="&lt;Path&gt;" class="s0" d="m862.7 836.8c1.4 3.1 3.3 7.4 5.3 12.2 2 4.8 3.6 9.2 4.7 12.4 1 3.3 1.5 5.3 1.4 5.4-0.2 0-0.9-1.9-2.2-5.1-1.4-3.5-3.1-7.7-5-12.3-1.8-4.6-3.5-8.7-5-12.2-1.2-3.2-2-5.2-1.8-5.2 0.1-0.1 1.1 1.8 2.6 4.8z"/>
										</g>
									</g>
								</g>
							</g>
						</g>
					</g>
					<g id="&lt;Group&gt;">
						<g id="&lt;Group&gt;">
							<g id="&lt;Group&gt;">
								<g id="&lt;Group&gt;">
									<g id="&lt;Group&gt;">
										<path id="&lt;Path&gt;" class="s1" d="m935.6 577.7c0.7-0.5 1.7 0 1.7 0.8q-0.6 24.1-28.1 38.5c11-26.8 22.3-36.5 26.4-39.3z"/>
									</g>
								</g>
							</g>
						</g>
						<g id="&lt;Group&gt;">
							<g id="&lt;Group&gt;">
								<g id="&lt;Group&gt;">
									<g id="&lt;Group&gt;">
										<g id="&lt;Group&gt;">
											<path id="&lt;Path&gt;" class="s0" d="m928.8 591.6c-1.9 2.8-4.5 6.7-7.5 10.9-3.1 4.3-5.9 8-8.1 10.6-2.2 2.6-3.7 4.1-3.8 4-0.1-0.1 1.1-1.8 3.1-4.5 2.3-3.1 4.9-6.7 7.8-10.7 2.9-4 5.6-7.7 7.8-10.8 2-2.7 3.3-4.4 3.4-4.3 0.2 0.1-0.9 1.9-2.7 4.8z"/>
										</g>
									</g>
								</g>
							</g>
						</g>
					</g>
					<g id="&lt;Group&gt;">
						<g id="&lt;Group&gt;">
							<g id="&lt;Group&gt;">
								<g id="&lt;Group&gt;">
									<g id="&lt;Group&gt;">
										<path id="&lt;Path&gt;" class="s1" d="m908.4 643.1c0.7-0.5 1.6 0.1 1.5 1q-2 23.9-30.3 36.6c12.6-26 24.5-35 28.8-37.6z"/>
									</g>
								</g>
							</g>
						</g>
						<g id="&lt;Group&gt;">
							<g id="&lt;Group&gt;">
								<g id="&lt;Group&gt;">
									<g id="&lt;Group&gt;">
										<g id="&lt;Group&gt;">
											<path id="&lt;Path&gt;" class="s0" d="m900.7 656.6c-2 2.7-4.9 6.4-8.2 10.4-3.3 4.1-6.4 7.6-8.7 10.1-2.3 2.4-3.9 3.9-4 3.8-0.1-0.2 1.2-1.8 3.4-4.4 2.4-2.9 5.3-6.4 8.4-10.2 3.2-3.8 6-7.3 8.4-10.2 2.2-2.7 3.6-4.2 3.7-4.1 0.2 0.1-1 1.8-3 4.6z"/>
										</g>
									</g>
								</g>
							</g>
						</g>
					</g>
					<g id="&lt;Group&gt;">
						<g id="&lt;Group&gt;">
							<g id="&lt;Group&gt;">
								<g id="&lt;Group&gt;">
									<g id="&lt;Group&gt;">
										<path id="&lt;Path&gt;" class="s1" d="m904.4 705.2c0.5-0.8 1.5-0.6 1.8 0.1q9.2 22.3-10.3 46.5c-0.6-28.9 5.9-42.4 8.5-46.6z"/>
									</g>
								</g>
							</g>
						</g>
						<g id="&lt;Group&gt;">
							<g id="&lt;Group&gt;">
								<g id="&lt;Group&gt;">
									<g id="&lt;Group&gt;">
										<g id="&lt;Group&gt;">
											<path id="&lt;Path&gt;" class="s0" d="m903.7 720.7c-0.6 3.3-1.4 8-2.5 13-1.1 5.1-2.2 9.7-3.2 12.9-1 3.3-1.7 5.3-1.9 5.2-0.1 0 0.4-2.1 1.1-5.4 0.8-3.7 1.8-8.1 2.9-12.9 1-4.9 2-9.2 2.8-13 0.7-3.3 1.2-5.3 1.4-5.3 0.2 0-0.1 2.1-0.6 5.5z"/>
										</g>
									</g>
								</g>
							</g>
						</g>
					</g>
					<g id="&lt;Group&gt;">
						<g id="&lt;Group&gt;">
							<g id="&lt;Group&gt;">
								<g id="&lt;Group&gt;">
									<g id="&lt;Group&gt;">
										<path id="&lt;Path&gt;" class="s1" d="m904.8 797.4c0.7-0.5 1.6 0.1 1.5 0.9q-1.6 24-29.7 37.2c12.2-26.3 24-35.5 28.2-38.1z"/>
									</g>
								</g>
							</g>
						</g>
						<g id="&lt;Group&gt;">
							<g id="&lt;Group&gt;">
								<g id="&lt;Group&gt;">
									<g id="&lt;Group&gt;">
										<g id="&lt;Group&gt;">
											<path id="&lt;Path&gt;" class="s0" d="m897.3 811c-2 2.7-4.8 6.5-8 10.6-3.2 4.1-6.2 7.6-8.5 10.2-2.3 2.5-3.9 3.9-4 3.8-0.1-0.1 1.2-1.7 3.4-4.4 2.3-3 5.1-6.5 8.2-10.3 3.1-3.9 5.9-7.4 8.2-10.4 2.2-2.7 3.5-4.3 3.7-4.2 0.1 0.1-1 1.9-3 4.7z"/>
										</g>
									</g>
								</g>
							</g>
						</g>
					</g>
					<g id="&lt;Group&gt;">
						<g id="&lt;Group&gt;">
							<g id="&lt;Group&gt;">
								<g id="&lt;Group&gt;">
									<g id="&lt;Group&gt;">
										<g id="&lt;Group&gt;">
											<path id="&lt;Path&gt;" class="s0" d="m820.6 713.9q0.1 0.8 0.2 2 0.2 2.8 0.6 7.5c0.5 6.6 1.1 15.9 1.9 26.9v-0.1c2.1 11.1 7.8 23.4 15.4 35.4 5.6 8.9 11.5 17 16.6 24.6 5.1 7.6 9.4 14.7 12.3 20.9 3 6.3 4.7 11.7 5.6 15.4q0.6 2.9 0.9 4.4 0.2 1.5 0.2 1.6-0.1-0.1-0.5-1.5-0.3-1.5-1-4.3c-1.1-3.7-2.8-9-5.9-15.2-3-6.2-7.3-13.1-12.5-20.7-5.1-7.5-11-15.6-16.7-24.5-7.7-12.1-13.4-24.6-15.4-35.9-0.6-11.1-1.1-20.3-1.5-27q-0.2-4.7-0.3-7.5 0-1.2-0.1-2 0-0.7 0.1-0.7 0 0 0.1 0.7z"/>
										</g>
									</g>
								</g>
							</g>
						</g>
						<g id="&lt;Group&gt;">
							<g id="&lt;Group&gt;">
								<g id="&lt;Group&gt;">
									<g id="&lt;Group&gt;">
										<g id="&lt;Group&gt;">
											<path id="&lt;Path&gt;" class="s1" d="m837.2 784q-11.9-28.8 3.1-47.6c0.5-0.6 1.6-0.4 1.8 0.4 1.4 4.8 3.8 19.5-4.9 47.2z"/>
										</g>
									</g>
								</g>
							</g>
							<g id="&lt;Group&gt;">
								<g id="&lt;Group&gt;">
									<g id="&lt;Group&gt;">
										<g id="&lt;Group&gt;">
											<g id="&lt;Group&gt;">
												<path id="&lt;Path&gt;" class="s0" d="m839.3 751.9c-0.3 3.9-0.6 8.3-0.9 13.3-0.4 4.9-0.7 9.4-0.9 13.2-0.2 3.4-0.3 5.5-0.5 5.5-0.2 0-0.3-2.1-0.3-5.5 0-3.4 0.1-8.1 0.5-13.3 0.4-5.2 0.9-9.9 1.3-13.2 0.4-3.4 0.8-5.5 0.9-5.5 0.2 0.1 0.1 2.2-0.1 5.5z"/>
											</g>
										</g>
									</g>
								</g>
							</g>
							<g id="&lt;Group&gt;" style="opacity: .3">
								<g id="&lt;Group&gt;">
									<g id="&lt;Group&gt;">
										<g id="&lt;Group&gt;">
											<path id="&lt;Path&gt;" class="s2" d="m837.2 784q-11.9-28.8 3.1-47.6c0.5-0.6 1.6-0.4 1.8 0.4 1.4 4.8 3.8 19.5-4.9 47.2z"/>
										</g>
									</g>
								</g>
							</g>
						</g>
						<g id="&lt;Group&gt;">
							<g id="&lt;Group&gt;">
								<g id="&lt;Group&gt;">
									<g id="&lt;Group&gt;">
										<g id="&lt;Group&gt;">
											<path id="&lt;Path&gt;" class="s1" d="m874.2 853.2q-9.6-29.6 6.9-47.2c0.6-0.6 1.6-0.3 1.8 0.5 0.9 4.9 2.2 19.8-8.7 46.7z"/>
										</g>
									</g>
								</g>
							</g>
							<g id="&lt;Group&gt;">
								<g id="&lt;Group&gt;">
									<g id="&lt;Group&gt;">
										<g id="&lt;Group&gt;">
											<g id="&lt;Group&gt;">
												<path id="&lt;Path&gt;" class="s0" d="m878.8 821.4c-0.5 3.8-1.2 8.2-2 13.1-0.7 4.9-1.4 9.4-1.9 13.1-0.5 3.4-0.8 5.5-0.9 5.5-0.2-0.1-0.2-2.2 0.1-5.6 0.2-3.4 0.8-8 1.6-13.2 0.8-5.1 1.6-9.7 2.3-13 0.7-3.4 1.2-5.4 1.4-5.4 0.2 0.1-0.1 2.2-0.6 5.5z"/>
											</g>
										</g>
									</g>
								</g>
							</g>
							<g id="&lt;Group&gt;" style="opacity: .3">
								<g id="&lt;Group&gt;">
									<g id="&lt;Group&gt;">
										<g id="&lt;Group&gt;">
											<path id="&lt;Path&gt;" class="s2" d="m874.2 853.2q-9.6-29.6 6.9-47.2c0.6-0.6 1.6-0.3 1.8 0.5 0.9 4.9 2.2 19.8-8.7 46.7z"/>
										</g>
									</g>
								</g>
							</g>
						</g>
						<g id="&lt;Group&gt;">
							<g id="&lt;Group&gt;">
								<g id="&lt;Group&gt;">
									<g id="&lt;Group&gt;">
										<g id="&lt;Group&gt;">
											<path id="&lt;Path&gt;" class="s1" d="m822.1 748.9q-25.5-17.9-22.9-41.8c0-0.8 1-1.2 1.7-0.7 3.7 3.4 13.7 14.5 21.2 42.5z"/>
										</g>
									</g>
								</g>
							</g>
							<g id="&lt;Group&gt;" style="opacity: .3">
								<g id="&lt;Group&gt;">
									<g id="&lt;Group&gt;">
										<g id="&lt;Group&gt;">
											<path id="&lt;Path&gt;" class="s2" d="m822.1 748.9q-25.5-17.9-22.9-41.8c0-0.8 1-1.2 1.7-0.7 3.7 3.4 13.7 14.5 21.2 42.5z"/>
										</g>
									</g>
								</g>
							</g>
							<g id="&lt;Group&gt;">
								<g id="&lt;Group&gt;">
									<g id="&lt;Group&gt;">
										<g id="&lt;Group&gt;">
											<g id="&lt;Group&gt;">
												<path id="&lt;Path&gt;" class="s0" d="m806.6 720.8c1.8 3.3 4 7.3 6.3 11.6 2.4 4.4 4.5 8.3 6.4 11.6 1.6 3 2.6 4.8 2.5 4.9-0.1 0.1-1.4-1.6-3.2-4.4-1.9-2.9-4.2-7-6.7-11.5-2.5-4.6-4.6-8.8-6-11.9-1.5-3-2.3-5-2.1-5.1 0.1 0 1.2 1.8 2.8 4.8z"/>
											</g>
										</g>
									</g>
								</g>
							</g>
						</g>
						<g id="&lt;Group&gt;">
							<g id="&lt;Group&gt;">
								<g id="&lt;Group&gt;">
									<g id="&lt;Group&gt;">
										<g id="&lt;Group&gt;">
											<path id="&lt;Path&gt;" class="s1" d="m863.9 823.8q-30.7-4.8-38.9-27.4c-0.3-0.8 0.4-1.6 1.2-1.3 4.8 1.3 18.7 6.9 37.7 28.7z"/>
										</g>
									</g>
								</g>
							</g>
							<g id="&lt;Group&gt;" style="opacity: .3">
								<g id="&lt;Group&gt;">
									<g id="&lt;Group&gt;">
										<g id="&lt;Group&gt;">
											<path id="&lt;Path&gt;" class="s2" d="m863.9 823.8q-30.7-4.8-38.9-27.4c-0.3-0.8 0.4-1.6 1.2-1.3 4.8 1.3 18.7 6.9 37.7 28.7z"/>
										</g>
									</g>
								</g>
							</g>
							<g id="&lt;Group&gt;">
								<g id="&lt;Group&gt;">
									<g id="&lt;Group&gt;">
										<g id="&lt;Group&gt;">
											<g id="&lt;Group&gt;">
												<path id="&lt;Path&gt;" class="s0" d="m837.7 805.4c3.1 2.2 6.7 4.8 10.8 7.7 4 2.8 7.7 5.4 10.8 7.6 2.8 2 4.5 3.1 4.4 3.3 0 0.1-1.9-0.8-4.8-2.6-2.9-1.8-6.9-4.4-11.1-7.4-4.2-3-8-5.8-10.6-8-2.7-2.1-4.3-3.5-4.2-3.6 0.1-0.1 1.9 1 4.7 3z"/>
											</g>
										</g>
									</g>
								</g>
							</g>
						</g>
					</g>
				</g>
				<g id="&lt;Group&gt;">
					<g id="&lt;Group&gt;">
						<g id="&lt;Group&gt;">
							<g id="&lt;Group&gt;">
								<path id="&lt;Path&gt;" class="s5" d="m900.3 880.4l-8.8 57.8-35.2-0.1-11.9-57.7z"/>
							</g>
						</g>
					</g>
				</g>
			</g>
			<g id="&lt;Group&gt;">
				<g id="&lt;Group&gt;">
					<path id="&lt;Path&gt;" class="s0" d="m861.2 904c-2.4 0.8-4.7 0.8-6.5 0.6-1.8-0.3-3.1-0.8-3.9-1.2-0.4-0.2-0.7-0.4-0.9-0.5q-0.3-0.2-0.3-0.2c0-0.2 1.7 1.1 5.2 1.5 1.7 0.2 3.9 0.1 6.2-0.7 2.3-0.8 4.9-2.4 6.6-5 0.8-1.2 1.4-2.8 1.4-4.4 0.1-1.7-0.5-3.4-2-4.3-1.5-0.8-3.5-0.5-5 0.5-1.6 1-2.5 2.9-3 4.8-0.5 2-0.5 4.1-0.4 6.3 0.2 2.1 0.6 4.3 1.4 6.4 0.8 2 2.1 3.9 3.8 5.4 1.7 1.5 3.9 2.5 6.2 2.6 2.3 0.1 4.6-0.7 6.5-1.9 1.9-1.2 3.6-2.8 5-4.5 1.4-1.7 2.4-3.8 2.5-5.8 0.1-2.1-0.6-4.2-2.1-5.4-1.5-1.2-3.7-1.2-5.3-0.3-1.7 0.8-2.9 2.3-3.2 4.1-0.7 3.5 1.4 6.9 4 8.4 2.7 1.6 5.6 1.7 8.1 1.3 2.4-0.5 4.4-1.4 5.9-2.2 1.6-0.8 2.7-1.6 3.5-2.1q1.1-0.8 1.2-0.8 0 0.1-1.1 0.9c-0.7 0.6-1.9 1.4-3.4 2.3-1.5 0.9-3.5 1.9-6 2.4-2.5 0.5-5.7 0.4-8.5-1.2-2.9-1.6-5.2-5.2-4.5-9.2 0.3-1.9 1.7-3.7 3.6-4.7 1.8-1 4.4-1.1 6.2 0.4 1.8 1.4 2.6 3.8 2.5 6.1-0.1 2.3-1.2 4.5-2.6 6.4-1.5 1.8-3.2 3.4-5.3 4.7-2 1.3-4.5 2.2-7 2.1-2.6-0.2-5-1.3-6.8-2.9-1.9-1.6-3.2-3.6-4.1-5.8-0.9-2.2-1.3-4.4-1.4-6.7-0.1-2.2-0.1-4.4 0.4-6.5 0.5-2.1 1.6-4.1 3.4-5.3 1.7-1.2 4.1-1.5 5.9-0.5 1.8 1.1 2.5 3.2 2.4 5-0.1 1.8-0.7 3.4-1.6 4.8-1.9 2.7-4.6 4.3-7 5.1z"/>
				</g>
			</g>
		</g>
	</g>
</svg>